SplineFontDB: 3.2
FontName: KoreeneSans-Thin
FullName: Koreene Sans Thin
FamilyName: Koreene Sans Thin
Weight: Thin
Copyright: (C) Copyright HanYang I&C Co.,Ltd. All rights reserved.
Version: 2.50; ttfautohint (v1.8.4.7-5d5b-dirty)
ItalicAngle: 0
UnderlinePosition: -122
UnderlineWidth: 45
Ascent: 819
Descent: 205
InvalidEm: 0
sfntRevision: 0x00020147
LayerCount: 2
Layer: 0 1 "Back" 1
Layer: 1 1 "Fore" 0
XUID: [1021 531 -1996577725 7693]
StyleMap: 0x0040
FSType: 0
OS2Version: 4
OS2_WeightWidthSlopeOnly: 0
OS2_UseTypoMetrics: 1
CreationTime: 1068260456
ModificationTime: 1702473893
PfmFamily: 81
TTFWeight: 100
TTFWidth: 5
LineGap: 256
VLineGap: 0
Panose: 0 0 0 0 0 0 0 0 0 0
OS2TypoAscent: 970
OS2TypoAOffset: 0
OS2TypoDescent: -235
OS2TypoDOffset: 0
OS2TypoLinegap: 256
OS2WinAscent: 1098
OS2WinAOffset: 0
OS2WinDescent: 363
OS2WinDOffset: 0
HheadAscent: 970
HheadAOffset: 0
HheadDescent: -235
HheadDOffset: 0
OS2SubXSize: 205
OS2SubYSize: 205
OS2SubXOff: 0
OS2SubYOff: 287
OS2SupXSize: 205
OS2SupYSize: 205
OS2SupXOff: 0
OS2SupYOff: 963
OS2StrikeYSize: 102
OS2StrikeYPos: 512
OS2CapHeight: 735
OS2XHeight: 520
OS2Vendor: 'HY  '
OS2CodePages: 2000019f.00000000
OS2UnicodeRanges: e10002ff.4000001b.00000000.00000000
Lookup: 1 0 0 "'aalt' Access All Alternates lookup 0" { "'aalt' Access All Alternates lookup 0 subtable"  } ['aalt' ('DFLT' <'dflt' > 'cyrl' <'dflt' > 'grek' <'dflt' > 'hang' <'dflt' > 'jamo' <'dflt' > 'latn' <'dflt' > ) ]
Lookup: 3 0 0 "'aalt' Access All Alternates lookup 1" { "'aalt' Access All Alternates lookup 1 subtable"  } ['aalt' ('DFLT' <'dflt' > 'cyrl' <'dflt' > 'grek' <'dflt' > 'hang' <'dflt' > 'jamo' <'dflt' > 'latn' <'dflt' > ) ]
Lookup: 1 0 0 "'locl' Localized Forms in Latin lookup 2" { "'locl' Localized Forms in Latin lookup 2 subtable"  } ['locl' ('latn' <'MOL ' > ) ]
Lookup: 1 0 0 "'locl' Localized Forms in Latin lookup 3" { "'locl' Localized Forms in Latin lookup 3 subtable"  } ['locl' ('latn' <'ROM ' > ) ]

StartChar: exclam
Encoding: 33 33 4
Width: 317
GlyphClass: 2
Flags: W
LayerCount: 2
Fore
SplineSet
116 -8 m 1,0,-1
 116 76 l 1,1,-1
 203 76 l 1,2,-1
 203 -8 l 1,3,-1
 116 -8 l 1,0,-1
173 211 m 1,4,-1
 146 211 l 1,5,-1
 139 736 l 1,6,-1
 180 736 l 1,7,-1
 173 211 l 1,4,-1
EndSplineSet
EndChar

StartChar: quotedbl
Encoding: 34 34 5
Width: 457
GlyphClass: 2
Flags: W
LayerCount: 2
Fore
SplineSet
260 560 m 1,0,-1
 350 836 l 1,1,-1
 408 836 l 1,2,-1
 289 560 l 1,3,-1
 260 560 l 1,0,-1
73 560 m 1,4,-1
 163 836 l 1,5,-1
 220 836 l 1,6,-1
 102 560 l 1,7,-1
 73 560 l 1,4,-1
EndSplineSet
EndChar

StartChar: numbersign
Encoding: 35 35 6
Width: 692
GlyphClass: 2
Flags: W
LayerCount: 2
Fore
SplineSet
49 217 m 1,0,-1
 49 241 l 1,1,-1
 185 241 l 1,2,-1
 218 474 l 1,3,-1
 83 474 l 1,4,-1
 83 498 l 1,5,-1
 221 498 l 1,6,-1
 252 710 l 1,7,-1
 279 710 l 1,8,-1
 250 498 l 1,9,-1
 484 498 l 1,10,-1
 515 710 l 1,11,-1
 542 710 l 1,12,-1
 513 498 l 1,13,-1
 645 498 l 1,14,-1
 645 474 l 1,15,-1
 509 474 l 1,16,-1
 476 241 l 1,17,-1
 611 241 l 1,18,-1
 611 217 l 1,19,-1
 473 217 l 1,20,-1
 443 4 l 1,21,-1
 414 4 l 1,22,-1
 445 217 l 1,23,-1
 210 217 l 1,24,-1
 180 4 l 1,25,-1
 152 4 l 1,26,-1
 182 217 l 1,27,-1
 49 217 l 1,0,-1
213 241 m 1,28,-1
 448 241 l 1,29,-1
 481 474 l 1,30,-1
 246 474 l 1,31,-1
 213 241 l 1,28,-1
EndSplineSet
EndChar

StartChar: dollar
Encoding: 36 36 7
Width: 599
GlyphClass: 2
Flags: W
LayerCount: 2
Fore
SplineSet
85 114 m 1,0,-1
 110 130 l 1,1,2
 140 85 140 85 196 56 c 128,-1,3
 252 27 252 27 299 27 c 0,4,5
 379 27 379 27 430.5 62.5 c 128,-1,6
 482 98 482 98 482 176 c 0,7,8
 482 201 482 201 475 222.5 c 128,-1,9
 468 244 468 244 459 259.5 c 128,-1,10
 450 275 450 275 430 291.5 c 128,-1,11
 410 308 410 308 397 317 c 128,-1,12
 384 326 384 326 355 338.5 c 128,-1,13
 326 351 326 351 312.5 356.5 c 128,-1,14
 299 362 299 362 267 374 c 0,15,16
 188 403 188 403 143.5 446.5 c 128,-1,17
 99 490 99 490 99 565 c 0,18,19
 99 634 99 634 150 683.5 c 128,-1,20
 201 733 201 733 284 734 c 1,21,-1
 284 818 l 1,22,-1
 315 818 l 1,23,-1
 315 734 l 1,24,25
 367 733 367 733 415.5 703 c 128,-1,26
 464 673 464 673 483 637 c 1,27,-1
 458 625 l 1,28,29
 399 707 399 707 298 707 c 0,30,31
 219 707 219 707 174.5 666.5 c 128,-1,32
 130 626 130 626 130 563 c 0,33,34
 130 497 130 497 172 459 c 128,-1,35
 214 421 214 421 292 392 c 0,36,37
 335 375 335 375 356 366.5 c 128,-1,38
 377 358 377 358 413 337.5 c 128,-1,39
 449 317 449 317 466.5 298 c 128,-1,40
 484 279 484 279 499 247.5 c 128,-1,41
 514 216 514 216 514 179 c 0,42,43
 514 90 514 90 456 46 c 128,-1,44
 398 2 398 2 315 0 c 1,45,-1
 315 -81 l 1,46,-1
 284 -81 l 1,47,-1
 284 0 l 1,48,49
 236 1 236 1 178.5 31 c 128,-1,50
 121 61 121 61 85 114 c 1,0,-1
EndSplineSet
EndChar

StartChar: percent
Encoding: 37 37 8
Width: 978
GlyphClass: 2
Flags: W
LayerCount: 2
Fore
SplineSet
545 153 m 0,0,1
 545 228 545 228 595.5 275.5 c 128,-1,2
 646 323 646 323 719 323 c 0,3,4
 794 323 794 323 844.5 275.5 c 128,-1,5
 895 228 895 228 895 153 c 0,6,7
 895 77 895 77 843.5 29 c 128,-1,8
 792 -19 792 -19 719 -19 c 0,9,10
 648 -19 648 -19 596.5 28.5 c 128,-1,11
 545 76 545 76 545 153 c 0,0,1
575 153 m 0,12,13
 575 87 575 87 618.5 47 c 128,-1,14
 662 7 662 7 719 7 c 0,15,16
 778 7 778 7 822 48 c 128,-1,17
 866 89 866 89 866 153 c 0,18,19
 866 216 866 216 823.5 256 c 128,-1,20
 781 296 781 296 719 296 c 0,21,22
 659 296 659 296 617 256 c 128,-1,23
 575 216 575 216 575 153 c 0,12,13
84 583 m 0,24,25
 84 658 84 658 135 706.5 c 128,-1,26
 186 755 186 755 260 755 c 0,27,28
 335 755 335 755 385 707 c 128,-1,29
 435 659 435 659 435 583 c 256,30,31
 435 507 435 507 384 460.5 c 128,-1,32
 333 414 333 414 260 414 c 0,33,34
 188 414 188 414 136 460 c 128,-1,35
 84 506 84 506 84 583 c 0,24,25
113 583 m 0,36,37
 113 520 113 520 157.5 480 c 128,-1,38
 202 440 202 440 260 440 c 256,39,40
 318 440 318 440 361 480 c 128,-1,41
 404 520 404 520 404 583 c 0,42,43
 404 647 404 647 362 688 c 128,-1,44
 320 729 320 729 260 729 c 256,45,46
 200 729 200 729 156.5 688 c 128,-1,47
 113 647 113 647 113 583 c 0,36,37
204 -5 m 1,48,-1
 742 740 l 1,49,-1
 777 740 l 1,50,-1
 238 -5 l 1,51,-1
 204 -5 l 1,48,-1
EndSplineSet
EndChar

StartChar: ampersand
Encoding: 38 38 9
Width: 648
GlyphClass: 2
Flags: W
LayerCount: 2
Fore
SplineSet
113 181 m 0,0,1
 113 106 113 106 164.5 56 c 128,-1,2
 216 6 216 6 294 6 c 0,3,4
 362 6 362 6 417 42 c 128,-1,5
 472 78 472 78 505 131 c 1,6,-1
 286 411 l 1,7,8
 113 319 113 319 113 181 c 0,0,1
81 180 m 0,9,10
 81 270 81 270 133 330 c 128,-1,11
 185 390 185 390 268 436 c 1,12,13
 240 475 240 475 227 495.5 c 128,-1,14
 214 516 214 516 199 548.5 c 128,-1,15
 184 581 184 581 184 605 c 0,16,17
 184 664 184 664 228 704.5 c 128,-1,18
 272 745 272 745 349 745 c 0,19,20
 413 745 413 745 459.5 712 c 128,-1,21
 506 679 506 679 528 632 c 1,22,-1
 501 622 l 1,23,24
 482 660 482 660 441.5 689 c 128,-1,25
 401 718 401 718 350 718 c 0,26,27
 289 718 289 718 252.5 684.5 c 128,-1,28
 216 651 216 651 216 606 c 0,29,30
 216 584 216 584 233.5 549 c 128,-1,31
 251 514 251 514 287 463 c 128,-1,32
 323 412 323 412 355 371 c 128,-1,33
 387 330 387 330 441 262 c 128,-1,34
 495 194 495 194 522 159 c 1,35,36
 563 234 563 234 574 334 c 1,37,-1
 604 330 l 1,38,39
 592 220 592 220 544 132 c 1,40,-1
 647 0 l 1,41,-1
 609 0 l 1,42,-1
 525 106 l 1,43,44
 493 55 493 55 433.5 17.5 c 128,-1,45
 374 -20 374 -20 293 -20 c 0,46,47
 196 -20 196 -20 138.5 37.5 c 128,-1,48
 81 95 81 95 81 180 c 0,9,10
EndSplineSet
EndChar

StartChar: quotesingle
Encoding: 39 39 10
Width: 263
GlyphClass: 2
Flags: W
LayerCount: 2
Fore
SplineSet
72 560 m 1,0,-1
 161 836 l 1,1,-1
 218 836 l 1,2,-1
 101 560 l 1,3,-1
 72 560 l 1,0,-1
EndSplineSet
EndChar

StartChar: parenleft
Encoding: 40 40 11
Width: 472
GlyphClass: 2
Flags: W
LayerCount: 2
Fore
SplineSet
184 349 m 0,0,1
 184 652 184 652 358 862 c 1,2,-1
 380 849 l 1,3,4
 347 805 347 805 323 764.5 c 128,-1,5
 299 724 299 724 272 661.5 c 128,-1,6
 245 599 245 599 230.5 519.5 c 128,-1,7
 216 440 216 440 216 349 c 0,8,9
 216 253 216 253 232 170 c 128,-1,10
 248 87 248 87 281 19.5 c 128,-1,11
 314 -48 314 -48 330 -74.5 c 128,-1,12
 346 -101 346 -101 380 -149 c 1,13,-1
 358 -161 l 1,14,15
 184 51 184 51 184 349 c 0,0,1
EndSplineSet
Substitution2: "'sups' Superscript lookup 5 subtable" uni207D
Substitution2: "'aalt' Access All Alternates lookup 0 subtable" uni207D
EndChar

StartChar: parenright
Encoding: 41 41 12
Width: 472
GlyphClass: 2
Flags: W
LayerCount: 2
Fore
SplineSet
91 -149 m 1,0,1
 119 -110 119 -110 132 -91 c 128,-1,2
 145 -72 145 -72 173.5 -18.5 c 128,-1,3
 202 35 202 35 216.5 81.5 c 128,-1,4
 231 128 231 128 244 200 c 128,-1,5
 257 272 257 272 257 349 c 0,6,7
 257 440 257 440 242.5 518.5 c 128,-1,8
 228 597 228 597 201 659 c 128,-1,9
 174 721 174 721 149.5 762.5 c 128,-1,10
 125 804 125 804 91 849 c 1,11,-1
 114 862 l 1,12,13
 288 652 288 652 288 349 c 0,14,15
 288 53 288 53 114 -161 c 1,16,-1
 91 -149 l 1,0,1
EndSplineSet
Substitution2: "'sups' Superscript lookup 5 subtable" uni207E
Substitution2: "'aalt' Access All Alternates lookup 0 subtable" uni207E
EndChar

StartChar: asterisk
Encoding: 42 42 13
Width: 563
GlyphClass: 2
Flags: W
LayerCount: 2
Fore
SplineSet
43 434 m 1,0,-1
 54 464 l 1,1,-1
 270 383 l 1,2,-1
 264 596 l 1,3,-1
 301 596 l 1,4,-1
 295 383 l 1,5,-1
 511 464 l 1,6,-1
 523 434 l 1,7,-1
 303 357 l 1,8,-1
 469 169 l 1,9,-1
 442 148 l 1,10,-1
 282 339 l 1,11,-1
 124 149 l 1,12,-1
 97 169 l 1,13,-1
 262 357 l 1,14,-1
 43 434 l 1,0,-1
EndSplineSet
EndChar

StartChar: plus
Encoding: 43 43 14
Width: 563
GlyphClass: 2
Flags: W
LayerCount: 2
Fore
SplineSet
38 348 m 1,0,-1
 38 375 l 1,1,-1
 268 375 l 1,2,-1
 268 596 l 1,3,-1
 297 596 l 1,4,-1
 297 375 l 1,5,-1
 525 375 l 1,6,-1
 525 348 l 1,7,-1
 297 348 l 1,8,-1
 297 119 l 1,9,-1
 268 119 l 1,10,-1
 268 348 l 1,11,-1
 38 348 l 1,0,-1
EndSplineSet
Substitution2: "'sups' Superscript lookup 5 subtable" uni207A
Substitution2: "'aalt' Access All Alternates lookup 0 subtable" uni207A
EndChar

StartChar: comma
Encoding: 44 44 15
Width: 275
GlyphClass: 2
Flags: W
LayerCount: 2
Fore
SplineSet
34 -190 m 1,0,-1
 124 84 l 1,1,-1
 180 84 l 1,2,-1
 62 -190 l 1,3,-1
 34 -190 l 1,0,-1
EndSplineSet
EndChar

StartChar: hyphen
Encoding: 45 45 16
Width: 394
GlyphClass: 2
Flags: W
LayerCount: 2
Fore
SplineSet
41 348 m 1,0,-1
 41 375 l 1,1,-1
 355 375 l 1,2,-1
 355 348 l 1,3,-1
 41 348 l 1,0,-1
EndSplineSet
EndChar

StartChar: period
Encoding: 46 46 17
Width: 275
GlyphClass: 2
Flags: W
LayerCount: 2
Fore
SplineSet
96 0 m 1,0,-1
 96 84 l 1,1,-1
 181 84 l 1,2,-1
 181 0 l 1,3,-1
 96 0 l 1,0,-1
EndSplineSet
EndChar

StartChar: slash
Encoding: 47 47 18
Width: 314
GlyphClass: 2
Flags: W
LayerCount: 2
Fore
SplineSet
-7 -68 m 1,0,-1
 290 795 l 1,1,-1
 322 795 l 1,2,-1
 25 -68 l 1,3,-1
 -7 -68 l 1,0,-1
EndSplineSet
EndChar

StartChar: zero
Encoding: 48 48 19
Width: 550
GlyphClass: 2
Flags: W
LayerCount: 2
Fore
SplineSet
90 368 m 0,0,1
 90 199 90 199 137.5 103 c 128,-1,2
 185 7 185 7 277 7 c 0,3,4
 327 7 327 7 364 36 c 128,-1,5
 401 65 401 65 421.5 116.5 c 128,-1,6
 442 168 442 168 452 230.5 c 128,-1,7
 462 293 462 293 462 368 c 0,8,9
 462 540 462 540 414 634 c 128,-1,10
 366 728 366 728 275 728 c 0,11,12
 186 728 186 728 138 636 c 128,-1,13
 90 544 90 544 90 368 c 0,0,1
57 368 m 0,14,15
 57 561 57 561 116.5 658 c 128,-1,16
 176 755 176 755 275 755 c 0,17,18
 375 755 375 755 434.5 657.5 c 128,-1,19
 494 560 494 560 494 368 c 0,20,21
 494 289 494 289 482 222 c 128,-1,22
 470 155 470 155 445.5 99.5 c 128,-1,23
 421 44 421 44 378 12.5 c 128,-1,24
 335 -19 335 -19 277 -19 c 0,25,26
 173 -19 173 -19 115 83 c 128,-1,27
 57 185 57 185 57 368 c 0,14,15
EndSplineSet
EndChar

StartChar: one
Encoding: 49 49 20
Width: 550
GlyphClass: 2
Flags: W
LayerCount: 2
Fore
SplineSet
118 612 m 1,0,-1
 118 636 l 1,1,-1
 157 636 l 2,2,3
 231 636 231 636 255 651 c 128,-1,4
 279 666 279 666 279 714 c 2,5,-1
 279 749 l 1,6,-1
 306 749 l 1,7,-1
 306 -14 l 1,8,-1
 274 -14 l 1,9,-1
 274 612 l 1,10,-1
 118 612 l 1,0,-1
EndSplineSet
Substitution2: "'subs' Subscript lookup 6 subtable" uni2081
Substitution2: "'sups' Superscript lookup 5 subtable" onesuperior
Substitution2: "'sinf' Scientific Inferiors lookup 4 subtable" uni2081
AlternateSubs2: "'aalt' Access All Alternates lookup 1 subtable" uni2081 onesuperior
EndChar

StartChar: two
Encoding: 50 50 21
Width: 550
GlyphClass: 2
Flags: W
LayerCount: 2
Fore
SplineSet
56 586 m 1,0,1
 107 755 107 755 275 755 c 0,2,3
 363 755 363 755 420 703.5 c 128,-1,4
 477 652 477 652 477 558 c 0,5,6
 477 448 477 448 362 340 c 0,7,8
 219 208 219 208 163.5 144.5 c 128,-1,9
 108 81 108 81 95 26 c 1,10,-1
 477 26 l 1,11,-1
 477 0 l 1,12,-1
 57 0 l 1,13,14
 57 24 57 24 65 49 c 128,-1,15
 73 74 73 74 96.5 106 c 128,-1,16
 120 138 120 138 136 159 c 128,-1,17
 152 180 152 180 195 222.5 c 128,-1,18
 238 265 238 265 257.5 282.5 c 128,-1,19
 277 300 277 300 333 353 c 0,20,21
 445 461 445 461 445 559 c 0,22,23
 445 641 445 641 398.5 684.5 c 128,-1,24
 352 728 352 728 272 728 c 0,25,26
 199 728 199 728 151 687.5 c 128,-1,27
 103 647 103 647 86 579 c 1,28,-1
 56 586 l 1,0,1
EndSplineSet
Substitution2: "'subs' Subscript lookup 6 subtable" uni2082
Substitution2: "'sups' Superscript lookup 5 subtable" twosuperior
Substitution2: "'sinf' Scientific Inferiors lookup 4 subtable" uni2082
AlternateSubs2: "'aalt' Access All Alternates lookup 1 subtable" uni2082 twosuperior
EndChar

StartChar: three
Encoding: 51 51 22
Width: 550
GlyphClass: 2
Flags: W
LayerCount: 2
Fore
SplineSet
43 103 m 1,0,-1
 71 117 l 1,1,2
 100 69 100 69 148.5 38 c 128,-1,3
 197 7 197 7 258 7 c 0,4,5
 344 7 344 7 402 55.5 c 128,-1,6
 460 104 460 104 460 199 c 0,7,8
 460 288 460 288 399 333 c 128,-1,9
 338 378 338 378 252 378 c 0,10,11
 211 378 211 378 201 377 c 1,12,-1
 201 405 l 1,13,14
 209 404 209 404 248 404 c 0,15,16
 329 404 329 404 379.5 449.5 c 128,-1,17
 430 495 430 495 430 572 c 0,18,19
 430 640 430 640 383 684 c 128,-1,20
 336 728 336 728 260 728 c 0,21,22
 150 728 150 728 93 611 c 1,23,-1
 64 622 l 1,24,25
 126 755 126 755 261 755 c 0,26,27
 354 755 354 755 407.5 702.5 c 128,-1,28
 461 650 461 650 461 573 c 0,29,30
 461 502 461 502 421 455.5 c 128,-1,31
 381 409 381 409 327 394 c 1,32,33
 393 382 393 382 442.5 333 c 128,-1,34
 492 284 492 284 492 199 c 0,35,36
 492 93 492 93 427 37 c 128,-1,37
 362 -19 362 -19 259 -19 c 0,38,39
 120 -19 120 -19 43 103 c 1,0,-1
EndSplineSet
Substitution2: "'subs' Subscript lookup 6 subtable" uni2083
Substitution2: "'sups' Superscript lookup 5 subtable" threesuperior
Substitution2: "'sinf' Scientific Inferiors lookup 4 subtable" uni2083
AlternateSubs2: "'aalt' Access All Alternates lookup 1 subtable" uni2083 threesuperior
EndChar

StartChar: four
Encoding: 52 52 23
Width: 550
GlyphClass: 2
Flags: W
LayerCount: 2
Fore
SplineSet
23 211 m 1,0,-1
 376 749 l 1,1,-1
 411 749 l 1,2,-1
 411 212 l 1,3,-1
 535 212 l 1,4,-1
 535 186 l 1,5,-1
 411 186 l 1,6,-1
 411 -15 l 1,7,-1
 381 -15 l 1,8,-1
 381 186 l 1,9,-1
 23 186 l 1,10,-1
 23 211 l 1,0,-1
55 212 m 1,11,-1
 381 212 l 1,12,-1
 381 584 l 2,13,14
 381 671 381 671 382 707 c 1,15,-1
 380 707 l 1,16,-1
 316 607 l 1,17,-1
 55 212 l 1,11,-1
EndSplineSet
Substitution2: "'subs' Subscript lookup 6 subtable" uni2084
Substitution2: "'sups' Superscript lookup 5 subtable" uni2074
Substitution2: "'sinf' Scientific Inferiors lookup 4 subtable" uni2084
AlternateSubs2: "'aalt' Access All Alternates lookup 1 subtable" uni2084 uni2074
EndChar

StartChar: five
Encoding: 53 53 24
Width: 550
GlyphClass: 2
Flags: W
LayerCount: 2
Fore
SplineSet
52 99 m 1,0,-1
 78 112 l 1,1,2
 106 64 106 64 152.5 35.5 c 128,-1,3
 199 7 199 7 252 7 c 0,4,5
 342 7 342 7 394 66 c 128,-1,6
 446 125 446 125 446 211 c 0,7,8
 446 304 446 304 393.5 359.5 c 128,-1,9
 341 415 341 415 254 415 c 0,10,11
 213 415 213 415 167.5 399 c 128,-1,12
 122 383 122 383 90 351 c 1,13,-1
 72 358 l 1,14,-1
 110 735 l 1,15,-1
 432 735 l 1,16,-1
 432 709 l 1,17,-1
 139 709 l 1,18,-1
 104 394 l 1,19,20
 174 442 174 442 264 442 c 0,21,22
 358 442 358 442 418 378.5 c 128,-1,23
 478 315 478 315 478 211 c 0,24,25
 478 114 478 114 418 47.5 c 128,-1,26
 358 -19 358 -19 252 -19 c 0,27,28
 187 -19 187 -19 135 12 c 128,-1,29
 83 43 83 43 52 99 c 1,0,-1
EndSplineSet
EndChar

StartChar: six
Encoding: 54 54 25
Width: 550
GlyphClass: 2
Flags: W
LayerCount: 2
Fore
SplineSet
96 222 m 0,0,1
 96 132 96 132 147.5 69.5 c 128,-1,2
 199 7 199 7 284 7 c 0,3,4
 365 7 365 7 418.5 69 c 128,-1,5
 472 131 472 131 472 222 c 0,6,7
 472 316 472 316 418 378.5 c 128,-1,8
 364 441 364 441 282 441 c 0,9,10
 201 441 201 441 148.5 377.5 c 128,-1,11
 96 314 96 314 96 222 c 0,0,1
56 321 m 0,12,13
 56 399 56 399 68.5 471 c 128,-1,14
 81 543 81 543 108.5 609 c 128,-1,15
 136 675 136 675 188.5 715 c 128,-1,16
 241 755 241 755 312 755 c 0,17,18
 425 755 425 755 490 644 c 1,19,-1
 464 631 l 1,20,21
 406 728 406 728 312 728 c 0,22,23
 255 728 255 728 212 696.5 c 128,-1,24
 169 665 169 665 145.5 612.5 c 128,-1,25
 122 560 122 560 110 510.5 c 128,-1,26
 98 461 98 461 93 404 c 0,27,28
 90 372 90 372 88 307 c 1,29,30
 105 378 105 378 157 422.5 c 128,-1,31
 209 467 209 467 287 467 c 0,32,33
 383 467 383 467 443 396.5 c 128,-1,34
 503 326 503 326 503 224 c 0,35,36
 503 123 503 123 444 52 c 128,-1,37
 385 -19 385 -19 287 -19 c 0,38,39
 196 -19 196 -19 139 36 c 0,40,41
 94 79 94 79 75 147.5 c 128,-1,42
 56 216 56 216 56 321 c 0,12,13
EndSplineSet
EndChar

StartChar: seven
Encoding: 55 55 26
Width: 550
GlyphClass: 2
Flags: W
LayerCount: 2
Fore
SplineSet
35 708 m 1,0,-1
 35 735 l 1,1,-1
 476 735 l 1,2,-1
 476 712 l 1,3,4
 361 518 361 518 294 358.5 c 128,-1,5
 227 199 227 199 179 -15 c 1,6,-1
 148 -15 l 1,7,8
 198 209 198 209 265 365.5 c 128,-1,9
 332 522 332 522 439 708 c 1,10,-1
 35 708 l 1,0,-1
EndSplineSet
EndChar

StartChar: eight
Encoding: 56 56 27
Width: 550
GlyphClass: 2
Flags: W
LayerCount: 2
Fore
SplineSet
103 570 m 0,0,1
 103 499 103 499 155.5 454.5 c 128,-1,2
 208 410 208 410 275 410 c 0,3,4
 343 410 343 410 395 456.5 c 128,-1,5
 447 503 447 503 447 570 c 0,6,7
 447 641 447 641 396.5 684.5 c 128,-1,8
 346 728 346 728 275 728 c 0,9,10
 199 728 199 728 151 682 c 128,-1,11
 103 636 103 636 103 570 c 0,0,1
46 190 m 0,12,13
 46 273 46 273 92.5 325.5 c 128,-1,14
 139 378 139 378 208 397 c 1,15,16
 149 416 149 416 110.5 459 c 128,-1,17
 72 502 72 502 72 572 c 0,18,19
 72 647 72 647 128.5 701 c 128,-1,20
 185 755 185 755 275 755 c 0,21,22
 362 755 362 755 420 702 c 128,-1,23
 478 649 478 649 478 572 c 0,24,25
 478 503 478 503 438 458.5 c 128,-1,26
 398 414 398 414 344 397 c 1,27,28
 414 378 414 378 460 325 c 128,-1,29
 506 272 506 272 506 188 c 0,30,31
 506 100 506 100 439.5 40.5 c 128,-1,32
 373 -19 373 -19 275 -19 c 0,33,34
 178 -19 178 -19 112 39.5 c 128,-1,35
 46 98 46 98 46 190 c 0,12,13
77 192 m 0,36,37
 77 112 77 112 134.5 59.5 c 128,-1,38
 192 7 192 7 275 7 c 0,39,40
 360 7 360 7 417 59.5 c 128,-1,41
 474 112 474 112 474 192 c 0,42,43
 474 275 474 275 415.5 329.5 c 128,-1,44
 357 384 357 384 275 384 c 0,45,46
 195 384 195 384 136 330.5 c 128,-1,47
 77 277 77 277 77 192 c 0,36,37
EndSplineSet
EndChar

StartChar: nine
Encoding: 57 57 28
Width: 550
GlyphClass: 2
Flags: W
LayerCount: 2
Fore
SplineSet
75 514 m 0,0,1
 75 417 75 417 131 357 c 128,-1,2
 187 297 187 297 264 297 c 0,3,4
 340 297 340 297 395.5 359 c 128,-1,5
 451 421 451 421 451 513 c 0,6,7
 451 604 451 604 398 666 c 128,-1,8
 345 728 345 728 264 728 c 256,9,10
 183 728 183 728 129 667 c 128,-1,11
 75 606 75 606 75 514 c 0,0,1
57 98 m 1,12,-1
 86 111 l 1,13,14
 108 64 108 64 151 35.5 c 128,-1,15
 194 7 194 7 247 7 c 0,16,17
 451 7 451 7 456 413 c 1,18,19
 437 357 437 357 385 313.5 c 128,-1,20
 333 270 333 270 261 270 c 0,21,22
 171 270 171 270 107.5 336.5 c 128,-1,23
 44 403 44 403 44 513 c 0,24,25
 44 618 44 618 105 686.5 c 128,-1,26
 166 755 166 755 264 755 c 0,27,28
 350 755 350 755 404 704 c 128,-1,29
 458 653 458 653 475 575 c 0,30,31
 486 528 486 528 486 406 c 0,32,33
 486 -19 486 -19 246 -19 c 0,34,35
 178 -19 178 -19 130.5 15 c 128,-1,36
 83 49 83 49 57 98 c 1,12,-1
EndSplineSet
EndChar

StartChar: colon
Encoding: 58 58 29
Width: 275
GlyphClass: 2
Flags: W
LayerCount: 2
Fore
SplineSet
96 0 m 1,0,-1
 96 85 l 1,1,-1
 181 85 l 1,2,-1
 181 0 l 1,3,-1
 96 0 l 1,0,-1
96 387 m 1,4,-1
 96 472 l 1,5,-1
 181 472 l 1,6,-1
 181 387 l 1,7,-1
 96 387 l 1,4,-1
EndSplineSet
EndChar

StartChar: semicolon
Encoding: 59 59 30
Width: 275
GlyphClass: 2
Flags: W
LayerCount: 2
Fore
SplineSet
34 -190 m 1,0,-1
 124 85 l 1,1,-1
 180 85 l 1,2,-1
 62 -190 l 1,3,-1
 34 -190 l 1,0,-1
92 387 m 1,4,-1
 92 472 l 1,5,-1
 177 472 l 1,6,-1
 177 387 l 1,7,-1
 92 387 l 1,4,-1
EndSplineSet
EndChar

StartChar: less
Encoding: 60 60 31
Width: 563
GlyphClass: 2
Flags: W
LayerCount: 2
Fore
SplineSet
79 340 m 1,0,-1
 79 368 l 1,1,-1
 488 689 l 1,2,-1
 505 666 l 1,3,-1
 108 353 l 1,4,-1
 505 42 l 1,5,-1
 488 20 l 1,6,-1
 79 340 l 1,0,-1
EndSplineSet
EndChar

StartChar: equal
Encoding: 61 61 32
Width: 563
GlyphClass: 2
Flags: W
LayerCount: 2
Fore
SplineSet
58 257 m 1,0,-1
 58 283 l 1,1,-1
 507 283 l 1,2,-1
 507 257 l 1,3,-1
 58 257 l 1,0,-1
58 442 m 1,4,-1
 58 469 l 1,5,-1
 507 469 l 1,6,-1
 507 442 l 1,7,-1
 58 442 l 1,4,-1
EndSplineSet
Substitution2: "'sups' Superscript lookup 5 subtable" uni207C
Substitution2: "'aalt' Access All Alternates lookup 0 subtable" uni207C
EndChar

StartChar: greater
Encoding: 62 62 33
Width: 563
GlyphClass: 2
Flags: W
LayerCount: 2
Fore
SplineSet
77 20 m 1,0,-1
 60 42 l 1,1,-1
 455 353 l 1,2,-1
 60 666 l 1,3,-1
 77 689 l 1,4,-1
 485 368 l 1,5,-1
 485 340 l 1,6,-1
 77 20 l 1,0,-1
EndSplineSet
EndChar

StartChar: question
Encoding: 63 63 34
Width: 543
GlyphClass: 2
Flags: W
LayerCount: 2
Fore
SplineSet
74 614 m 1,0,1
 103 682 103 682 156 718.5 c 128,-1,2
 209 755 209 755 270 755 c 0,3,4
 359 755 359 755 408.5 703 c 128,-1,5
 458 651 458 651 458 565 c 0,6,7
 458 519 458 519 439 482 c 128,-1,8
 420 445 420 445 393 419 c 128,-1,9
 366 393 366 393 338.5 366.5 c 128,-1,10
 311 340 311 340 291.5 302 c 128,-1,11
 272 264 272 264 272 217 c 2,12,-1
 272 201 l 1,13,-1
 241 201 l 1,14,-1
 241 218 l 2,15,16
 241 269 241 269 260.5 309.5 c 128,-1,17
 280 350 280 350 307 376 c 128,-1,18
 334 402 334 402 361 427.5 c 128,-1,19
 388 453 388 453 407 487 c 128,-1,20
 426 521 426 521 426 563 c 0,21,22
 426 637 426 637 385 682.5 c 128,-1,23
 344 728 344 728 270 728 c 0,24,25
 160 728 160 728 101 603 c 1,26,-1
 74 614 l 1,0,1
213 -8 m 1,27,-1
 213 76 l 1,28,-1
 299 76 l 1,29,-1
 299 -8 l 1,30,-1
 213 -8 l 1,27,-1
EndSplineSet
EndChar

StartChar: at
Encoding: 64 64 35
Width: 971
GlyphClass: 2
Flags: W
LayerCount: 2
Fore
SplineSet
72 343 m 256,0,1
 72 525 72 525 193 641 c 128,-1,2
 314 757 314 757 510 757 c 0,3,4
 687 757 687 757 794.5 656.5 c 128,-1,5
 902 556 902 556 902 395 c 0,6,7
 902 259 902 259 852.5 191.5 c 128,-1,8
 803 124 803 124 730 124 c 0,9,10
 683 124 683 124 650.5 159.5 c 128,-1,11
 618 195 618 195 618 253 c 1,12,-1
 616 253 l 1,13,14
 599 205 599 205 553 165 c 128,-1,15
 507 125 507 125 444 125 c 0,16,17
 376 125 376 125 332 176.5 c 128,-1,18
 288 228 288 228 288 311 c 0,19,20
 288 422 288 422 349 488 c 128,-1,21
 410 554 410 554 492 554 c 0,22,23
 547 554 547 554 578.5 529 c 128,-1,24
 610 504 610 504 623 476 c 1,25,-1
 627 545 l 1,26,-1
 653 545 l 1,27,-1
 641 281 l 2,28,29
 641 276 641 276 641 272 c 0,30,31
 641 216 641 216 665 183.5 c 128,-1,32
 689 151 689 151 732 151 c 0,33,34
 796 151 796 151 834.5 215 c 128,-1,35
 873 279 873 279 873 392 c 0,36,37
 873 541 873 541 776 636 c 128,-1,38
 679 731 679 731 508 731 c 0,39,40
 333 731 333 731 217 624.5 c 128,-1,41
 101 518 101 518 101 343 c 256,42,43
 101 168 101 168 210.5 63.5 c 128,-1,44
 320 -41 320 -41 495 -41 c 0,45,46
 616 -41 616 -41 719 -9 c 1,47,-1
 726 -33 l 1,48,49
 618 -65 618 -65 495 -65 c 0,50,51
 305 -65 305 -65 188.5 48 c 128,-1,52
 72 161 72 161 72 343 c 256,0,1
317 310 m 0,53,54
 317 239 317 239 353.5 195.5 c 128,-1,55
 390 152 390 152 445 152 c 0,56,57
 471 152 471 152 497.5 163 c 128,-1,58
 524 174 524 174 552.5 199 c 128,-1,59
 581 224 581 224 598.5 274 c 128,-1,60
 616 324 616 324 616 394 c 0,61,62
 616 445 616 445 585.5 486.5 c 128,-1,63
 555 528 555 528 490 528 c 0,64,65
 424 528 424 528 370.5 470.5 c 128,-1,66
 317 413 317 413 317 310 c 0,53,54
EndSplineSet
EndChar

StartChar: A
Encoding: 65 65 36
Width: 621
GlyphClass: 2
Flags: W
LayerCount: 2
Fore
SplineSet
142 269 m 1,0,-1
 479 269 l 1,1,-1
 352 600 l 2,2,3
 345 620 345 620 331 655.5 c 128,-1,4
 317 691 317 691 312 706 c 1,5,-1
 310 706 l 1,6,7
 279 623 279 623 270 600 c 2,8,-1
 142 269 l 1,0,-1
3 0 m 1,9,-1
 290 735 l 1,10,-1
 332 735 l 1,11,-1
 619 0 l 1,12,-1
 582 0 l 1,13,-1
 490 243 l 1,14,-1
 132 243 l 1,15,-1
 38 0 l 1,16,-1
 3 0 l 1,9,-1
EndSplineSet
Substitution2: "Single Substitution lookup 12 subtable" ordfeminine
EndChar

StartChar: B
Encoding: 66 66 37
Width: 683
GlyphClass: 2
Flags: W
LayerCount: 2
Fore
SplineSet
128 0 m 1,0,-1
 128 735 l 1,1,-1
 386 735 l 2,2,3
 485 735 485 735 539 684 c 128,-1,4
 593 633 593 633 593 553 c 0,5,6
 593 484 593 484 556 441 c 128,-1,7
 519 398 519 398 465 384 c 1,8,9
 532 368 532 368 577.5 317 c 128,-1,10
 623 266 623 266 623 198 c 0,11,12
 623 110 623 110 564.5 55 c 128,-1,13
 506 0 506 0 415 0 c 2,14,-1
 128 0 l 1,0,-1
158 27 m 1,15,-1
 408 27 l 2,16,17
 489 27 489 27 540.5 75.5 c 128,-1,18
 592 124 592 124 592 195 c 0,19,20
 592 268 592 268 537 317.5 c 128,-1,21
 482 367 482 367 401 367 c 2,22,-1
 158 367 l 1,23,-1
 158 27 l 1,15,-1
158 393 m 1,24,-1
 375 393 l 2,25,26
 454 393 454 393 508 433.5 c 128,-1,27
 562 474 562 474 562 552 c 0,28,29
 562 618 562 618 517 663 c 128,-1,30
 472 708 472 708 383 708 c 2,31,-1
 158 708 l 1,32,-1
 158 393 l 1,24,-1
EndSplineSet
EndChar

StartChar: C
Encoding: 67 67 38
Width: 633
GlyphClass: 2
Flags: W
LayerCount: 2
Fore
SplineSet
64 368 m 0,0,1
 64 550 64 550 146.5 652.5 c 128,-1,2
 229 755 229 755 362 755 c 0,3,4
 444 755 444 755 498 710.5 c 128,-1,5
 552 666 552 666 575 611 c 1,6,-1
 548 599 l 1,7,8
 524 652 524 652 477 689.5 c 128,-1,9
 430 727 430 727 362 727 c 0,10,11
 241 727 241 727 169 629 c 128,-1,12
 97 531 97 531 97 368 c 0,13,14
 97 202 97 202 170.5 105 c 128,-1,15
 244 8 244 8 362 8 c 0,16,17
 436 8 436 8 487.5 46 c 128,-1,18
 539 84 539 84 567 143 c 1,19,-1
 595 133 l 1,20,21
 523 -19 523 -19 362 -19 c 0,22,23
 228 -19 228 -19 146 84.5 c 128,-1,24
 64 188 64 188 64 368 c 0,0,1
EndSplineSet
EndChar

StartChar: D
Encoding: 68 68 39
Width: 690
GlyphClass: 2
Flags: W
LayerCount: 2
Fore
SplineSet
128 0 m 1,0,-1
 128 735 l 1,1,-1
 309 735 l 2,2,3
 461 735 461 735 549.5 644 c 128,-1,4
 638 553 638 553 638 368 c 0,5,6
 638 185 638 185 550.5 92.5 c 128,-1,7
 463 0 463 0 310 0 c 2,8,-1
 128 0 l 1,0,-1
158 27 m 1,9,-1
 295 27 l 2,10,11
 440 27 440 27 523 108.5 c 128,-1,12
 606 190 606 190 606 368 c 0,13,14
 606 708 606 708 297 708 c 2,15,-1
 158 708 l 1,16,-1
 158 27 l 1,9,-1
EndSplineSet
EndChar

StartChar: E
Encoding: 69 69 40
Width: 622
GlyphClass: 2
Flags: W
LayerCount: 2
Fore
SplineSet
128 0 m 1,0,-1
 128 735 l 1,1,-1
 565 735 l 1,2,-1
 565 708 l 1,3,-1
 158 708 l 1,4,-1
 158 395 l 1,5,-1
 526 395 l 1,6,-1
 526 369 l 1,7,-1
 158 369 l 1,8,-1
 158 27 l 1,9,-1
 579 27 l 1,10,-1
 579 0 l 1,11,-1
 128 0 l 1,0,-1
EndSplineSet
EndChar

StartChar: F
Encoding: 70 70 41
Width: 594
GlyphClass: 2
Flags: W
LayerCount: 2
Fore
SplineSet
128 0 m 1,0,-1
 128 735 l 1,1,-1
 547 735 l 1,2,-1
 547 708 l 1,3,-1
 158 708 l 1,4,-1
 158 385 l 1,5,-1
 508 385 l 1,6,-1
 508 359 l 1,7,-1
 158 359 l 1,8,-1
 158 0 l 1,9,-1
 128 0 l 1,0,-1
EndSplineSet
EndChar

StartChar: G
Encoding: 71 71 42
Width: 718
GlyphClass: 2
Flags: W
LayerCount: 2
Fore
SplineSet
64 368 m 0,0,1
 64 543 64 543 144.5 649 c 128,-1,2
 225 755 225 755 371 755 c 0,3,4
 453 755 453 755 510 714 c 128,-1,5
 567 673 567 673 594 618 c 1,6,-1
 568 607 l 1,7,8
 503 727 503 727 371 727 c 0,9,10
 240 727 240 727 168.5 627.5 c 128,-1,11
 97 528 97 528 97 368 c 0,12,13
 97 204 97 204 169.5 106 c 128,-1,14
 242 8 242 8 370 8 c 0,15,16
 448 8 448 8 501.5 49 c 128,-1,17
 555 90 555 90 577 148.5 c 128,-1,18
 599 207 599 207 599 275 c 2,19,-1
 599 351 l 1,20,-1
 360 351 l 1,21,-1
 360 378 l 1,22,-1
 629 378 l 1,23,-1
 629 0 l 1,24,-1
 602 0 l 1,25,-1
 601 152 l 1,26,27
 580 79 580 79 523.5 30 c 128,-1,28
 467 -19 467 -19 369 -19 c 0,29,30
 225 -19 225 -19 144.5 86 c 128,-1,31
 64 191 64 191 64 368 c 0,0,1
EndSplineSet
EndChar

StartChar: H
Encoding: 72 72 43
Width: 753
GlyphClass: 2
Flags: W
LayerCount: 2
Fore
SplineSet
128 0 m 1,0,-1
 128 735 l 1,1,-1
 158 735 l 1,2,-1
 158 393 l 1,3,-1
 595 393 l 1,4,-1
 595 735 l 1,5,-1
 626 735 l 1,6,-1
 626 0 l 1,7,-1
 595 0 l 1,8,-1
 595 367 l 1,9,-1
 158 367 l 1,10,-1
 158 0 l 1,11,-1
 128 0 l 1,0,-1
EndSplineSet
EndChar

StartChar: I
Encoding: 73 73 44
Width: 286
GlyphClass: 2
Flags: W
LayerCount: 2
Fore
SplineSet
128 0 m 1,0,-1
 128 735 l 1,1,-1
 158 735 l 1,2,-1
 158 0 l 1,3,-1
 128 0 l 1,0,-1
EndSplineSet
EndChar

StartChar: J
Encoding: 74 74 45
Width: 490
GlyphClass: 2
Flags: W
LayerCount: 2
Fore
SplineSet
24 94 m 1,0,-1
 53 105 l 1,1,2
 73 58 73 58 108 33 c 128,-1,3
 143 8 143 8 180 8 c 0,4,5
 183 8 183 8 186 8 c 0,6,7
 332 12 332 12 332 207 c 2,8,-1
 332 735 l 1,9,-1
 363 735 l 1,10,-1
 363 196 l 2,11,12
 363 -19 363 -19 188 -19 c 0,13,14
 73 -19 73 -19 24 94 c 1,0,-1
EndSplineSet
EndChar

StartChar: K
Encoding: 75 75 46
Width: 633
GlyphClass: 2
Flags: W
LayerCount: 2
Fore
SplineSet
128 0 m 1,0,-1
 128 735 l 1,1,-1
 158 735 l 1,2,-1
 158 281 l 1,3,-1
 160 281 l 1,4,-1
 557 735 l 1,5,-1
 600 735 l 1,6,-1
 324 421 l 1,7,-1
 624 0 l 1,8,-1
 583 0 l 1,9,-1
 303 397 l 1,10,-1
 158 233 l 1,11,-1
 158 0 l 1,12,-1
 128 0 l 1,0,-1
EndSplineSet
EndChar

StartChar: L
Encoding: 76 76 47
Width: 539
GlyphClass: 2
Flags: W
LayerCount: 2
Fore
SplineSet
128 0 m 1,0,-1
 128 735 l 1,1,-1
 158 735 l 1,2,-1
 158 27 l 1,3,-1
 527 27 l 1,4,-1
 527 0 l 1,5,-1
 128 0 l 1,0,-1
EndSplineSet
EndChar

StartChar: M
Encoding: 77 77 48
Width: 902
GlyphClass: 2
Flags: W
LayerCount: 2
Fore
SplineSet
128 0 m 1,0,-1
 128 735 l 1,1,-1
 169 735 l 1,2,-1
 382 264 l 2,3,4
 396 233 396 233 418.5 179 c 128,-1,5
 441 125 441 125 450 105 c 1,6,-1
 452 105 l 1,7,8
 462 126 462 126 484.5 180.5 c 128,-1,9
 507 235 507 235 521 264 c 2,10,-1
 733 735 l 1,11,-1
 776 735 l 1,12,-1
 776 0 l 1,13,-1
 744 0 l 1,14,-1
 744 511 l 2,15,16
 744 571 744 571 749 693 c 1,17,-1
 746 693 l 1,18,-1
 468 68 l 1,19,-1
 436 68 l 1,20,-1
 157 694 l 1,21,-1
 155 694 l 1,22,23
 158 645 158 645 158 511 c 2,24,-1
 158 0 l 1,25,-1
 128 0 l 1,0,-1
EndSplineSet
EndChar

StartChar: N
Encoding: 78 78 49
Width: 762
GlyphClass: 2
Flags: W
LayerCount: 2
Fore
SplineSet
128 0 m 1,0,-1
 128 735 l 1,1,-1
 166 735 l 1,2,-1
 606 43 l 1,3,-1
 609 43 l 1,4,5
 604 117 604 117 604 217 c 2,6,-1
 604 735 l 1,7,-1
 636 735 l 1,8,-1
 636 0 l 1,9,-1
 597 0 l 1,10,-1
 157 692 l 1,11,-1
 155 692 l 1,12,13
 158 628 158 628 158 498 c 2,14,-1
 158 0 l 1,15,-1
 128 0 l 1,0,-1
EndSplineSet
EndChar

StartChar: O
Encoding: 79 79 50
Width: 702
GlyphClass: 2
Flags: W
LayerCount: 2
Fore
SplineSet
64 368 m 0,0,1
 64 543 64 543 141 649 c 128,-1,2
 218 755 218 755 351 755 c 256,3,4
 484 755 484 755 560.5 648.5 c 128,-1,5
 637 542 637 542 637 367 c 0,6,7
 637 193 637 193 560.5 87 c 128,-1,8
 484 -19 484 -19 351 -19 c 0,9,10
 217 -19 217 -19 140.5 87.5 c 128,-1,11
 64 194 64 194 64 368 c 0,0,1
97 368 m 0,12,13
 97 208 97 208 164 108 c 128,-1,14
 231 8 231 8 351 8 c 0,15,16
 470 8 470 8 538 107 c 128,-1,17
 606 206 606 206 606 367 c 0,18,19
 606 531 606 531 537 629 c 128,-1,20
 468 727 468 727 351 727 c 0,21,22
 235 727 235 727 166 629.5 c 128,-1,23
 97 532 97 532 97 368 c 0,12,13
EndSplineSet
Substitution2: "Single Substitution lookup 12 subtable" ordmasculine
EndChar

StartChar: P
Encoding: 80 80 51
Width: 667
GlyphClass: 2
Flags: W
LayerCount: 2
Fore
SplineSet
128 0 m 1,0,-1
 128 735 l 1,1,-1
 398 735 l 2,2,3
 495 735 495 735 555 679.5 c 128,-1,4
 615 624 615 624 615 530 c 256,5,6
 615 436 615 436 553.5 380.5 c 128,-1,7
 492 325 492 325 397 325 c 2,8,-1
 158 325 l 1,9,-1
 158 0 l 1,10,-1
 128 0 l 1,0,-1
158 350 m 1,11,-1
 387 350 l 2,12,13
 477 350 477 350 530 396.5 c 128,-1,14
 583 443 583 443 583 530 c 0,15,16
 583 614 583 614 530 661 c 128,-1,17
 477 708 477 708 385 708 c 2,18,-1
 158 708 l 1,19,-1
 158 350 l 1,11,-1
EndSplineSet
EndChar

StartChar: Q
Encoding: 81 81 52
Width: 701
GlyphClass: 2
Flags: W
LayerCount: 2
Fore
SplineSet
64 367 m 0,0,1
 64 543 64 543 141 649 c 128,-1,2
 218 755 218 755 351 755 c 0,3,4
 483 755 483 755 560 648.5 c 128,-1,5
 637 542 637 542 637 367 c 256,6,7
 637 192 637 192 560 87 c 0,8,9
 552 75 552 75 543 65 c 1,10,-1
 636 -33 l 1,11,-1
 613 -52 l 1,12,-1
 522 44 l 1,13,14
 453 -19 453 -19 351 -19 c 0,15,16
 218 -19 218 -19 141 86.5 c 128,-1,17
 64 192 64 192 64 367 c 0,0,1
352 221 m 1,18,-1
 375 242 l 1,19,-1
 523 87 l 1,20,21
 530 96 530 96 538 106 c 0,22,23
 606 204 606 204 606 367 c 0,24,25
 606 532 606 532 536.5 629.5 c 128,-1,26
 467 727 467 727 351 727 c 256,27,28
 235 727 235 727 166 629.5 c 128,-1,29
 97 532 97 532 97 367 c 0,30,31
 97 205 97 205 165 106.5 c 128,-1,32
 233 8 233 8 351 8 c 0,33,34
 441 8 441 8 502 64 c 1,35,-1
 352 221 l 1,18,-1
EndSplineSet
EndChar

StartChar: R
Encoding: 82 82 53
Width: 671
GlyphClass: 2
Flags: W
LayerCount: 2
Fore
SplineSet
158 368 m 1,0,-1
 400 368 l 2,1,2
 489 368 489 368 537 414.5 c 128,-1,3
 585 461 585 461 585 539 c 0,4,5
 585 611 585 611 536.5 659.5 c 128,-1,6
 488 708 488 708 391 708 c 2,7,-1
 158 708 l 1,8,-1
 158 368 l 1,0,-1
128 0 m 1,9,-1
 128 735 l 1,10,-1
 401 735 l 2,11,12
 504 735 504 735 560 679.5 c 128,-1,13
 616 624 616 624 616 540 c 0,14,15
 616 452 616 452 569 406 c 128,-1,16
 522 360 522 360 468 350 c 1,17,18
 551 319 551 319 580 198 c 0,19,20
 583 185 583 185 590 158.5 c 128,-1,21
 597 132 597 132 599 123.5 c 128,-1,22
 601 115 601 115 606 96.5 c 128,-1,23
 611 78 611 78 614.5 70 c 128,-1,24
 618 62 618 62 623 48 c 128,-1,25
 628 34 628 34 633 23 c 128,-1,26
 638 12 638 12 646 0 c 1,27,-1
 610 0 l 1,28,29
 582 54 582 54 548 196 c 0,30,31
 511 340 511 340 393 340 c 2,32,-1
 158 340 l 1,33,-1
 158 0 l 1,34,-1
 128 0 l 1,9,-1
EndSplineSet
EndChar

StartChar: S
Encoding: 83 83 54
Width: 615
GlyphClass: 2
Flags: W
LayerCount: 2
Fore
SplineSet
59 113 m 1,0,-1
 89 127 l 1,1,2
 123 74 123 74 182 41 c 128,-1,3
 241 8 241 8 313 8 c 0,4,5
 405 8 405 8 465 54.5 c 128,-1,6
 525 101 525 101 525 183 c 0,7,8
 525 215 525 215 512 241 c 128,-1,9
 499 267 499 267 482 284 c 128,-1,10
 465 301 465 301 432.5 318 c 128,-1,11
 400 335 400 335 376 343.5 c 128,-1,12
 352 352 352 352 312 366 c 0,13,14
 267 380 267 380 241 389.5 c 128,-1,15
 215 399 215 399 179 418 c 128,-1,16
 143 437 143 437 124 456 c 128,-1,17
 105 475 105 475 90.5 505 c 128,-1,18
 76 535 76 535 76 573 c 0,19,20
 76 657 76 657 138.5 706 c 128,-1,21
 201 755 201 755 310 755 c 0,22,23
 386 755 386 755 444 720.5 c 128,-1,24
 502 686 502 686 531 637 c 1,25,-1
 504 626 l 1,26,27
 474 672 474 672 422.5 699.5 c 128,-1,28
 371 727 371 727 307 727 c 0,29,30
 213 727 213 727 160 685.5 c 128,-1,31
 107 644 107 644 107 573 c 0,32,33
 107 542 107 542 120 516 c 128,-1,34
 133 490 133 490 151 472.5 c 128,-1,35
 169 455 169 455 202 438.5 c 128,-1,36
 235 422 235 422 259.5 413 c 128,-1,37
 284 404 284 404 325 391 c 0,38,39
 363 378 363 378 383.5 370.5 c 128,-1,40
 404 363 404 363 436 349 c 128,-1,41
 468 335 468 335 485.5 321 c 128,-1,42
 503 307 503 307 522 286.5 c 128,-1,43
 541 266 541 266 549 240.5 c 128,-1,44
 557 215 557 215 557 184 c 0,45,46
 557 88 557 88 492.5 34.5 c 128,-1,47
 428 -19 428 -19 311 -19 c 0,48,49
 227 -19 227 -19 163 17.5 c 128,-1,50
 99 54 99 54 59 113 c 1,0,-1
EndSplineSet
EndChar

StartChar: T
Encoding: 84 84 55
Width: 547
GlyphClass: 2
Flags: W
LayerCount: 2
Fore
SplineSet
22 708 m 1,0,-1
 22 735 l 1,1,-1
 526 735 l 1,2,-1
 526 708 l 1,3,-1
 290 708 l 1,4,-1
 290 0 l 1,5,-1
 259 0 l 1,6,-1
 259 708 l 1,7,-1
 22 708 l 1,0,-1
EndSplineSet
EndChar

StartChar: U
Encoding: 85 85 56
Width: 753
GlyphClass: 2
Flags: W
LayerCount: 2
Fore
SplineSet
128 251 m 2,0,-1
 128 735 l 1,1,-1
 158 735 l 1,2,-1
 158 256 l 2,3,4
 158 136 158 136 215.5 72 c 128,-1,5
 273 8 273 8 376 8 c 0,6,7
 480 8 480 8 538 72.5 c 128,-1,8
 596 137 596 137 596 256 c 2,9,-1
 596 735 l 1,10,-1
 627 735 l 1,11,-1
 627 251 l 2,12,13
 627 122 627 122 563 51.5 c 128,-1,14
 499 -19 499 -19 376 -19 c 0,15,16
 258 -19 258 -19 193 50.5 c 128,-1,17
 128 120 128 120 128 251 c 2,0,-1
EndSplineSet
EndChar

StartChar: V
Encoding: 86 86 57
Width: 558
GlyphClass: 2
Flags: W
LayerCount: 2
Fore
SplineSet
-3 735 m 1,0,-1
 33 735 l 1,1,-1
 225 184 l 2,2,3
 228 175 228 175 247 119.5 c 128,-1,4
 266 64 266 64 275 35 c 1,5,-1
 279 35 l 1,6,7
 286 57 286 57 295 82.5 c 128,-1,8
 304 108 304 108 314 137.5 c 128,-1,9
 324 167 324 167 331 184 c 2,10,-1
 527 735 l 1,11,-1
 563 735 l 1,12,-1
 295 0 l 1,13,-1
 259 0 l 1,14,-1
 -3 735 l 1,0,-1
EndSplineSet
EndChar

StartChar: W
Encoding: 87 87 58
Width: 841
GlyphClass: 2
Flags: W
LayerCount: 2
Fore
SplineSet
11 735 m 1,0,-1
 47 735 l 1,1,-1
 182 181 l 2,2,3
 200 106 200 106 215 35 c 1,4,-1
 217 35 l 1,5,6
 224 59 224 59 236 107.5 c 128,-1,7
 248 156 248 156 255 181 c 2,8,-1
 400 735 l 1,9,-1
 441 735 l 1,10,-1
 586 181 l 2,11,12
 593 157 593 157 605.5 108 c 128,-1,13
 618 59 618 59 624 35 c 1,14,-1
 627 35 l 1,15,16
 648 135 648 135 659 181 c 2,17,-1
 794 735 l 1,18,-1
 830 735 l 1,19,-1
 646 0 l 1,20,-1
 606 0 l 1,21,-1
 462 544 l 2,22,23
 440 622 440 622 422 700 c 1,24,-1
 420 700 l 1,25,26
 406 644 406 644 380 544 c 2,27,-1
 236 0 l 1,28,-1
 196 0 l 1,29,-1
 11 735 l 1,0,-1
EndSplineSet
EndChar

StartChar: X
Encoding: 88 88 59
Width: 521
GlyphClass: 2
Flags: W
LayerCount: 2
Fore
SplineSet
-4 0 m 1,0,-1
 238 378 l 1,1,-1
 8 735 l 1,2,-1
 47 735 l 1,3,-1
 194 503 l 2,4,5
 217 468 217 468 259 401 c 1,6,-1
 262 401 l 1,7,8
 267 410 267 410 291 446.5 c 128,-1,9
 315 483 315 483 327 503 c 2,10,-1
 474 735 l 1,11,-1
 514 735 l 1,12,-1
 283 378 l 1,13,-1
 527 0 l 1,14,-1
 489 0 l 1,15,-1
 329 250 l 2,16,17
 327 251 327 251 262 355 c 1,18,-1
 259 355 l 1,19,20
 252 343 252 343 229 306 c 128,-1,21
 206 269 206 269 193 250 c 2,22,-1
 34 0 l 1,23,-1
 -4 0 l 1,0,-1
EndSplineSet
EndChar

StartChar: Y
Encoding: 89 89 60
Width: 555
GlyphClass: 2
Flags: W
LayerCount: 2
Fore
SplineSet
-2 735 m 1,0,-1
 35 735 l 1,1,-1
 216 439 l 2,2,3
 221 429 221 429 243.5 391 c 128,-1,4
 266 353 266 353 278 335 c 1,5,-1
 280 335 l 1,6,7
 293 356 293 356 342 439 c 2,8,-1
 521 735 l 1,9,-1
 559 735 l 1,10,-1
 295 304 l 1,11,-1
 295 0 l 1,12,-1
 264 0 l 1,13,-1
 264 304 l 1,14,-1
 -2 735 l 1,0,-1
EndSplineSet
EndChar

StartChar: Z
Encoding: 90 90 61
Width: 626
GlyphClass: 2
Flags: W
LayerCount: 2
Fore
SplineSet
65 26 m 1,0,-1
 516 708 l 1,1,-1
 99 708 l 1,2,-1
 99 735 l 1,3,-1
 552 735 l 1,4,-1
 552 710 l 1,5,-1
 101 27 l 1,6,-1
 563 27 l 1,7,-1
 563 0 l 1,8,-1
 65 0 l 1,9,-1
 65 26 l 1,0,-1
EndSplineSet
EndChar

StartChar: bracketleft
Encoding: 91 91 62
Width: 473
GlyphClass: 2
Flags: W
LayerCount: 2
Fore
SplineSet
189 -137 m 1,0,-1
 189 839 l 1,1,-1
 358 839 l 1,2,-1
 358 813 l 1,3,-1
 219 813 l 1,4,-1
 219 -112 l 1,5,-1
 358 -112 l 1,6,-1
 358 -137 l 1,7,-1
 189 -137 l 1,0,-1
EndSplineSet
EndChar

StartChar: backslash
Encoding: 92 92 63
Width: 295
GlyphClass: 2
Flags: W
LayerCount: 2
Fore
SplineSet
-7 795 m 1,0,-1
 23 795 l 1,1,-1
 304 -68 l 1,2,-1
 273 -68 l 1,3,-1
 -7 795 l 1,0,-1
EndSplineSet
EndChar

StartChar: bracketright
Encoding: 93 93 64
Width: 473
GlyphClass: 2
Flags: W
LayerCount: 2
Fore
SplineSet
115 -112 m 1,0,-1
 254 -112 l 1,1,-1
 254 813 l 1,2,-1
 115 813 l 1,3,-1
 115 839 l 1,4,-1
 285 839 l 1,5,-1
 285 -137 l 1,6,-1
 115 -137 l 1,7,-1
 115 -112 l 1,0,-1
EndSplineSet
EndChar

StartChar: asciicircum
Encoding: 94 94 65
Width: 489
GlyphClass: 2
Flags: W
LayerCount: 2
Fore
SplineSet
36 505 m 1,0,-1
 229 820 l 1,1,-1
 261 820 l 1,2,-1
 453 505 l 1,3,-1
 418 505 l 1,4,-1
 245 791 l 1,5,-1
 244 791 l 1,6,-1
 209 735 l 1,7,-1
 72 505 l 1,8,-1
 36 505 l 1,0,-1
EndSplineSet
EndChar

StartChar: underscore
Encoding: 95 95 66
Width: 419
GlyphClass: 2
Flags: W
LayerCount: 2
Fore
SplineSet
9 -53 m 1,0,-1
 413 -53 l 1,1,-1
 413 -80 l 1,2,-1
 9 -80 l 1,3,-1
 9 -53 l 1,0,-1
EndSplineSet
EndChar

StartChar: grave
Encoding: 96 96 67
Width: 258
GlyphClass: 2
Flags: W
LayerCount: 2
Fore
SplineSet
159 560 m 1,0,-1
 45 836 l 1,1,-1
 102 836 l 1,2,-1
 187 560 l 1,3,-1
 159 560 l 1,0,-1
EndSplineSet
EndChar

StartChar: a
Encoding: 97 97 68
Width: 563
GlyphClass: 2
Flags: W
LayerCount: 2
Fore
SplineSet
84 120 m 0,0,1
 84 74 84 74 123 40 c 128,-1,2
 162 6 162 6 233 6 c 0,3,4
 318 6 318 6 380.5 61 c 128,-1,5
 443 116 443 116 443 203 c 2,6,-1
 443 307 l 1,7,8
 385 285 385 285 268 267 c 0,9,10
 170 252 170 252 127 215.5 c 128,-1,11
 84 179 84 179 84 120 c 0,0,1
53 117 m 0,12,13
 53 259 53 259 267 291 c 0,14,15
 398 312 398 312 443 333 c 1,16,-1
 443 360 l 2,17,18
 443 427 443 427 398 470 c 128,-1,19
 353 513 353 513 273 513 c 0,20,21
 224 513 224 513 178.5 490 c 128,-1,22
 133 467 133 467 102 425 c 1,23,-1
 80 439 l 1,24,25
 109 481 109 481 161 510 c 128,-1,26
 213 539 213 539 273 539 c 0,27,28
 371 539 371 539 422 488 c 128,-1,29
 473 437 473 437 473 357 c 2,30,-1
 473 0 l 1,31,-1
 444 0 l 1,32,-1
 444 113 l 1,33,34
 425 60 425 60 366 20.5 c 128,-1,35
 307 -19 307 -19 231 -19 c 0,36,37
 149 -19 149 -19 101 19 c 128,-1,38
 53 57 53 57 53 117 c 0,12,13
EndSplineSet
Substitution2: "Single Substitution lookup 12 subtable" ordfeminine
EndChar

StartChar: b
Encoding: 98 98 69
Width: 587
GlyphClass: 2
Flags: W
LayerCount: 2
Fore
SplineSet
104 0 m 1,0,-1
 104 767 l 1,1,-1
 135 767 l 1,2,-1
 135 384 l 1,3,4
 148 442 148 442 196.5 490.5 c 128,-1,5
 245 539 245 539 317 539 c 0,6,7
 414 539 414 539 471.5 464.5 c 128,-1,8
 529 390 529 390 529 261 c 0,9,10
 529 122 529 122 466.5 51.5 c 128,-1,11
 404 -19 404 -19 316 -19 c 0,12,13
 251 -19 251 -19 203.5 22.5 c 128,-1,14
 156 64 156 64 135 125 c 1,15,-1
 135 0 l 1,16,-1
 104 0 l 1,0,-1
133 261 m 0,17,18
 133 141 133 141 186 73.5 c 128,-1,19
 239 6 239 6 314 6 c 0,20,21
 397 6 397 6 449 75.5 c 128,-1,22
 501 145 501 145 501 261 c 0,23,24
 501 376 501 376 449 444.5 c 128,-1,25
 397 513 397 513 315 513 c 0,26,27
 241 513 241 513 187 445.5 c 128,-1,28
 133 378 133 378 133 261 c 0,17,18
EndSplineSet
EndChar

StartChar: c
Encoding: 99 99 70
Width: 502
GlyphClass: 2
Flags: W
LayerCount: 2
Fore
SplineSet
59 260 m 0,0,1
 59 380 59 380 118 459.5 c 128,-1,2
 177 539 177 539 281 539 c 0,3,4
 342 539 342 539 388.5 506.5 c 128,-1,5
 435 474 435 474 454 424 c 1,6,-1
 426 415 l 1,7,8
 408 458 408 458 369 485.5 c 128,-1,9
 330 513 330 513 281 513 c 0,10,11
 195 513 195 513 142 442 c 128,-1,12
 89 371 89 371 89 260 c 0,13,14
 89 147 89 147 143.5 76.5 c 128,-1,15
 198 6 198 6 281 6 c 0,16,17
 333 6 333 6 377 37 c 128,-1,18
 421 68 421 68 443 110 c 1,19,-1
 469 100 l 1,20,21
 445 50 445 50 394.5 15.5 c 128,-1,22
 344 -19 344 -19 281 -19 c 0,23,24
 183 -19 183 -19 121 56.5 c 128,-1,25
 59 132 59 132 59 260 c 0,0,1
EndSplineSet
EndChar

StartChar: d
Encoding: 100 100 71
Width: 587
GlyphClass: 2
Flags: W
LayerCount: 2
Fore
SplineSet
59 261 m 0,0,1
 59 391 59 391 118 465 c 128,-1,2
 177 539 177 539 272 539 c 0,3,4
 340 539 340 539 388.5 493.5 c 128,-1,5
 437 448 437 448 454 385 c 1,6,-1
 454 767 l 1,7,-1
 484 767 l 1,8,-1
 484 0 l 1,9,-1
 455 0 l 1,10,-1
 455 126 l 1,11,12
 435 63 435 63 387.5 22 c 128,-1,13
 340 -19 340 -19 271 -19 c 0,14,15
 185 -19 185 -19 122 51.5 c 128,-1,16
 59 122 59 122 59 261 c 0,0,1
89 261 m 0,17,18
 89 147 89 147 139 76.5 c 128,-1,19
 189 6 189 6 274 6 c 0,20,21
 350 6 350 6 402.5 73.5 c 128,-1,22
 455 141 455 141 455 261 c 0,23,24
 455 378 455 378 400.5 445.5 c 128,-1,25
 346 513 346 513 273 513 c 0,26,27
 191 513 191 513 140 444.5 c 128,-1,28
 89 376 89 376 89 261 c 0,17,18
EndSplineSet
EndChar

StartChar: e
Encoding: 101 101 72
Width: 558
GlyphClass: 2
Flags: W
LayerCount: 2
Fore
SplineSet
59 263 m 0,0,1
 59 383 59 383 119.5 461 c 128,-1,2
 180 539 180 539 283 539 c 256,3,4
 386 539 386 539 445 461.5 c 128,-1,5
 504 384 504 384 504 279 c 0,6,7
 504 274 504 274 503.5 265.5 c 128,-1,8
 503 257 503 257 503 252 c 1,9,-1
 89 252 l 1,10,11
 89 151 89 151 142 78.5 c 128,-1,12
 195 6 195 6 286 6 c 0,13,14
 344 6 344 6 391.5 37 c 128,-1,15
 439 68 439 68 464 111 c 1,16,-1
 490 100 l 1,17,18
 461 47 461 47 409.5 14 c 128,-1,19
 358 -19 358 -19 286 -19 c 0,20,21
 181 -19 181 -19 120 60.5 c 128,-1,22
 59 140 59 140 59 263 c 0,0,1
89 275 m 1,23,-1
 473 275 l 1,24,25
 473 372 473 372 421 442.5 c 128,-1,26
 369 513 369 513 283 513 c 0,27,28
 221 513 221 513 176.5 476 c 128,-1,29
 132 439 132 439 111.5 387 c 128,-1,30
 91 335 91 335 89 275 c 1,23,-1
EndSplineSet
EndChar

StartChar: f
Encoding: 102 102 73
Width: 326
GlyphClass: 2
Flags: W
LayerCount: 2
Fore
SplineSet
28 494 m 1,0,-1
 28 520 l 1,1,-1
 130 520 l 1,2,-1
 130 626 l 2,3,4
 130 699 130 699 166.5 733 c 128,-1,5
 203 767 203 767 265 767 c 2,6,-1
 310 767 l 1,7,-1
 310 741 l 1,8,-1
 267 741 l 2,9,10
 161 741 161 741 161 619 c 2,11,-1
 161 520 l 1,12,-1
 295 520 l 1,13,-1
 295 494 l 1,14,-1
 161 494 l 1,15,-1
 161 0 l 1,16,-1
 130 0 l 1,17,-1
 130 494 l 1,18,-1
 28 494 l 1,0,-1
EndSplineSet
EndChar

StartChar: g
Encoding: 103 103 74
Width: 580
GlyphClass: 2
Flags: W
LayerCount: 2
Fore
SplineSet
89 269 m 0,0,1
 89 160 89 160 139 92.5 c 128,-1,2
 189 25 189 25 268 25 c 0,3,4
 351 25 351 25 399 90.5 c 128,-1,5
 447 156 447 156 447 271 c 0,6,7
 447 379 447 379 397.5 446 c 128,-1,8
 348 513 348 513 270 513 c 0,9,10
 185 513 185 513 137 444.5 c 128,-1,11
 89 376 89 376 89 269 c 0,0,1
59 269 m 0,12,13
 59 389 59 389 115.5 464 c 128,-1,14
 172 539 172 539 268 539 c 0,15,16
 339 539 339 539 383 496 c 128,-1,17
 427 453 427 453 447 397 c 1,18,-1
 447 520 l 1,19,-1
 477 520 l 1,20,-1
 477 38 l 2,21,22
 477 -108 477 -108 430 -178 c 128,-1,23
 383 -248 383 -248 273 -248 c 0,24,25
 219 -248 219 -248 173 -225 c 128,-1,26
 127 -202 127 -202 98 -164 c 1,27,-1
 122 -149 l 1,28,29
 185 -222 185 -222 273 -222 c 0,30,31
 368 -222 368 -222 407.5 -158.5 c 128,-1,32
 447 -95 447 -95 447 33 c 2,33,-1
 447 136 l 1,34,35
 399 -2 399 -2 269 -2 c 0,36,37
 174 -2 174 -2 116.5 74 c 128,-1,38
 59 150 59 150 59 269 c 0,12,13
EndSplineSet
EndChar

StartChar: h
Encoding: 104 104 75
Width: 585
GlyphClass: 2
Flags: W
LayerCount: 2
Fore
SplineSet
104 0 m 1,0,-1
 104 767 l 1,1,-1
 135 767 l 1,2,-1
 135 410 l 1,3,-1
 136 410 l 1,4,5
 153 457 153 457 205.5 498 c 128,-1,6
 258 539 258 539 326 539 c 0,7,8
 408 539 408 539 449.5 487 c 128,-1,9
 491 435 491 435 491 338 c 2,10,-1
 491 0 l 1,11,-1
 462 0 l 1,12,-1
 462 329 l 2,13,14
 462 513 462 513 320 513 c 0,15,16
 248 513 248 513 191.5 455 c 128,-1,17
 135 397 135 397 135 320 c 2,18,-1
 135 0 l 1,19,-1
 104 0 l 1,0,-1
EndSplineSet
Substitution2: "'sups' Superscript lookup 5 subtable" uni02B0
Substitution2: "'aalt' Access All Alternates lookup 0 subtable" uni02B0
EndChar

StartChar: i
Encoding: 105 105 76
Width: 282
GlyphClass: 2
Flags: W
LayerCount: 2
Fore
SplineSet
106 670 m 1,0,-1
 106 746 l 1,1,-1
 176 746 l 1,2,-1
 176 670 l 1,3,-1
 106 670 l 1,0,-1
127 0 m 1,4,-1
 127 520 l 1,5,-1
 157 520 l 1,6,-1
 157 0 l 1,7,-1
 127 0 l 1,4,-1
EndSplineSet
EndChar

StartChar: j
Encoding: 106 106 77
Width: 285
GlyphClass: 2
Flags: W
LayerCount: 2
Fore
SplineSet
109 670 m 1,0,-1
 109 746 l 1,1,-1
 178 746 l 1,2,-1
 178 670 l 1,3,-1
 109 670 l 1,0,-1
-4 -212 m 1,4,-1
 24 -212 l 2,5,6
 130 -212 130 -212 130 -73 c 2,7,-1
 130 520 l 1,8,-1
 159 520 l 1,9,-1
 159 -77 l 2,10,11
 159 -156 159 -156 126 -197 c 128,-1,12
 93 -238 93 -238 30 -238 c 2,13,-1
 -4 -238 l 1,14,-1
 -4 -212 l 1,4,-1
EndSplineSet
Substitution2: "'sups' Superscript lookup 5 subtable" uni02B2
Substitution2: "'aalt' Access All Alternates lookup 0 subtable" uni02B2
EndChar

StartChar: k
Encoding: 107 107 78
Width: 494
GlyphClass: 2
Flags: W
LayerCount: 2
Fore
SplineSet
105 0 m 1,0,-1
 105 767 l 1,1,-1
 136 767 l 1,2,-1
 136 201 l 1,3,-1
 422 520 l 1,4,-1
 463 520 l 1,5,-1
 282 316 l 1,6,-1
 491 0 l 1,7,-1
 453 0 l 1,8,-1
 259 292 l 1,9,-1
 136 157 l 1,10,-1
 136 0 l 1,11,-1
 105 0 l 1,0,-1
EndSplineSet
EndChar

StartChar: l
Encoding: 108 108 79
Width: 245
GlyphClass: 2
Flags: W
LayerCount: 2
Fore
SplineSet
107 0 m 1,0,-1
 107 767 l 1,1,-1
 138 767 l 1,2,-1
 138 0 l 1,3,-1
 107 0 l 1,0,-1
EndSplineSet
Substitution2: "'sups' Superscript lookup 5 subtable" uni02E1
Substitution2: "'aalt' Access All Alternates lookup 0 subtable" uni02E1
EndChar

StartChar: m
Encoding: 109 109 80
Width: 861
GlyphClass: 2
Flags: W
LayerCount: 2
Fore
SplineSet
100 0 m 1,0,-1
 100 520 l 1,1,-1
 129 520 l 1,2,-1
 129 420 l 1,3,-1
 131 420 l 1,4,5
 147 466 147 466 189 502.5 c 128,-1,6
 231 539 231 539 298 539 c 0,7,8
 366 539 366 539 399 497 c 128,-1,9
 432 455 432 455 441 397 c 1,10,11
 442 410 442 410 452.5 430.5 c 128,-1,12
 463 451 463 451 483 476.5 c 128,-1,13
 503 502 503 502 541 520.5 c 128,-1,14
 579 539 579 539 625 539 c 0,15,16
 699 539 699 539 733 489.5 c 128,-1,17
 767 440 767 440 767 338 c 2,18,-1
 767 0 l 1,19,-1
 737 0 l 1,20,-1
 737 331 l 2,21,22
 737 420 737 420 712 466.5 c 128,-1,23
 687 513 687 513 616 513 c 0,24,25
 548 513 548 513 499 457.5 c 128,-1,26
 450 402 450 402 450 313 c 2,27,-1
 450 0 l 1,28,-1
 419 0 l 1,29,-1
 419 330 l 2,30,31
 419 513 419 513 294 513 c 0,32,33
 222 513 222 513 176 458.5 c 128,-1,34
 130 404 130 404 130 320 c 2,35,-1
 130 0 l 1,36,-1
 100 0 l 1,0,-1
EndSplineSet
EndChar

StartChar: n
Encoding: 110 110 81
Width: 580
GlyphClass: 2
Flags: W
LayerCount: 2
Fore
SplineSet
100 0 m 1,0,-1
 100 520 l 1,1,-1
 129 520 l 1,2,-1
 129 402 l 1,3,-1
 131 402 l 1,4,5
 139 445 139 445 192 492 c 128,-1,6
 245 539 245 539 321 539 c 0,7,8
 351 539 351 539 376.5 531 c 128,-1,9
 402 523 402 523 428.5 502.5 c 128,-1,10
 455 482 455 482 471 440 c 128,-1,11
 487 398 487 398 487 338 c 2,12,-1
 487 0 l 1,13,-1
 455 0 l 1,14,-1
 455 329 l 2,15,16
 455 513 455 513 316 513 c 0,17,18
 244 513 244 513 187 455 c 128,-1,19
 130 397 130 397 130 320 c 2,20,-1
 130 0 l 1,21,-1
 100 0 l 1,0,-1
EndSplineSet
Substitution2: "'sups' Superscript lookup 5 subtable" uni207F
Substitution2: "'aalt' Access All Alternates lookup 0 subtable" uni207F
EndChar

StartChar: o
Encoding: 111 111 82
Width: 566
GlyphClass: 2
Flags: W
LayerCount: 2
Fore
SplineSet
89 260 m 0,0,1
 89 150 89 150 141.5 78 c 128,-1,2
 194 6 194 6 283 6 c 0,3,4
 370 6 370 6 423.5 78.5 c 128,-1,5
 477 151 477 151 477 260 c 0,6,7
 477 371 477 371 422.5 442 c 128,-1,8
 368 513 368 513 283 513 c 256,9,10
 198 513 198 513 143.5 442.5 c 128,-1,11
 89 372 89 372 89 260 c 0,0,1
59 260 m 0,12,13
 59 382 59 382 119 460.5 c 128,-1,14
 179 539 179 539 283 539 c 0,15,16
 385 539 385 539 446.5 460.5 c 128,-1,17
 508 382 508 382 508 260 c 0,18,19
 508 143 508 143 448.5 62 c 128,-1,20
 389 -19 389 -19 283 -19 c 0,21,22
 176 -19 176 -19 117.5 62 c 128,-1,23
 59 143 59 143 59 260 c 0,12,13
EndSplineSet
Substitution2: "Single Substitution lookup 12 subtable" ordmasculine
EndChar

StartChar: p
Encoding: 112 112 83
Width: 587
GlyphClass: 2
Flags: W
LayerCount: 2
Fore
SplineSet
134 262 m 0,0,1
 134 148 134 148 184.5 77 c 128,-1,2
 235 6 235 6 315 6 c 256,3,4
 395 6 395 6 448 74.5 c 128,-1,5
 501 143 501 143 501 261 c 0,6,7
 501 371 501 371 452 442 c 128,-1,8
 403 513 403 513 315 513 c 0,9,10
 238 513 238 513 186 442 c 128,-1,11
 134 371 134 371 134 262 c 0,0,1
104 -244 m 1,12,-1
 104 520 l 1,13,-1
 135 520 l 1,14,-1
 135 388 l 1,15,16
 157 457 157 457 205.5 498 c 128,-1,17
 254 539 254 539 317 539 c 0,18,19
 414 539 414 539 471.5 463.5 c 128,-1,20
 529 388 529 388 529 261 c 0,21,22
 529 128 529 128 469 54.5 c 128,-1,23
 409 -19 409 -19 316 -19 c 0,24,25
 250 -19 250 -19 203.5 22 c 128,-1,26
 157 63 157 63 135 129 c 1,27,-1
 135 -244 l 1,28,-1
 104 -244 l 1,12,-1
EndSplineSet
EndChar

StartChar: q
Encoding: 113 113 84
Width: 587
GlyphClass: 2
Flags: W
LayerCount: 2
Fore
SplineSet
89 261 m 0,0,1
 89 145 89 145 140.5 75.5 c 128,-1,2
 192 6 192 6 273 6 c 0,3,4
 355 6 355 6 404.5 78 c 128,-1,5
 454 150 454 150 454 262 c 0,6,7
 454 372 454 372 402 442.5 c 128,-1,8
 350 513 350 513 273 513 c 0,9,10
 186 513 186 513 137.5 441.5 c 128,-1,11
 89 370 89 370 89 261 c 0,0,1
59 261 m 0,12,13
 59 388 59 388 117 463.5 c 128,-1,14
 175 539 175 539 271 539 c 0,15,16
 333 539 333 539 382.5 499.5 c 128,-1,17
 432 460 432 460 455 390 c 1,18,-1
 455 520 l 1,19,-1
 484 520 l 1,20,-1
 484 -244 l 1,21,-1
 454 -244 l 1,22,-1
 454 130 l 1,23,24
 431 64 431 64 385 22.5 c 128,-1,25
 339 -19 339 -19 272 -19 c 0,26,27
 179 -19 179 -19 119 54.5 c 128,-1,28
 59 128 59 128 59 261 c 0,12,13
EndSplineSet
EndChar

StartChar: r
Encoding: 114 114 85
Width: 371
GlyphClass: 2
Flags: W
LayerCount: 2
Fore
SplineSet
100 0 m 1,0,-1
 100 520 l 1,1,-1
 129 520 l 1,2,-1
 129 422 l 1,3,4
 142 465 142 465 182 502 c 128,-1,5
 222 539 222 539 291 539 c 0,6,7
 334 539 334 539 371 522 c 1,8,-1
 371 494 l 1,9,10
 332 511 332 511 291 511 c 0,11,12
 218 511 218 511 174 455.5 c 128,-1,13
 130 400 130 400 130 316 c 2,14,-1
 130 0 l 1,15,-1
 100 0 l 1,0,-1
EndSplineSet
Substitution2: "'sups' Superscript lookup 5 subtable" uni02B3
Substitution2: "'aalt' Access All Alternates lookup 0 subtable" uni02B3
EndChar

StartChar: s
Encoding: 115 115 86
Width: 488
GlyphClass: 2
Flags: W
LayerCount: 2
Fore
SplineSet
51 85 m 1,0,-1
 75 99 l 1,1,2
 102 56 102 56 146.5 31 c 128,-1,3
 191 6 191 6 246 6 c 0,4,5
 318 6 318 6 362 38 c 128,-1,6
 406 70 406 70 406 120 c 0,7,8
 406 143 406 143 395 162.5 c 128,-1,9
 384 182 384 182 371.5 193 c 128,-1,10
 359 204 359 204 328 217 c 128,-1,11
 297 230 297 230 282.5 234.5 c 128,-1,12
 268 239 268 239 229 252 c 0,13,14
 191 263 191 263 167 272.5 c 128,-1,15
 143 282 143 282 116 299 c 128,-1,16
 89 316 89 316 75.5 342 c 128,-1,17
 62 368 62 368 62 401 c 0,18,19
 62 466 62 466 114.5 502.5 c 128,-1,20
 167 539 167 539 246 539 c 0,21,22
 306 539 306 539 353 509.5 c 128,-1,23
 400 480 400 480 423 438 c 1,24,-1
 400 424 l 1,25,26
 377 464 377 464 337 488.5 c 128,-1,27
 297 513 297 513 246 513 c 0,28,29
 178 513 178 513 135.5 481.5 c 128,-1,30
 93 450 93 450 93 401 c 0,31,32
 93 349 93 349 133 320.5 c 128,-1,33
 173 292 173 292 241 273 c 0,34,35
 273 264 273 264 295.5 257.5 c 128,-1,36
 318 251 318 251 347 236.5 c 128,-1,37
 376 222 376 222 394 207.5 c 128,-1,38
 412 193 412 193 424.5 170 c 128,-1,39
 437 147 437 147 437 120 c 0,40,41
 437 61 437 61 388 21 c 128,-1,42
 339 -19 339 -19 246 -19 c 0,43,44
 114 -19 114 -19 51 85 c 1,0,-1
EndSplineSet
Substitution2: "'hist' Historical Forms lookup 11 subtable" longs
Substitution2: "'sups' Superscript lookup 5 subtable" uni02E2
AlternateSubs2: "'aalt' Access All Alternates lookup 1 subtable" uni02E2 longs
EndChar

StartChar: t
Encoding: 116 116 87
Width: 356
GlyphClass: 2
Flags: W
LayerCount: 2
Fore
SplineSet
30 494 m 1,0,-1
 30 520 l 1,1,-1
 133 520 l 1,2,-1
 133 701 l 1,3,-1
 165 701 l 1,4,-1
 165 520 l 1,5,-1
 307 520 l 1,6,-1
 307 494 l 1,7,-1
 165 494 l 1,8,-1
 165 137 l 2,9,10
 165 78 165 78 187.5 52 c 128,-1,11
 210 26 210 26 259 26 c 0,12,13
 261 26 261 26 263 26 c 2,14,-1
 307 27 l 1,15,-1
 307 0 l 1,16,-1
 259 0 l 2,17,18
 255 0 255 0 252 0 c 0,19,20
 196 0 196 0 164.5 31.5 c 128,-1,21
 133 63 133 63 133 131 c 2,22,-1
 133 494 l 1,23,-1
 30 494 l 1,0,-1
EndSplineSet
EndChar

StartChar: u
Encoding: 117 117 88
Width: 577
GlyphClass: 2
Flags: W
LayerCount: 2
Fore
SplineSet
95 177 m 2,0,-1
 95 520 l 1,1,-1
 125 520 l 1,2,-1
 125 191 l 2,3,4
 125 111 125 111 157.5 58.5 c 128,-1,5
 190 6 190 6 268 6 c 0,6,7
 356 6 356 6 402 69 c 128,-1,8
 448 132 448 132 448 219 c 2,9,-1
 448 520 l 1,10,-1
 477 520 l 1,11,-1
 477 0 l 1,12,-1
 448 0 l 1,13,-1
 448 113 l 1,14,15
 439 65 439 65 391 23 c 128,-1,16
 343 -19 343 -19 261 -19 c 256,17,18
 179 -19 179 -19 137 35 c 128,-1,19
 95 89 95 89 95 177 c 2,0,-1
EndSplineSet
EndChar

StartChar: v
Encoding: 118 118 89
Width: 476
GlyphClass: 2
Flags: W
LayerCount: 2
Fore
SplineSet
17 520 m 1,0,-1
 50 520 l 1,1,-1
 196 140 l 2,2,3
 205 117 205 117 220 77.5 c 128,-1,4
 235 38 235 38 239 26 c 1,5,-1
 241 26 l 1,6,7
 251 50 251 50 284 140 c 2,8,-1
 426 520 l 1,9,-1
 462 520 l 1,10,-1
 259 0 l 1,11,-1
 219 0 l 1,12,-1
 17 520 l 1,0,-1
EndSplineSet
EndChar

StartChar: w
Encoding: 119 119 90
Width: 693
GlyphClass: 2
Flags: W
LayerCount: 2
Fore
SplineSet
14 520 m 1,0,-1
 49 520 l 1,1,-1
 159 130 l 2,2,3
 164 112 164 112 185 27 c 1,4,-1
 188 27 l 1,5,6
 192 46 192 46 202 81 c 128,-1,7
 212 116 212 116 216 130 c 2,8,-1
 327 520 l 1,9,-1
 367 520 l 1,10,-1
 479 130 l 2,11,12
 506 36 506 36 508 28 c 1,13,-1
 509 28 l 1,14,15
 513 42 513 42 523 76 c 128,-1,16
 533 110 533 110 537 130 c 2,17,-1
 647 520 l 1,18,-1
 682 520 l 1,19,-1
 529 0 l 1,20,-1
 489 0 l 1,21,-1
 378 377 l 2,22,23
 367 415 367 415 348 488 c 1,24,-1
 345 488 l 1,25,26
 323 401 323 401 316 377 c 2,27,-1
 207 0 l 1,28,-1
 165 0 l 1,29,-1
 14 520 l 1,0,-1
EndSplineSet
Substitution2: "'sups' Superscript lookup 5 subtable" uni02B7
Substitution2: "'aalt' Access All Alternates lookup 0 subtable" uni02B7
EndChar

StartChar: x
Encoding: 120 120 91
Width: 428
GlyphClass: 2
Flags: W
LayerCount: 2
Fore
SplineSet
6 0 m 1,0,-1
 194 271 l 1,1,-1
 18 520 l 1,2,-1
 54 520 l 1,3,-1
 167 361 l 2,4,5
 192 325 192 325 214 294 c 1,6,-1
 215 294 l 1,7,8
 221 304 221 304 237.5 326 c 128,-1,9
 254 348 254 348 261 361 c 2,10,-1
 372 520 l 1,11,-1
 411 520 l 1,12,-1
 234 270 l 1,13,-1
 423 0 l 1,14,-1
 385 0 l 1,15,-1
 260 182 l 2,16,17
 258 185 258 185 240 210.5 c 128,-1,18
 222 236 222 236 215 248 c 1,19,-1
 214 248 l 1,20,21
 207 238 207 238 191.5 216 c 128,-1,22
 176 194 176 194 167 182 c 2,23,-1
 44 0 l 1,24,-1
 6 0 l 1,0,-1
EndSplineSet
Substitution2: "'sups' Superscript lookup 5 subtable" uni02E3
Substitution2: "'aalt' Access All Alternates lookup 0 subtable" uni02E3
EndChar

StartChar: y
Encoding: 121 121 92
Width: 466
GlyphClass: 2
Flags: W
LayerCount: 2
Fore
SplineSet
14 520 m 1,0,-1
 49 520 l 1,1,-1
 187 140 l 2,2,3
 195 119 195 119 210 76 c 128,-1,4
 225 33 225 33 233 11 c 1,5,-1
 235 11 l 1,6,7
 271 107 271 107 283 143 c 2,8,-1
 416 520 l 1,9,-1
 451 520 l 1,10,-1
 221 -108 l 2,11,12
 194 -182 194 -182 162 -213 c 128,-1,13
 130 -244 130 -244 88 -244 c 2,14,-1
 65 -244 l 1,15,-1
 65 -217 l 1,16,-1
 84 -217 l 2,17,18
 155 -217 155 -217 194 -99 c 2,19,-1
 218 -28 l 1,20,-1
 14 520 l 1,0,-1
EndSplineSet
Substitution2: "'sups' Superscript lookup 5 subtable" uni02B8
Substitution2: "'aalt' Access All Alternates lookup 0 subtable" uni02B8
EndChar

StartChar: z
Encoding: 122 122 93
Width: 474
GlyphClass: 2
Flags: W
LayerCount: 2
Fore
SplineSet
45 0 m 1,0,-1
 45 23 l 1,1,-1
 383 494 l 1,2,-1
 71 494 l 1,3,-1
 71 520 l 1,4,-1
 419 520 l 1,5,-1
 419 497 l 1,6,-1
 82 26 l 1,7,-1
 431 26 l 1,8,-1
 431 0 l 1,9,-1
 45 0 l 1,0,-1
EndSplineSet
EndChar

StartChar: braceleft
Encoding: 123 123 94
Width: 473
GlyphClass: 2
Flags: W
LayerCount: 2
Fore
SplineSet
91 332 m 1,0,-1
 91 357 l 1,1,-1
 115 357 l 2,2,3
 210 357 210 357 210 521 c 2,4,-1
 210 725 l 2,5,6
 210 779 210 779 238.5 809 c 128,-1,7
 267 839 267 839 306 839 c 2,8,-1
 376 839 l 1,9,-1
 376 813 l 1,10,-1
 313 813 l 2,11,12
 283 813 283 813 262 788 c 128,-1,13
 241 763 241 763 241 716 c 2,14,-1
 241 514 l 2,15,16
 241 385 241 385 165 343 c 1,17,18
 200 330 200 330 220.5 288 c 128,-1,19
 241 246 241 246 241 182 c 2,20,-1
 241 -5 l 2,21,22
 241 -58 241 -58 261.5 -84.5 c 128,-1,23
 282 -111 282 -111 315 -111 c 2,24,-1
 376 -111 l 1,25,-1
 376 -136 l 1,26,-1
 307 -136 l 2,27,28
 269 -136 269 -136 239.5 -107.5 c 128,-1,29
 210 -79 210 -79 210 -22 c 2,30,-1
 210 169 l 2,31,32
 210 250 210 250 185 291 c 128,-1,33
 160 332 160 332 115 332 c 2,34,-1
 91 332 l 1,0,-1
EndSplineSet
EndChar

StartChar: bar
Encoding: 124 124 95
Width: 236
GlyphClass: 2
Flags: W
LayerCount: 2
Fore
SplineSet
103 -168 m 1,0,-1
 103 867 l 1,1,-1
 134 867 l 1,2,-1
 134 -168 l 1,3,-1
 103 -168 l 1,0,-1
EndSplineSet
EndChar

StartChar: braceright
Encoding: 125 125 96
Width: 473
GlyphClass: 2
Flags: W
LayerCount: 2
Fore
SplineSet
97 -111 m 1,0,-1
 158 -111 l 2,1,2
 191 -111 191 -111 212 -84.5 c 128,-1,3
 233 -58 233 -58 233 -5 c 2,4,-1
 233 187 l 2,5,6
 233 247 233 247 253.5 289 c 128,-1,7
 274 331 274 331 308 343 c 1,8,9
 233 384 233 384 233 509 c 2,10,-1
 233 716 l 2,11,12
 233 763 233 763 212 788 c 128,-1,13
 191 813 191 813 160 813 c 2,14,-1
 97 813 l 1,15,-1
 97 839 l 1,16,-1
 167 839 l 2,17,18
 207 839 207 839 235 809.5 c 128,-1,19
 263 780 263 780 263 725 c 2,20,-1
 263 521 l 2,21,22
 263 442 263 442 287 399.5 c 128,-1,23
 311 357 311 357 358 357 c 2,24,-1
 382 357 l 1,25,-1
 382 332 l 1,26,-1
 358 332 l 2,27,28
 312 332 312 332 287.5 289 c 128,-1,29
 263 246 263 246 263 176 c 2,30,-1
 263 -22 l 2,31,32
 263 -79 263 -79 234 -107.5 c 128,-1,33
 205 -136 205 -136 165 -136 c 2,34,-1
 97 -136 l 1,35,-1
 97 -111 l 1,0,-1
EndSplineSet
EndChar

StartChar: asciitilde
Encoding: 126 126 97
Width: 737
GlyphClass: 2
Flags: W
LayerCount: 2
Fore
SplineSet
81 317 m 1,0,1
 143 431 143 431 245 431 c 0,2,3
 281 431 281 431 309.5 417 c 128,-1,4
 338 403 338 403 357.5 383.5 c 128,-1,5
 377 364 377 364 396 344 c 128,-1,6
 415 324 415 324 440 310 c 128,-1,7
 465 296 465 296 495 296 c 0,8,9
 521 296 521 296 543 305.5 c 128,-1,10
 565 315 565 315 583 335 c 128,-1,11
 601 355 601 355 610.5 367 c 128,-1,12
 620 379 620 379 634 404 c 1,13,-1
 658 391 l 1,14,15
 627 338 627 338 589 304 c 128,-1,16
 551 270 551 270 495 270 c 0,17,18
 460 270 460 270 431 284 c 128,-1,19
 402 298 402 298 383 318 c 128,-1,20
 364 338 364 338 345 357.5 c 128,-1,21
 326 377 326 377 300.5 391 c 128,-1,22
 275 405 275 405 244 405 c 0,23,24
 165 405 165 405 105 304 c 1,25,-1
 81 317 l 1,0,1
EndSplineSet
EndChar

StartChar: exclamdown
Encoding: 161 161 99
Width: 317
GlyphClass: 2
Flags: W
LayerCount: 2
Fore
SplineSet
138 -219 m 1,0,-1
 146 306 l 1,1,-1
 173 306 l 1,2,-1
 179 -219 l 1,3,-1
 138 -219 l 1,0,-1
115 440 m 1,4,-1
 115 524 l 1,5,-1
 201 524 l 1,6,-1
 201 440 l 1,7,-1
 115 440 l 1,4,-1
EndSplineSet
EndChar

StartChar: cent
Encoding: 162 162 100
Width: 501
GlyphClass: 2
Flags: W
LayerCount: 2
Fore
SplineSet
59 260 m 0,0,1
 59 377 59 377 115.5 456 c 128,-1,2
 172 535 172 535 272 537 c 1,3,-1
 272 618 l 1,4,-1
 304 618 l 1,5,-1
 304 536 l 1,6,7
 358 530 358 530 397.5 499.5 c 128,-1,8
 437 469 437 469 454 424 c 1,9,-1
 427 415 l 1,10,11
 409 457 409 457 369.5 485 c 128,-1,12
 330 513 330 513 281 513 c 0,13,14
 194 513 194 513 141.5 442 c 128,-1,15
 89 371 89 371 89 260 c 0,16,17
 89 147 89 147 142.5 76.5 c 128,-1,18
 196 6 196 6 281 6 c 0,19,20
 333 6 333 6 376.5 37 c 128,-1,21
 420 68 420 68 442 110 c 1,22,-1
 468 100 l 1,23,24
 444 54 444 54 402 21.5 c 128,-1,25
 360 -11 360 -11 304 -18 c 1,26,-1
 304 -100 l 1,27,-1
 272 -100 l 1,28,-1
 272 -19 l 1,29,30
 178 -17 178 -17 118.5 58.5 c 128,-1,31
 59 134 59 134 59 260 c 0,0,1
EndSplineSet
EndChar

StartChar: sterling
Encoding: 163 163 101
Width: 555
GlyphClass: 2
Flags: W
LayerCount: 2
Fore
SplineSet
38 351 m 1,0,-1
 38 378 l 1,1,-1
 156 378 l 1,2,-1
 156 570 l 2,3,4
 156 661 156 661 204.5 708 c 128,-1,5
 253 755 253 755 336 755 c 0,6,7
 393 755 393 755 435.5 727.5 c 128,-1,8
 478 700 478 700 499 660 c 1,9,-1
 477 648 l 1,10,11
 430 728 430 728 338 728 c 0,12,13
 267 728 267 728 226.5 688 c 128,-1,14
 186 648 186 648 186 568 c 2,15,-1
 186 378 l 1,16,-1
 430 378 l 1,17,-1
 430 351 l 1,18,-1
 186 351 l 1,19,-1
 186 201 l 2,20,21
 186 80 186 80 110 22 c 1,22,23
 190 41 190 41 239 41 c 0,24,25
 274 41 274 41 322 24.5 c 128,-1,26
 370 8 370 8 400 8 c 0,27,28
 478 8 478 8 532 38 c 1,29,-1
 543 12 l 1,30,31
 483 -19 483 -19 399 -19 c 0,32,33
 370 -19 370 -19 318.5 -2.5 c 128,-1,34
 267 14 267 14 234 14 c 256,35,36
 201 14 201 14 156 7 c 128,-1,37
 111 0 111 0 83 -7 c 2,38,-1
 55 -15 l 1,39,-1
 44 11 l 1,40,41
 100 32 100 32 128 86 c 128,-1,42
 156 140 156 140 156 201 c 2,43,-1
 156 351 l 1,44,-1
 38 351 l 1,0,-1
EndSplineSet
EndChar

StartChar: currency
Encoding: 164 164 102
Width: 625
GlyphClass: 2
Flags: W
LayerCount: 2
Fore
SplineSet
41 133 m 1,0,-1
 151 237 l 1,1,2
 102 289 102 289 102 367 c 256,3,4
 102 445 102 445 150 498 c 1,5,-1
 41 599 l 1,6,-1
 61 620 l 1,7,-1
 170 520 l 1,8,9
 230 570 230 570 314 570 c 256,10,11
 398 570 398 570 458 518 c 1,12,-1
 566 619 l 1,13,-1
 586 598 l 1,14,-1
 477 498 l 1,15,16
 527 442 527 442 527 367 c 0,17,18
 527 294 527 294 477 237 c 1,19,-1
 586 133 l 1,20,-1
 567 114 l 1,21,-1
 458 215 l 1,22,23
 402 164 402 164 314 164 c 0,24,25
 229 164 229 164 169 215 c 1,26,-1
 61 115 l 1,27,-1
 41 133 l 1,0,-1
132 367 m 0,28,29
 132 294 132 294 183.5 242.5 c 128,-1,30
 235 191 235 191 314 191 c 0,31,32
 392 191 392 191 444.5 242.5 c 128,-1,33
 497 294 497 294 497 367 c 0,34,35
 497 441 497 441 444.5 492.5 c 128,-1,36
 392 544 392 544 314 544 c 0,37,38
 237 544 237 544 184.5 492.5 c 128,-1,39
 132 441 132 441 132 367 c 0,28,29
EndSplineSet
EndChar

StartChar: yen
Encoding: 165 165 103
Width: 555
GlyphClass: 2
Flags: W
LayerCount: 2
Fore
SplineSet
-2 735 m 1,0,-1
 35 735 l 1,1,-1
 213 456 l 2,2,3
 220 444 220 444 244.5 406.5 c 128,-1,4
 269 369 269 369 278 355 c 1,5,-1
 280 355 l 1,6,7
 289 369 289 369 311 404 c 128,-1,8
 333 439 333 439 342 453 c 2,9,-1
 521 735 l 1,10,-1
 559 735 l 1,11,-1
 315 353 l 1,12,-1
 497 353 l 1,13,-1
 497 329 l 1,14,-1
 294 329 l 1,15,-1
 294 221 l 1,16,-1
 497 221 l 1,17,-1
 497 196 l 1,18,-1
 294 196 l 1,19,-1
 294 0 l 1,20,-1
 264 0 l 1,21,-1
 264 196 l 1,22,-1
 57 196 l 1,23,-1
 57 221 l 1,24,-1
 264 221 l 1,25,-1
 264 329 l 1,26,-1
 57 329 l 1,27,-1
 57 353 l 1,28,-1
 243 353 l 1,29,-1
 -2 735 l 1,0,-1
EndSplineSet
EndChar

StartChar: brokenbar
Encoding: 166 166 104
Width: 236
GlyphClass: 2
Flags: W
LayerCount: 2
Fore
SplineSet
103 471 m 1,0,-1
 103 867 l 1,1,-1
 134 867 l 1,2,-1
 134 471 l 1,3,-1
 103 471 l 1,0,-1
103 -168 m 1,4,-1
 103 225 l 1,5,-1
 134 225 l 1,6,-1
 134 -168 l 1,7,-1
 103 -168 l 1,4,-1
EndSplineSet
EndChar

StartChar: section
Encoding: 167 167 105
Width: 577
GlyphClass: 2
Flags: W
LayerCount: 2
Fore
SplineSet
123 361 m 0,0,1
 123 317 123 317 147.5 293 c 128,-1,2
 172 269 172 269 238 239 c 2,3,-1
 375 178 l 1,4,5
 461 244 461 244 461 316 c 0,6,7
 461 353 461 353 432 378 c 128,-1,8
 403 403 403 403 330 441 c 2,9,-1
 229 495 l 1,10,11
 190 469 190 469 173.5 456.5 c 128,-1,12
 157 444 157 444 140 417.5 c 128,-1,13
 123 391 123 391 123 361 c 0,0,1
83 32 m 1,14,-1
 107 49 l 1,15,16
 130 10 130 10 173 -11 c 128,-1,17
 216 -32 216 -32 269 -32 c 0,18,19
 341 -32 341 -32 380 -5.5 c 128,-1,20
 419 21 419 21 419 67 c 0,21,22
 419 106 419 106 396 129 c 128,-1,23
 373 152 373 152 317 176 c 2,24,-1
 208 224 l 2,25,26
 150 250 150 250 120.5 280 c 128,-1,27
 91 310 91 310 91 357 c 0,28,29
 91 386 91 386 100.5 409 c 128,-1,30
 110 432 110 432 130 452 c 128,-1,31
 150 472 150 472 165 482.5 c 128,-1,32
 180 493 180 493 206 509 c 1,33,34
 125 566 125 566 125 628 c 0,35,36
 125 688 125 688 170.5 721.5 c 128,-1,37
 216 755 216 755 305 755 c 0,38,39
 365 755 365 755 414.5 730 c 128,-1,40
 464 705 464 705 492 659 c 1,41,-1
 469 648 l 1,42,43
 410 728 410 728 305 728 c 0,44,45
 227 728 227 728 192 700.5 c 128,-1,46
 157 673 157 673 157 630 c 0,47,48
 157 612 157 612 162.5 596 c 128,-1,49
 168 580 168 580 185 564 c 128,-1,50
 202 548 202 548 211.5 538.5 c 128,-1,51
 221 529 221 529 251 512.5 c 128,-1,52
 281 496 281 496 289.5 492 c 128,-1,53
 298 488 298 488 334 470 c 2,54,-1
 346 464 l 2,55,56
 425 424 425 424 458.5 392.5 c 128,-1,57
 492 361 492 361 492 316 c 0,58,59
 492 231 492 231 401 161 c 1,60,61
 450 127 450 127 450 67 c 0,62,63
 450 12 450 12 405.5 -23 c 128,-1,64
 361 -58 361 -58 270 -58 c 0,65,66
 145 -58 145 -58 83 32 c 1,14,-1
EndSplineSet
EndChar

StartChar: dieresis
Encoding: 168 168 106
Width: 444
GlyphClass: 2
Flags: W
LayerCount: 2
Fore
SplineSet
107 667 m 1,0,-1
 107 735 l 1,1,-1
 178 735 l 1,2,-1
 178 667 l 1,3,-1
 107 667 l 1,0,-1
269 667 m 1,4,-1
 269 735 l 1,5,-1
 338 735 l 1,6,-1
 338 667 l 1,7,-1
 269 667 l 1,4,-1
EndSplineSet
EndChar

StartChar: copyright
Encoding: 169 169 107
Width: 908
GlyphClass: 2
Flags: W
LayerCount: 2
Fore
SplineSet
279 372 m 0,0,1
 279 476 279 476 329.5 544.5 c 128,-1,2
 380 613 380 613 470 613 c 0,3,4
 513 613 513 613 553.5 589.5 c 128,-1,5
 594 566 594 566 621 511 c 1,6,-1
 592 501 l 1,7,8
 575 539 575 539 542.5 562 c 128,-1,9
 510 585 510 585 470 585 c 0,10,11
 397 585 397 585 353.5 526 c 128,-1,12
 310 467 310 467 310 372 c 0,13,14
 310 275 310 275 354 216.5 c 128,-1,15
 398 158 398 158 470 158 c 0,16,17
 516 158 516 158 550.5 184 c 128,-1,18
 585 210 585 210 604 248 c 1,19,-1
 633 237 l 1,20,21
 610 192 610 192 567.5 161.5 c 128,-1,22
 525 131 525 131 470 131 c 0,23,24
 386 131 386 131 332.5 196.5 c 128,-1,25
 279 262 279 262 279 372 c 0,0,1
63 375 m 0,26,27
 63 541 63 541 174.5 652 c 128,-1,28
 286 763 286 763 454 763 c 0,29,30
 623 763 623 763 734.5 653 c 128,-1,31
 846 543 846 543 846 375 c 0,32,33
 846 212 846 212 735 99 c 128,-1,34
 624 -14 624 -14 454 -14 c 0,35,36
 287 -14 287 -14 175 98 c 128,-1,37
 63 210 63 210 63 375 c 0,26,27
89 375 m 0,38,39
 89 226 89 226 191.5 118 c 128,-1,40
 294 10 294 10 454 10 c 0,41,42
 615 10 615 10 717.5 118 c 128,-1,43
 820 226 820 226 820 375 c 0,44,45
 820 526 820 526 716.5 632.5 c 128,-1,46
 613 739 613 739 454 739 c 0,47,48
 298 739 298 739 193.5 634 c 128,-1,49
 89 529 89 529 89 375 c 0,38,39
EndSplineSet
EndChar

StartChar: ordfeminine
Encoding: 170 170 108
Width: 390
GlyphClass: 2
Flags: W
LayerCount: 2
Fore
SplineSet
36 348 m 1,0,-1
 36 373 l 1,1,-1
 353 373 l 1,2,-1
 353 348 l 1,3,-1
 36 348 l 1,0,-1
63 550 m 0,4,5
 63 521 63 521 89 498.5 c 128,-1,6
 115 476 115 476 162 476 c 0,7,8
 218 476 218 476 259.5 513 c 128,-1,9
 301 550 301 550 301 606 c 2,10,-1
 301 673 l 1,11,12
 277 663 277 663 228.5 655 c 128,-1,13
 180 647 180 647 147.5 640 c 128,-1,14
 115 633 115 633 89 610.5 c 128,-1,15
 63 588 63 588 63 550 c 0,4,5
36 549 m 0,16,17
 36 596 36 596 67.5 624.5 c 128,-1,18
 99 653 99 653 137 660.5 c 128,-1,19
 175 668 175 668 226.5 677.5 c 128,-1,20
 278 687 278 687 301 698 c 1,21,-1
 301 713 l 2,22,23
 301 758 301 758 272 786 c 128,-1,24
 243 814 243 814 190 814 c 0,25,26
 147 814 147 814 115.5 792.5 c 128,-1,27
 84 771 84 771 74 754 c 1,28,-1
 53 766 l 1,29,30
 74 797 74 797 111.5 817.5 c 128,-1,31
 149 838 149 838 190 838 c 0,32,33
 259 838 259 838 294 802.5 c 128,-1,34
 329 767 329 767 329 711 c 2,35,-1
 329 465 l 1,36,-1
 303 465 l 1,37,-1
 303 530 l 1,38,39
 284 497 284 497 246.5 474.5 c 128,-1,40
 209 452 209 452 161 452 c 0,41,42
 104 452 104 452 70 479 c 128,-1,43
 36 506 36 506 36 549 c 0,16,17
EndSplineSet
EndChar

StartChar: guillemotleft
Encoding: 171 171 109
Width: 411
GlyphClass: 2
Flags: W
LayerCount: 2
Fore
SplineSet
35 252 m 1,0,-1
 193 471 l 1,1,-1
 216 456 l 1,2,-1
 70 252 l 1,3,-1
 215 46 l 1,4,-1
 191 30 l 1,5,-1
 35 252 l 1,0,-1
192 252 m 1,6,-1
 350 470 l 1,7,-1
 373 454 l 1,8,-1
 227 252 l 1,9,-1
 372 47 l 1,10,-1
 349 31 l 1,11,-1
 192 252 l 1,6,-1
EndSplineSet
EndChar

StartChar: logicalnot
Encoding: 172 172 110
Width: 543
GlyphClass: 2
Flags: W
LayerCount: 2
Fore
SplineSet
53 339 m 1,0,-1
 53 365 l 1,1,-1
 491 365 l 1,2,-1
 491 129 l 1,3,-1
 460 129 l 1,4,-1
 460 339 l 1,5,-1
 53 339 l 1,0,-1
EndSplineSet
EndChar

StartChar: uni00AD
Encoding: 173 173 111
Width: 563
GlyphClass: 2
Flags: W
LayerCount: 2
Fore
SplineSet
69 348 m 1,0,-1
 69 375 l 1,1,-1
 497 375 l 1,2,-1
 497 348 l 1,3,-1
 69 348 l 1,0,-1
EndSplineSet
EndChar

StartChar: registered
Encoding: 174 174 112
Width: 908
GlyphClass: 2
Flags: W
LayerCount: 2
Fore
SplineSet
331 148 m 1,0,-1
 331 599 l 1,1,-1
 490 599 l 2,2,3
 551 599 551 599 586.5 563.5 c 128,-1,4
 622 528 622 528 622 477 c 0,5,6
 622 393 622 393 542 364 c 1,7,8
 577 343 577 343 594 281 c 0,9,10
 596 273 596 273 601.5 247.5 c 128,-1,11
 607 222 607 222 610 211 c 128,-1,12
 613 200 613 200 620.5 181 c 128,-1,13
 628 162 628 162 636 148 c 1,14,-1
 599 148 l 1,15,16
 592 161 592 161 586 178 c 128,-1,17
 580 195 580 195 577 207 c 128,-1,18
 574 219 574 219 569.5 240 c 128,-1,19
 565 261 565 261 562 270 c 0,20,21
 552 310 552 310 535 331 c 128,-1,22
 518 352 518 352 482 352 c 2,23,-1
 363 352 l 1,24,-1
 363 148 l 1,25,-1
 331 148 l 1,0,-1
363 380 m 1,26,-1
 484 380 l 2,27,28
 531 380 531 380 559.5 406 c 128,-1,29
 588 432 588 432 588 475 c 0,30,31
 588 517 588 517 562.5 544.5 c 128,-1,32
 537 572 537 572 484 572 c 2,33,-1
 363 572 l 1,34,-1
 363 380 l 1,26,-1
63 374 m 0,35,36
 63 541 63 541 175 652 c 128,-1,37
 287 763 287 763 454 763 c 0,38,39
 623 763 623 763 734.5 653 c 128,-1,40
 846 543 846 543 846 374 c 0,41,42
 846 211 846 211 736 98.5 c 128,-1,43
 626 -14 626 -14 454 -14 c 0,44,45
 287 -14 287 -14 175 97.5 c 128,-1,46
 63 209 63 209 63 374 c 0,35,36
89 374 m 0,47,48
 89 225 89 225 191 117.5 c 128,-1,49
 293 10 293 10 454 10 c 256,50,51
 615 10 615 10 717.5 118 c 128,-1,52
 820 226 820 226 820 374 c 0,53,54
 820 524 820 524 717 631.5 c 128,-1,55
 614 739 614 739 454 739 c 0,56,57
 298 739 298 739 193.5 633.5 c 128,-1,58
 89 528 89 528 89 374 c 0,47,48
EndSplineSet
EndChar

StartChar: macron
Encoding: 175 175 113
Width: 526
GlyphClass: 2
Flags: W
LayerCount: 2
Fore
SplineSet
0 797 m 1,0,-1
 0 823 l 1,1,-1
 527 823 l 1,2,-1
 527 797 l 1,3,-1
 0 797 l 1,0,-1
EndSplineSet
EndChar

StartChar: degree
Encoding: 176 176 114
Width: 414
GlyphClass: 2
Flags: W
LayerCount: 2
Fore
SplineSet
90 633 m 0,0,1
 90 677 90 677 123 710 c 128,-1,2
 156 743 156 743 208 743 c 0,3,4
 257 743 257 743 290.5 712 c 128,-1,5
 324 681 324 681 324 633 c 0,6,7
 324 584 324 584 290 552 c 128,-1,8
 256 520 256 520 208 520 c 0,9,10
 159 520 159 520 124.5 552.5 c 128,-1,11
 90 585 90 585 90 633 c 0,0,1
115 633 m 0,12,13
 115 593 115 593 141.5 568 c 128,-1,14
 168 543 168 543 208 543 c 0,15,16
 245 543 245 543 272 569 c 128,-1,17
 299 595 299 595 299 633 c 0,18,19
 299 670 299 670 274.5 695 c 128,-1,20
 250 720 250 720 208 720 c 0,21,22
 165 720 165 720 140 695 c 128,-1,23
 115 670 115 670 115 633 c 0,12,13
EndSplineSet
EndChar

StartChar: plusminus
Encoding: 177 177 115
Width: 563
GlyphClass: 2
Flags: W
LayerCount: 2
Fore
SplineSet
47 412 m 1,0,-1
 47 439 l 1,1,-1
 268 439 l 1,2,-1
 268 646 l 1,3,-1
 297 646 l 1,4,-1
 297 439 l 1,5,-1
 518 439 l 1,6,-1
 518 412 l 1,7,-1
 297 412 l 1,8,-1
 297 205 l 1,9,-1
 268 205 l 1,10,-1
 268 412 l 1,11,-1
 47 412 l 1,0,-1
50 86 m 1,12,-1
 50 112 l 1,13,-1
 515 112 l 1,14,-1
 515 86 l 1,15,-1
 50 86 l 1,12,-1
EndSplineSet
EndChar

StartChar: twosuperior
Encoding: 178 178 116
Width: 313
GlyphClass: 2
Flags: W
LayerCount: 2
Fore
SplineSet
34 738 m 1,0,1
 44 778 44 778 73.5 807.5 c 128,-1,2
 103 837 103 837 157 837 c 0,3,4
 207 837 207 837 239 808 c 128,-1,5
 271 779 271 779 271 727 c 0,6,7
 271 664 271 664 206 604 c 0,8,9
 133 536 133 536 104 504 c 128,-1,10
 75 472 75 472 67 444 c 1,11,-1
 271 444 l 1,12,-1
 271 421 l 1,13,-1
 36 421 l 1,14,15
 36 423 36 423 36 425 c 0,16,17
 36 441 36 441 43 458 c 128,-1,18
 50 475 50 475 70 499.5 c 128,-1,19
 90 524 90 524 101.5 536.5 c 128,-1,20
 113 549 113 549 146.5 581 c 128,-1,21
 180 613 180 613 189 622 c 0,22,23
 245 678 245 678 245 727 c 0,24,25
 245 768 245 768 220.5 790.5 c 128,-1,26
 196 813 196 813 156 813 c 0,27,28
 83 813 83 813 58 733 c 1,29,-1
 34 738 l 1,0,1
EndSplineSet
EndChar

StartChar: threesuperior
Encoding: 179 179 117
Width: 313
GlyphClass: 2
Flags: W
LayerCount: 2
Fore
SplineSet
27 483 m 1,0,-1
 49 496 l 1,1,2
 85 435 85 435 149 435 c 0,3,4
 193 435 193 435 223 459.5 c 128,-1,5
 253 484 253 484 253 533 c 0,6,7
 253 572 253 572 226.5 599 c 128,-1,8
 200 626 200 626 136 626 c 0,9,10
 131 626 131 626 114 624 c 1,11,-1
 114 650 l 1,12,13
 123 649 123 649 135 649 c 0,14,15
 191 649 191 649 214 674.5 c 128,-1,16
 237 700 237 700 237 734 c 0,17,18
 237 769 237 769 213 791.5 c 128,-1,19
 189 814 189 814 150 814 c 0,20,21
 95 814 95 814 61 751 c 1,22,-1
 38 759 l 1,23,24
 74 838 74 838 150 838 c 0,25,26
 202 838 202 838 232 808.5 c 128,-1,27
 262 779 262 779 262 735 c 0,28,29
 262 667 262 667 200 639 c 1,30,31
 279 613 279 613 279 533 c 0,32,33
 279 474 279 474 242.5 442.5 c 128,-1,34
 206 411 206 411 149 411 c 0,35,36
 69 411 69 411 27 483 c 1,0,-1
EndSplineSet
EndChar

StartChar: acute
Encoding: 180 180 118
Width: 326
GlyphClass: 2
Flags: W
LayerCount: 2
Fore
SplineSet
90 662 m 1,0,-1
 207 836 l 1,1,-1
 261 836 l 1,2,-1
 123 662 l 1,3,-1
 90 662 l 1,0,-1
EndSplineSet
EndChar

StartChar: uni00B5
Encoding: 181 181 119
Width: 596
GlyphClass: 2
Flags: W
LayerCount: 2
Fore
SplineSet
104 -244 m 1,0,-1
 104 520 l 1,1,-1
 136 520 l 1,2,-1
 136 185 l 2,3,4
 136 107 136 107 171.5 56.5 c 128,-1,5
 207 6 207 6 281 6 c 0,6,7
 369 6 369 6 418 69.5 c 128,-1,8
 467 133 467 133 467 219 c 2,9,-1
 467 520 l 1,10,-1
 497 520 l 1,11,-1
 497 0 l 1,12,-1
 468 0 l 1,13,-1
 468 113 l 1,14,-1
 466 113 l 1,15,16
 453 62 453 62 404.5 21.5 c 128,-1,17
 356 -19 356 -19 277 -19 c 0,18,19
 175 -19 175 -19 136 67 c 1,20,-1
 136 -244 l 1,21,-1
 104 -244 l 1,0,-1
EndSplineSet
EndChar

StartChar: paragraph
Encoding: 182 182 120
Width: 644
GlyphClass: 2
Flags: W
LayerCount: 2
Fore
SplineSet
75 553 m 0,0,1
 75 654 75 654 127.5 716 c 128,-1,2
 180 778 180 778 273 778 c 2,3,-1
 540 778 l 1,4,-1
 540 -71 l 1,5,-1
 513 -71 l 1,6,-1
 513 747 l 1,7,-1
 375 747 l 1,8,-1
 375 -71 l 1,9,-1
 347 -71 l 1,10,-1
 347 344 l 1,11,12
 298 330 298 330 260 330 c 0,13,14
 181 330 181 330 128 388.5 c 128,-1,15
 75 447 75 447 75 553 c 0,0,1
EndSplineSet
EndChar

StartChar: periodcentered
Encoding: 183 183 121
Width: 344
GlyphClass: 2
Flags: W
LayerCount: 2
Fore
SplineSet
130 309 m 1,0,-1
 130 394 l 1,1,-1
 215 394 l 1,2,-1
 215 309 l 1,3,-1
 130 309 l 1,0,-1
EndSplineSet
EndChar

StartChar: cedilla
Encoding: 184 184 122
Width: 290
GlyphClass: 2
Flags: W
LayerCount: 2
Fore
SplineSet
49 -198 m 1,0,1
 101 -208 101 -208 115 -208 c 0,2,3
 202 -208 202 -208 202 -150 c 0,4,5
 202 -102 202 -102 99 -87 c 1,6,-1
 135 -15 l 1,7,-1
 164 -15 l 1,8,-1
 137 -70 l 1,9,10
 231 -86 231 -86 231 -151 c 0,11,12
 231 -191 231 -191 201.5 -212.5 c 128,-1,13
 172 -234 172 -234 116 -234 c 0,14,15
 86 -234 86 -234 49 -221 c 1,16,-1
 49 -198 l 1,0,1
EndSplineSet
EndChar

StartChar: onesuperior
Encoding: 185 185 123
Width: 313
GlyphClass: 2
Flags: W
LayerCount: 2
Fore
SplineSet
67 752 m 1,0,-1
 67 773 l 1,1,-1
 93 773 l 2,2,3
 131 773 131 773 143 779.5 c 128,-1,4
 155 786 155 786 155 807 c 2,5,-1
 155 834 l 1,6,-1
 178 834 l 1,7,-1
 178 415 l 1,8,-1
 151 415 l 1,9,-1
 151 752 l 1,10,-1
 67 752 l 1,0,-1
EndSplineSet
EndChar

StartChar: ordmasculine
Encoding: 186 186 124
Width: 390
GlyphClass: 2
Flags: W
LayerCount: 2
Fore
SplineSet
67 646 m 256,0,1
 67 572 67 572 101.5 524 c 128,-1,2
 136 476 136 476 194 476 c 256,3,4
 252 476 252 476 287.5 524.5 c 128,-1,5
 323 573 323 573 323 646 c 256,6,7
 323 719 323 719 287.5 766.5 c 128,-1,8
 252 814 252 814 194 814 c 0,9,10
 138 814 138 814 102.5 767 c 128,-1,11
 67 720 67 720 67 646 c 256,0,1
38 646 m 0,12,13
 38 730 38 730 80 784 c 128,-1,14
 122 838 122 838 194 838 c 0,15,16
 265 838 265 838 307.5 784 c 128,-1,17
 350 730 350 730 350 646 c 0,18,19
 350 566 350 566 309 509 c 128,-1,20
 268 452 268 452 194 452 c 256,21,22
 120 452 120 452 79 509 c 128,-1,23
 38 566 38 566 38 646 c 0,12,13
36 348 m 1,24,-1
 36 373 l 1,25,-1
 353 373 l 1,26,-1
 353 348 l 1,27,-1
 36 348 l 1,24,-1
EndSplineSet
EndChar

StartChar: guillemotright
Encoding: 187 187 125
Width: 411
GlyphClass: 2
Flags: W
LayerCount: 2
Fore
SplineSet
38 454 m 1,0,-1
 61 470 l 1,1,-1
 219 252 l 1,2,-1
 62 31 l 1,3,-1
 41 47 l 1,4,-1
 185 252 l 1,5,-1
 38 454 l 1,0,-1
196 46 m 1,6,-1
 342 252 l 1,7,-1
 195 456 l 1,8,-1
 218 471 l 1,9,-1
 376 252 l 1,10,-1
 220 30 l 1,11,-1
 196 46 l 1,6,-1
EndSplineSet
EndChar

StartChar: onequarter
Encoding: 188 188 126
Width: 965
GlyphClass: 3
Flags: W
LayerCount: 2
Fore
SplineSet
572 112 m 1,0,-1
 766 112 l 1,1,-1
 766 344 l 2,2,3
 766 356 766 356 766.5 378.5 c 128,-1,4
 767 401 767 401 767 410 c 1,5,-1
 734 356 l 1,6,-1
 572 112 l 1,0,-1
539 108 m 1,7,-1
 765 454 l 1,8,-1
 795 454 l 1,9,-1
 795 112 l 1,10,-1
 874 112 l 1,11,-1
 874 86 l 1,12,-1
 795 86 l 1,13,-1
 795 -42 l 1,14,-1
 766 -42 l 1,15,-1
 766 86 l 1,16,-1
 539 86 l 1,17,-1
 539 108 l 1,7,-1
94 707 m 1,18,-1
 94 731 l 1,19,-1
 124 731 l 2,20,21
 170 731 170 731 184 737.5 c 128,-1,22
 198 744 198 744 198 771 c 2,23,-1
 198 803 l 1,24,-1
 222 803 l 1,25,-1
 222 308 l 1,26,-1
 193 308 l 1,27,-1
 193 707 l 1,28,-1
 94 707 l 1,18,-1
164 -52 m 1,29,-1
 662 787 l 1,30,-1
 694 787 l 1,31,-1
 196 -52 l 1,32,-1
 164 -52 l 1,29,-1
EndSplineSet
Ligature2: "'frac' Diagonal Fractions lookup 7 subtable" one fraction four
Ligature2: "'frac' Diagonal Fractions lookup 7 subtable" one slash four
EndChar

StartChar: onehalf
Encoding: 189 189 127
Width: 965
GlyphClass: 3
Flags: W
LayerCount: 2
Fore
SplineSet
573 341 m 1,0,1
 609 457 609 457 717 457 c 0,2,3
 776 457 776 457 813.5 423 c 128,-1,4
 851 389 851 389 851 327 c 0,5,6
 851 254 851 254 777 184 c 0,7,8
 687 101 687 101 653 63 c 128,-1,9
 619 25 619 25 609 -7 c 1,10,-1
 851 -7 l 1,11,-1
 851 -34 l 1,12,-1
 575 -34 l 1,13,14
 575 10 575 10 612.5 56.5 c 128,-1,15
 650 103 650 103 752 200 c 0,16,17
 822 266 822 266 822 327 c 0,18,19
 822 377 822 377 793 403.5 c 128,-1,20
 764 430 764 430 715 430 c 0,21,22
 674 430 674 430 643 404.5 c 128,-1,23
 612 379 612 379 600 335 c 1,24,-1
 573 341 l 1,0,1
94 707 m 1,25,-1
 94 731 l 1,26,-1
 124 731 l 2,27,28
 170 731 170 731 184 737.5 c 128,-1,29
 198 744 198 744 198 771 c 2,30,-1
 198 803 l 1,31,-1
 222 803 l 1,32,-1
 222 308 l 1,33,-1
 193 308 l 1,34,-1
 193 707 l 1,35,-1
 94 707 l 1,25,-1
140 -52 m 1,36,-1
 656 786 l 1,37,-1
 688 786 l 1,38,-1
 174 -52 l 1,39,-1
 140 -52 l 1,36,-1
EndSplineSet
Ligature2: "'frac' Diagonal Fractions lookup 7 subtable" one fraction two
Ligature2: "'frac' Diagonal Fractions lookup 7 subtable" one slash two
EndChar

StartChar: threequarters
Encoding: 190 190 128
Width: 965
GlyphClass: 3
Flags: W
LayerCount: 2
Fore
SplineSet
65 390 m 1,0,-1
 91 403 l 1,1,2
 134 332 134 332 210 332 c 0,3,4
 263 332 263 332 298.5 361 c 128,-1,5
 334 390 334 390 334 448 c 0,6,7
 334 503 334 503 296 530.5 c 128,-1,8
 258 558 258 558 205 558 c 0,9,10
 177 558 177 558 168 557 c 1,11,-1
 168 585 l 1,12,13
 177 584 177 584 203 584 c 0,14,15
 253 584 253 584 283.5 611 c 128,-1,16
 314 638 314 638 314 686 c 0,17,18
 314 728 314 728 285.5 755 c 128,-1,19
 257 782 257 782 211 782 c 0,20,21
 143 782 143 782 106 706 c 1,22,-1
 79 716 l 1,23,24
 121 808 121 808 211 808 c 0,25,26
 272 808 272 808 307.5 773 c 128,-1,27
 343 738 343 738 343 687 c 0,28,29
 343 645 343 645 321.5 615.5 c 128,-1,30
 300 586 300 586 268 574 c 1,31,32
 308 562 308 562 335.5 530.5 c 128,-1,33
 363 499 363 499 363 448 c 0,34,35
 363 378 363 378 320.5 341.5 c 128,-1,36
 278 305 278 305 210 305 c 0,37,38
 158 305 158 305 121 330.5 c 128,-1,39
 84 356 84 356 65 390 c 1,0,-1
549 108 m 1,40,-1
 776 454 l 1,41,-1
 806 454 l 1,42,-1
 806 112 l 1,43,-1
 885 112 l 1,44,-1
 885 86 l 1,45,-1
 806 86 l 1,46,-1
 806 -42 l 1,47,-1
 777 -42 l 1,48,-1
 777 86 l 1,49,-1
 549 86 l 1,50,-1
 549 108 l 1,40,-1
582 112 m 1,51,-1
 777 112 l 1,52,-1
 777 344 l 2,53,54
 777 356 777 356 777.5 377.5 c 128,-1,55
 778 399 778 399 778 409 c 1,56,-1
 582 112 l 1,51,-1
224 -52 m 1,57,-1
 738 786 l 1,58,-1
 770 786 l 1,59,-1
 257 -52 l 1,60,-1
 224 -52 l 1,57,-1
EndSplineSet
Ligature2: "'frac' Diagonal Fractions lookup 7 subtable" three fraction four
Ligature2: "'frac' Diagonal Fractions lookup 7 subtable" three slash four
EndChar

StartChar: questiondown
Encoding: 191 191 129
Width: 539
GlyphClass: 2
Flags: W
LayerCount: 2
Fore
SplineSet
79 -47 m 0,0,1
 79 -1 79 -1 98 36 c 128,-1,2
 117 73 117 73 145 99 c 128,-1,3
 173 125 173 125 200.5 151 c 128,-1,4
 228 177 228 177 247 215 c 128,-1,5
 266 253 266 253 266 300 c 2,6,-1
 266 316 l 1,7,-1
 296 316 l 1,8,-1
 296 299 l 2,9,10
 296 248 296 248 277 207.5 c 128,-1,11
 258 167 258 167 231 141 c 128,-1,12
 204 115 204 115 176.5 90 c 128,-1,13
 149 65 149 65 129.5 31 c 128,-1,14
 110 -3 110 -3 110 -46 c 0,15,16
 110 -121 110 -121 151.5 -165.5 c 128,-1,17
 193 -210 193 -210 267 -210 c 0,18,19
 378 -210 378 -210 438 -85 c 1,20,-1
 464 -97 l 1,21,22
 435 -165 435 -165 383 -201 c 128,-1,23
 331 -237 331 -237 268 -237 c 0,24,25
 180 -237 180 -237 129.5 -185 c 128,-1,26
 79 -133 79 -133 79 -47 c 0,0,1
238 441 m 1,27,-1
 238 524 l 1,28,-1
 323 524 l 1,29,-1
 323 441 l 1,30,-1
 238 441 l 1,27,-1
EndSplineSet
EndChar

StartChar: AE
Encoding: 198 198 136
Width: 914
GlyphClass: 2
Flags: W
LayerCount: 2
Fore
SplineSet
209 269 m 1,0,-1
 494 269 l 1,1,-1
 494 708 l 1,2,-1
 484 708 l 1,3,-1
 209 269 l 1,0,-1
3 0 m 1,4,-1
 468 735 l 1,5,-1
 868 735 l 1,6,-1
 868 708 l 1,7,-1
 525 708 l 1,8,-1
 525 395 l 1,9,-1
 832 395 l 1,10,-1
 832 369 l 1,11,-1
 524 369 l 1,12,-1
 524 27 l 1,13,-1
 871 27 l 1,14,-1
 871 0 l 1,15,-1
 494 0 l 1,16,-1
 494 243 l 1,17,-1
 193 243 l 1,18,-1
 38 0 l 1,19,-1
 3 0 l 1,4,-1
EndSplineSet
EndChar

StartChar: multiply
Encoding: 215 215 153
Width: 563
GlyphClass: 2
Flags: W
LayerCount: 2
Fore
SplineSet
51 167 m 1,0,-1
 263 359 l 1,1,-1
 56 551 l 1,2,-1
 76 572 l 1,3,-1
 282 377 l 1,4,-1
 489 572 l 1,5,-1
 509 551 l 1,6,-1
 303 359 l 1,7,-1
 515 166 l 1,8,-1
 494 147 l 1,9,-1
 282 340 l 1,10,-1
 72 147 l 1,11,-1
 51 167 l 1,0,-1
EndSplineSet
EndChar

StartChar: Oslash
Encoding: 216 216 154
Width: 701
GlyphClass: 2
Flags: W
LayerCount: 2
Fore
SplineSet
64 367 m 0,0,1
 64 542 64 542 141 648.5 c 128,-1,2
 218 755 218 755 351 755 c 0,3,4
 438 755 438 755 504 707 c 1,5,-1
 549 798 l 1,6,-1
 580 798 l 1,7,-1
 526 689 l 1,8,9
 637 587 637 587 637 367 c 0,10,11
 637 194 637 194 561 87.5 c 128,-1,12
 485 -19 485 -19 351 -19 c 0,13,14
 278 -19 278 -19 221 15 c 1,15,-1
 175 -82 l 1,16,-1
 143 -82 l 1,17,-1
 200 29 l 1,18,19
 134 77 134 77 99 164.5 c 128,-1,20
 64 252 64 252 64 367 c 0,0,1
511 659 m 1,21,-1
 235 41 l 1,22,23
 286 8 286 8 351 8 c 0,24,25
 471 8 471 8 538.5 107.5 c 128,-1,26
 606 207 606 207 606 367 c 0,27,28
 606 565 606 565 511 659 c 1,21,-1
491 679 m 1,29,30
 430 727 430 727 351 727 c 0,31,32
 234 727 234 727 165.5 629.5 c 128,-1,33
 97 532 97 532 97 367 c 0,34,35
 97 263 97 263 126.5 182 c 128,-1,36
 156 101 156 101 212 56 c 1,37,-1
 491 679 l 1,29,30
EndSplineSet
EndChar

StartChar: Thorn
Encoding: 222 222 160
Width: 627
GlyphClass: 2
Flags: W
LayerCount: 2
Fore
SplineSet
128 0 m 1,0,-1
 128 736 l 1,1,-1
 158 736 l 1,2,-1
 158 598 l 1,3,-1
 327 598 l 2,4,5
 451 598 451 598 513 540.5 c 128,-1,6
 575 483 575 483 575 377 c 0,7,8
 575 262 575 262 503 208 c 128,-1,9
 431 154 431 154 307 154 c 2,10,-1
 158 154 l 1,11,-1
 158 0 l 1,12,-1
 128 0 l 1,0,-1
158 180 m 1,13,-1
 303 180 l 2,14,15
 544 180 544 180 544 376 c 256,16,17
 544 572 544 572 321 572 c 2,18,-1
 158 572 l 1,19,-1
 158 180 l 1,13,-1
EndSplineSet
EndChar

StartChar: germandbls
Encoding: 223 223 161
Width: 674
GlyphClass: 2
Flags: W
LayerCount: 2
Fore
SplineSet
128 0 m 1,0,-1
 128 572 l 2,1,2
 128 658 128 658 187 706.5 c 128,-1,3
 246 755 246 755 339 755 c 0,4,5
 429 755 429 755 487.5 701.5 c 128,-1,6
 546 648 546 648 546 561 c 0,7,8
 546 493 546 493 519 447.5 c 128,-1,9
 492 402 492 402 453 383 c 1,10,-1
 453 380 l 1,11,12
 479 375 479 375 504 362 c 128,-1,13
 529 349 529 349 555 326.5 c 128,-1,14
 581 304 581 304 597 264.5 c 128,-1,15
 613 225 613 225 613 176 c 0,16,17
 613 95 613 95 559 38 c 128,-1,18
 505 -19 505 -19 413 -19 c 0,19,20
 332 -19 332 -19 256 4 c 1,21,-1
 264 32 l 1,22,23
 331 8 331 8 412 8 c 0,24,25
 482 8 482 8 531.5 54.5 c 128,-1,26
 581 101 581 101 581 176 c 0,27,28
 581 269 581 269 523.5 316.5 c 128,-1,29
 466 364 466 364 388 364 c 2,30,-1
 329 364 l 1,31,-1
 329 390 l 1,32,-1
 383 390 l 2,33,34
 442 390 442 390 478 439 c 128,-1,35
 514 488 514 488 514 558 c 0,36,37
 514 631 514 631 466.5 679 c 128,-1,38
 419 727 419 727 338 727 c 256,39,40
 257 727 257 727 207.5 684 c 128,-1,41
 158 641 158 641 158 569 c 2,42,-1
 158 0 l 1,43,-1
 128 0 l 1,0,-1
EndSplineSet
EndChar

StartChar: ae
Encoding: 230 230 168
Width: 941
GlyphClass: 2
Flags: W
LayerCount: 2
Fore
SplineSet
53 119 m 0,0,1
 53 187 53 187 102 230.5 c 128,-1,2
 151 274 151 274 266 291 c 0,3,4
 398 312 398 312 442 333 c 1,5,-1
 442 360 l 2,6,7
 442 426 442 426 398.5 469.5 c 128,-1,8
 355 513 355 513 274 513 c 0,9,10
 167 513 167 513 102 425 c 1,11,-1
 79 439 l 1,12,13
 108 481 108 481 160 510 c 128,-1,14
 212 539 212 539 274 539 c 0,15,16
 361 539 361 539 409 497 c 128,-1,17
 457 455 457 455 466 390 c 1,18,19
 490 457 490 457 543 498 c 128,-1,20
 596 539 596 539 666 539 c 0,21,22
 765 539 765 539 825.5 460.5 c 128,-1,23
 886 382 886 382 886 278 c 2,24,-1
 886 251 l 1,25,-1
 472 251 l 1,26,-1
 472 225 l 1,27,28
 479 133 479 133 530.5 69.5 c 128,-1,29
 582 6 582 6 668 6 c 0,30,31
 729 6 729 6 774 35.5 c 128,-1,32
 819 65 819 65 843 110 c 1,33,-1
 870 99 l 1,34,35
 804 -19 804 -19 667 -19 c 0,36,37
 589 -19 589 -19 535.5 26.5 c 128,-1,38
 482 72 482 72 460 148 c 1,39,40
 440 74 440 74 376.5 27.5 c 128,-1,41
 313 -19 313 -19 231 -19 c 256,42,43
 149 -19 149 -19 101 19.5 c 128,-1,44
 53 58 53 58 53 119 c 0,0,1
84 120 m 0,45,46
 84 74 84 74 122.5 40 c 128,-1,47
 161 6 161 6 232 6 c 0,48,49
 317 6 317 6 379.5 61 c 128,-1,50
 442 116 442 116 442 203 c 2,51,-1
 442 307 l 1,52,53
 383 284 383 284 268 267 c 0,54,55
 170 253 170 253 127 216.5 c 128,-1,56
 84 180 84 180 84 120 c 0,45,46
472 275 m 1,57,-1
 857 275 l 1,58,59
 857 371 857 371 804 442 c 128,-1,60
 751 513 751 513 666 513 c 0,61,62
 583 513 583 513 532 449 c 128,-1,63
 481 385 481 385 473 297 c 2,64,-1
 472 275 l 1,57,-1
EndSplineSet
EndChar

StartChar: eth
Encoding: 240 240 178
Width: 568
GlyphClass: 2
Flags: W
LayerCount: 2
Fore
SplineSet
59 243 m 0,0,1
 59 363 59 363 121 431.5 c 128,-1,2
 183 500 183 500 285 500 c 0,3,4
 357 500 357 500 403.5 465 c 128,-1,5
 450 430 450 430 470 377 c 1,6,7
 446 574 446 574 344 666 c 1,8,-1
 193 557 l 1,9,-1
 176 577 l 1,10,-1
 322 683 l 1,11,12
 261 729 261 729 175 741 c 1,13,-1
 183 766 l 1,14,15
 280 751 280 751 347 701 c 1,16,-1
 449 775 l 1,17,-1
 466 754 l 1,18,-1
 369 684 l 1,19,20
 403 654 403 654 428 615 c 0,21,22
 506 489 506 489 506 250 c 0,23,24
 506 133 506 133 449.5 57 c 128,-1,25
 393 -19 393 -19 285 -19 c 0,26,27
 175 -19 175 -19 117 56.5 c 128,-1,28
 59 132 59 132 59 243 c 0,0,1
89 243 m 0,29,30
 89 138 89 138 141 72 c 128,-1,31
 193 6 193 6 286 6 c 0,32,33
 373 6 373 6 423.5 71 c 128,-1,34
 474 136 474 136 474 246 c 0,35,36
 474 350 474 350 422.5 412 c 128,-1,37
 371 474 371 474 286 474 c 0,38,39
 200 474 200 474 144.5 414.5 c 128,-1,40
 89 355 89 355 89 243 c 0,29,30
EndSplineSet
EndChar

StartChar: divide
Encoding: 247 247 185
Width: 563
GlyphClass: 2
Flags: W
LayerCount: 2
Fore
SplineSet
243 505 m 1,0,-1
 243 581 l 1,1,-1
 322 581 l 1,2,-1
 322 505 l 1,3,-1
 243 505 l 1,0,-1
35 348 m 1,4,-1
 35 375 l 1,5,-1
 529 375 l 1,6,-1
 529 348 l 1,7,-1
 35 348 l 1,4,-1
243 145 m 1,8,-1
 243 219 l 1,9,-1
 322 219 l 1,10,-1
 322 145 l 1,11,-1
 243 145 l 1,8,-1
EndSplineSet
EndChar

StartChar: oslash
Encoding: 248 248 186
Width: 566
GlyphClass: 2
Flags: W
LayerCount: 2
Fore
SplineSet
59 260 m 0,0,1
 59 382 59 382 119.5 460.5 c 128,-1,2
 180 539 180 539 284 539 c 0,3,4
 348 539 348 539 399 504 c 1,5,-1
 437 578 l 1,6,-1
 465 578 l 1,7,-1
 420 488 l 1,8,9
 508 411 508 411 508 260 c 0,10,11
 508 143 508 143 449 62 c 128,-1,12
 390 -19 390 -19 284 -19 c 0,13,14
 226 -19 226 -19 180 7 c 1,15,-1
 143 -65 l 1,16,-1
 115 -65 l 1,17,-1
 158 22 l 1,18,19
 110 58 110 58 84.5 122 c 128,-1,20
 59 186 59 186 59 260 c 0,0,1
405 461 m 1,21,-1
 192 32 l 1,22,23
 235 6 235 6 284 6 c 0,24,25
 371 6 371 6 424.5 78.5 c 128,-1,26
 478 151 478 151 478 260 c 0,27,28
 478 388 478 388 405 461 c 1,21,-1
387 478 m 1,29,30
 341 513 341 513 284 513 c 0,31,32
 199 513 199 513 144 442.5 c 128,-1,33
 89 372 89 372 89 260 c 0,34,35
 89 117 89 117 172 48 c 1,36,-1
 387 478 l 1,29,30
EndSplineSet
EndChar

StartChar: thorn
Encoding: 254 254 192
Width: 588
GlyphClass: 2
Flags: W
LayerCount: 2
Fore
SplineSet
134 262 m 0,0,1
 135 148 135 148 186 77 c 128,-1,2
 237 6 237 6 315 6 c 0,3,4
 397 6 397 6 449 74 c 128,-1,5
 501 142 501 142 501 260 c 0,6,7
 501 371 501 371 452 442 c 128,-1,8
 403 513 403 513 315 513 c 0,9,10
 240 513 240 513 187 442.5 c 128,-1,11
 134 372 134 372 134 266 c 0,12,13
 134 264 134 264 134 262 c 0,0,1
105 -244 m 1,14,-1
 105 767 l 1,15,-1
 135 767 l 1,16,-1
 135 387 l 1,17,18
 156 455 156 455 206 497 c 128,-1,19
 256 539 256 539 317 539 c 0,20,21
 415 539 415 539 472.5 463 c 128,-1,22
 530 387 530 387 530 260 c 0,23,24
 530 126 530 126 470 53.5 c 128,-1,25
 410 -19 410 -19 316 -19 c 0,26,27
 251 -19 251 -19 204 23 c 128,-1,28
 157 65 157 65 135 130 c 1,29,-1
 135 -244 l 1,30,-1
 105 -244 l 1,14,-1
EndSplineSet
EndChar

StartChar: dcroat
Encoding: 273 273 211
Width: 587
GlyphClass: 2
Flags: W
LayerCount: 2
Fore
SplineSet
59 260 m 0,0,1
 59 391 59 391 118 465 c 128,-1,2
 177 539 177 539 272 539 c 0,3,4
 340 539 340 539 388.5 493.5 c 128,-1,5
 437 448 437 448 454 385 c 1,6,-1
 454 644 l 1,7,-1
 220 644 l 1,8,-1
 220 668 l 1,9,-1
 454 668 l 1,10,-1
 454 767 l 1,11,-1
 484 767 l 1,12,-1
 484 668 l 1,13,-1
 567 668 l 1,14,-1
 567 644 l 1,15,-1
 484 644 l 1,16,-1
 484 0 l 1,17,-1
 454 0 l 1,18,-1
 454 126 l 1,19,20
 434 63 434 63 387 22 c 128,-1,21
 340 -19 340 -19 271 -19 c 0,22,23
 185 -19 185 -19 122 51 c 128,-1,24
 59 121 59 121 59 260 c 0,0,1
89 260 m 0,25,26
 89 146 89 146 139.5 76 c 128,-1,27
 190 6 190 6 275 6 c 0,28,29
 351 6 351 6 402.5 73 c 128,-1,30
 454 140 454 140 455 260 c 0,31,32
 455 262 455 262 455 264 c 0,33,34
 455 377 455 377 401 445 c 128,-1,35
 347 513 347 513 273 513 c 0,36,37
 192 513 192 513 140.5 444 c 128,-1,38
 89 375 89 375 89 260 c 0,25,26
EndSplineSet
EndChar

StartChar: uni0123
Encoding: 291 291 229
Width: 580
GlyphClass: 2
Flags: W
LayerCount: 2
Fore
SplineSet
245 634 m 1,0,-1
 322 804 l 1,1,-1
 348 804 l 1,2,-1
 291 634 l 1,3,-1
 245 634 l 1,0,-1
89 269 m 0,4,5
 89 160 89 160 139 92.5 c 128,-1,6
 189 25 189 25 268 25 c 0,7,8
 351 25 351 25 399 90.5 c 128,-1,9
 447 156 447 156 447 271 c 0,10,11
 447 379 447 379 397.5 446 c 128,-1,12
 348 513 348 513 270 513 c 0,13,14
 186 513 186 513 137.5 444.5 c 128,-1,15
 89 376 89 376 89 269 c 0,4,5
59 269 m 0,16,17
 59 389 59 389 116 464 c 128,-1,18
 173 539 173 539 268 539 c 0,19,20
 340 539 340 539 383.5 496 c 128,-1,21
 427 453 427 453 447 397 c 1,22,-1
 447 520 l 1,23,-1
 477 520 l 1,24,-1
 477 37 l 2,25,26
 477 -109 477 -109 430 -178.5 c 128,-1,27
 383 -248 383 -248 272 -248 c 0,28,29
 220 -248 220 -248 173 -225 c 128,-1,30
 126 -202 126 -202 98 -164 c 1,31,-1
 121 -149 l 1,32,33
 184 -222 184 -222 273 -222 c 0,34,35
 369 -222 369 -222 407.5 -159 c 128,-1,36
 446 -96 446 -96 447 32 c 2,37,-1
 447 136 l 1,38,39
 397 -2 397 -2 268 -2 c 0,40,41
 174 -2 174 -2 116.5 74 c 128,-1,42
 59 150 59 150 59 269 c 0,16,17
EndSplineSet
EndChar

StartChar: Hbar
Encoding: 294 294 232
Width: 753
GlyphClass: 2
Flags: W
LayerCount: 2
Fore
SplineSet
31 587 m 1,0,-1
 31 612 l 1,1,-1
 128 612 l 1,2,-1
 128 735 l 1,3,-1
 158 735 l 1,4,-1
 158 612 l 1,5,-1
 595 612 l 1,6,-1
 595 735 l 1,7,-1
 626 735 l 1,8,-1
 626 612 l 1,9,-1
 721 612 l 1,10,-1
 721 587 l 1,11,-1
 626 587 l 1,12,-1
 626 0 l 1,13,-1
 595 0 l 1,14,-1
 595 367 l 1,15,-1
 158 367 l 1,16,-1
 158 0 l 1,17,-1
 128 0 l 1,18,-1
 128 587 l 1,19,-1
 31 587 l 1,0,-1
595 587 m 1,20,-1
 158 587 l 1,21,-1
 158 393 l 1,22,-1
 595 393 l 1,23,-1
 595 587 l 1,20,-1
EndSplineSet
EndChar

StartChar: hbar
Encoding: 295 295 233
Width: 585
GlyphClass: 2
Flags: W
LayerCount: 2
Fore
SplineSet
25 654 m 1,0,-1
 25 679 l 1,1,-1
 104 679 l 1,2,-1
 104 767 l 1,3,-1
 135 767 l 1,4,-1
 135 679 l 1,5,-1
 361 679 l 1,6,-1
 361 654 l 1,7,-1
 135 654 l 1,8,-1
 135 409 l 1,9,-1
 136 409 l 1,10,11
 154 456 154 456 206 495.5 c 128,-1,12
 258 535 258 535 326 535 c 0,13,14
 355 535 355 535 380 527.5 c 128,-1,15
 405 520 405 520 431.5 500 c 128,-1,16
 458 480 458 480 474.5 438 c 128,-1,17
 491 396 491 396 491 335 c 2,18,-1
 491 0 l 1,19,-1
 462 0 l 1,20,-1
 462 326 l 2,21,22
 462 509 462 509 320 509 c 0,23,24
 250 509 250 509 192.5 451 c 128,-1,25
 135 393 135 393 135 317 c 2,26,-1
 135 0 l 1,27,-1
 104 0 l 1,28,-1
 104 654 l 1,29,-1
 25 654 l 1,0,-1
EndSplineSet
EndChar

StartChar: dotlessi
Encoding: 305 305 243
Width: 234
GlyphClass: 2
Flags: W
LayerCount: 2
Fore
SplineSet
101 0 m 1,0,-1
 101 520 l 1,1,-1
 133 520 l 1,2,-1
 133 0 l 1,3,-1
 101 0 l 1,0,-1
EndSplineSet
EndChar

StartChar: kgreenlandic
Encoding: 312 312 250
Width: 492
GlyphClass: 2
Flags: W
LayerCount: 2
Fore
SplineSet
104 0 m 1,0,-1
 104 520 l 1,1,-1
 135 520 l 1,2,-1
 135 252 l 1,3,-1
 137 252 l 1,4,-1
 432 520 l 1,5,-1
 474 520 l 1,6,-1
 193 263 l 1,7,-1
 490 0 l 1,8,-1
 449 0 l 1,9,-1
 173 242 l 1,10,-1
 135 208 l 1,11,-1
 135 0 l 1,12,-1
 104 0 l 1,0,-1
EndSplineSet
EndChar

StartChar: Lslash
Encoding: 321 321 259
Width: 539
GlyphClass: 2
Flags: W
LayerCount: 2
Fore
SplineSet
158 357 m 1,0,-1
 158 27 l 1,1,-1
 527 27 l 1,2,-1
 527 0 l 1,3,-1
 128 0 l 1,4,-1
 128 336 l 1,5,-1
 7 252 l 1,6,-1
 -9 274 l 1,7,-1
 128 370 l 1,8,-1
 128 735 l 1,9,-1
 158 735 l 1,10,-1
 158 390 l 1,11,-1
 270 468 l 1,12,-1
 286 447 l 1,13,-1
 158 357 l 1,0,-1
EndSplineSet
EndChar

StartChar: lslash
Encoding: 322 322 260
Width: 246
GlyphClass: 2
Flags: W
LayerCount: 2
Fore
SplineSet
138 373 m 1,0,-1
 138 0 l 1,1,-1
 107 0 l 1,2,-1
 107 352 l 1,3,-1
 -7 271 l 1,4,-1
 -24 293 l 1,5,-1
 107 386 l 1,6,-1
 107 767 l 1,7,-1
 138 767 l 1,8,-1
 138 406 l 1,9,-1
 254 487 l 1,10,-1
 269 465 l 1,11,-1
 138 373 l 1,0,-1
EndSplineSet
EndChar

StartChar: Eng
Encoding: 330 330 268
Width: 762
GlyphClass: 2
Flags: W
LayerCount: 2
Fore
SplineSet
128 0 m 1,0,-1
 128 735 l 1,1,-1
 166 735 l 1,2,-1
 526 170 l 1,3,-1
 604 50 l 1,4,-1
 608 50 l 1,5,6
 604 120 604 120 604 216 c 2,7,-1
 604 735 l 1,8,-1
 636 735 l 1,9,-1
 636 -5 l 2,10,11
 636 -128 636 -128 593 -188 c 128,-1,12
 550 -248 550 -248 449 -248 c 0,13,14
 399 -248 399 -248 349 -242 c 1,15,-1
 349 -215 l 1,16,17
 395 -221 395 -221 446 -221 c 0,18,19
 530 -221 530 -221 566 -170.5 c 128,-1,20
 602 -120 602 -120 602 0 c 1,21,-1
 157 692 l 1,22,-1
 155 692 l 1,23,24
 158 628 158 628 158 504 c 2,25,-1
 158 0 l 1,26,-1
 128 0 l 1,0,-1
EndSplineSet
EndChar

StartChar: eng
Encoding: 331 331 269
Width: 579
GlyphClass: 2
Flags: W
LayerCount: 2
Fore
SplineSet
100 0 m 1,0,-1
 100 520 l 1,1,-1
 129 520 l 1,2,-1
 129 402 l 1,3,-1
 131 402 l 1,4,5
 139 446 139 446 192 492.5 c 128,-1,6
 245 539 245 539 321 539 c 0,7,8
 351 539 351 539 376.5 531 c 128,-1,9
 402 523 402 523 428.5 502.5 c 128,-1,10
 455 482 455 482 471 440 c 128,-1,11
 487 398 487 398 487 338 c 2,12,-1
 487 -5 l 2,13,14
 487 -136 487 -136 446 -192 c 128,-1,15
 405 -248 405 -248 318 -248 c 0,16,17
 298 -248 298 -248 224 -239 c 1,18,-1
 224 -213 l 1,19,20
 285 -221 285 -221 315 -221 c 0,21,22
 391 -221 391 -221 423 -170 c 128,-1,23
 455 -119 455 -119 455 -6 c 2,24,-1
 455 329 l 2,25,26
 455 513 455 513 316 513 c 0,27,28
 244 513 244 513 187 455 c 128,-1,29
 130 397 130 397 130 320 c 2,30,-1
 130 0 l 1,31,-1
 100 0 l 1,0,-1
EndSplineSet
EndChar

StartChar: OE
Encoding: 338 338 276
Width: 918
GlyphClass: 2
Flags: W
LayerCount: 2
Fore
SplineSet
64 368 m 0,0,1
 64 549 64 549 150 652 c 128,-1,2
 236 755 236 755 372 755 c 0,3,4
 431 755 431 755 477 735 c 1,5,-1
 872 735 l 1,6,-1
 872 708 l 1,7,-1
 505 708 l 1,8,-1
 505 395 l 1,9,-1
 834 395 l 1,10,-1
 834 369 l 1,11,-1
 505 369 l 1,12,-1
 505 27 l 1,13,-1
 875 27 l 1,14,-1
 875 0 l 1,15,-1
 480 0 l 1,16,17
 434 -19 434 -19 372 -19 c 0,18,19
 236 -19 236 -19 150 84.5 c 128,-1,20
 64 188 64 188 64 368 c 0,0,1
97 368 m 0,21,22
 97 203 97 203 175 105.5 c 128,-1,23
 253 8 253 8 372 8 c 0,24,25
 432 8 432 8 474 27 c 1,26,-1
 474 705 l 1,27,28
 434 727 434 727 372 727 c 0,29,30
 248 727 248 727 172.5 628.5 c 128,-1,31
 97 530 97 530 97 368 c 0,21,22
EndSplineSet
EndChar

StartChar: uni0163
Encoding: 355 355 293
Width: 344
GlyphClass: 2
Flags: W
LayerCount: 2
Fore
SplineSet
30 494 m 1,0,-1
 30 520 l 1,1,-1
 133 520 l 1,2,-1
 133 701 l 1,3,-1
 165 701 l 1,4,-1
 165 520 l 1,5,-1
 293 520 l 1,6,-1
 293 494 l 1,7,-1
 165 494 l 1,8,-1
 165 137 l 2,9,10
 165 78 165 78 188 52 c 128,-1,11
 211 26 211 26 263 26 c 2,12,-1
 294 26 l 1,13,-1
 294 0 l 1,14,-1
 259 0 l 2,15,16
 248 0 248 0 238 1 c 1,17,-1
 226 -52 l 1,18,19
 275 -57 275 -57 302 -80.5 c 128,-1,20
 329 -104 329 -104 329 -139 c 0,21,22
 329 -176 329 -176 301 -198.5 c 128,-1,23
 273 -221 273 -221 222 -221 c 0,24,25
 180 -221 180 -221 141 -211 c 1,26,-1
 141 -187 l 1,27,28
 183 -199 183 -199 224 -199 c 0,29,30
 258 -199 258 -199 278.5 -182 c 128,-1,31
 299 -165 299 -165 299 -139 c 0,32,33
 299 -79 299 -79 190 -71 c 1,34,-1
 209 6 l 1,35,36
 133 29 133 29 133 131 c 2,37,-1
 133 494 l 1,38,-1
 30 494 l 1,0,-1
EndSplineSet
Substitution2: "'locl' Localized Forms in Latin lookup 3 subtable" uni021B
Substitution2: "'locl' Localized Forms in Latin lookup 2 subtable" uni021B
Substitution2: "'aalt' Access All Alternates lookup 0 subtable" uni021B
EndChar

StartChar: tbar
Encoding: 359 359 297
Width: 356
GlyphClass: 2
Flags: W
LayerCount: 2
Fore
SplineSet
30 494 m 1,0,-1
 30 520 l 1,1,-1
 133 520 l 1,2,-1
 133 701 l 1,3,-1
 165 701 l 1,4,-1
 165 520 l 1,5,-1
 306 520 l 1,6,-1
 306 494 l 1,7,-1
 165 494 l 1,8,-1
 165 342 l 1,9,-1
 309 342 l 1,10,-1
 309 317 l 1,11,-1
 165 317 l 1,12,-1
 165 137 l 2,13,14
 165 78 165 78 188 52 c 128,-1,15
 211 26 211 26 263 26 c 2,16,-1
 307 26 l 1,17,-1
 307 0 l 1,18,-1
 259 0 l 2,19,20
 133 0 133 0 133 131 c 2,21,-1
 133 317 l 1,22,-1
 24 317 l 1,23,-1
 24 342 l 1,24,-1
 133 342 l 1,25,-1
 133 494 l 1,26,-1
 30 494 l 1,0,-1
EndSplineSet
EndChar

StartChar: longs
Encoding: 383 383 321
Width: 301
GlyphClass: 2
Flags: W
LayerCount: 2
Fore
SplineSet
105 0 m 1,0,-1
 105 598 l 2,1,2
 105 672 105 672 142.5 706.5 c 128,-1,3
 180 741 180 741 241 741 c 2,4,-1
 283 741 l 1,5,-1
 283 715 l 1,6,-1
 242 715 l 2,7,8
 136 715 136 715 136 593 c 2,9,-1
 136 0 l 1,10,-1
 105 0 l 1,0,-1
EndSplineSet
EndChar

StartChar: uni0180
Encoding: 384 384 322
Width: 587
GlyphClass: 2
Flags: W
LayerCount: 2
Fore
SplineSet
134 260 m 0,0,1
 134 140 134 140 186.5 73 c 128,-1,2
 239 6 239 6 314 6 c 0,3,4
 397 6 397 6 449 75.5 c 128,-1,5
 501 145 501 145 501 260 c 256,6,7
 501 375 501 375 449.5 444 c 128,-1,8
 398 513 398 513 316 513 c 0,9,10
 242 513 242 513 188 445 c 128,-1,11
 134 377 134 377 134 260 c 0,0,1
29 655 m 1,12,-1
 29 679 l 1,13,-1
 104 679 l 1,14,-1
 104 767 l 1,15,-1
 136 767 l 1,16,-1
 136 679 l 1,17,-1
 360 679 l 1,18,-1
 360 655 l 1,19,-1
 136 655 l 1,20,-1
 136 384 l 1,21,22
 149 442 149 442 197.5 490.5 c 128,-1,23
 246 539 246 539 318 539 c 0,24,25
 415 539 415 539 472 464 c 128,-1,26
 529 389 529 389 529 260 c 0,27,28
 529 121 529 121 466.5 51 c 128,-1,29
 404 -19 404 -19 316 -19 c 0,30,31
 251 -19 251 -19 203.5 22.5 c 128,-1,32
 156 64 156 64 135 125 c 1,33,-1
 135 0 l 1,34,-1
 104 0 l 1,35,-1
 104 655 l 1,36,-1
 29 655 l 1,12,-1
EndSplineSet
EndChar

StartChar: uni0182
Encoding: 386 386 324
Width: 670
GlyphClass: 2
Flags: W
LayerCount: 2
Fore
SplineSet
158 27 m 1,0,-1
 392 27 l 2,1,2
 479 27 479 27 528.5 70.5 c 128,-1,3
 578 114 578 114 578 198 c 0,4,5
 578 281 578 281 526 326.5 c 128,-1,6
 474 372 474 372 382 372 c 2,7,-1
 158 372 l 1,8,-1
 158 27 l 1,0,-1
128 0 m 1,9,-1
 128 735 l 1,10,-1
 526 735 l 1,11,-1
 526 708 l 1,12,-1
 158 708 l 1,13,-1
 158 399 l 1,14,-1
 389 399 l 2,15,16
 491 399 491 399 550.5 343.5 c 128,-1,17
 610 288 610 288 610 196 c 0,18,19
 610 106 610 106 554.5 53 c 128,-1,20
 499 0 499 0 400 0 c 2,21,-1
 128 0 l 1,9,-1
EndSplineSet
EndChar

StartChar: uni0183
Encoding: 387 387 325
Width: 587
GlyphClass: 2
Flags: W
LayerCount: 2
Fore
SplineSet
134 260 m 0,0,1
 134 140 134 140 186.5 73 c 128,-1,2
 239 6 239 6 314 6 c 0,3,4
 397 6 397 6 449 75.5 c 128,-1,5
 501 145 501 145 501 260 c 256,6,7
 501 375 501 375 449 444 c 128,-1,8
 397 513 397 513 316 513 c 0,9,10
 242 513 242 513 188 445 c 128,-1,11
 134 377 134 377 134 260 c 0,0,1
104 0 m 1,12,-1
 104 767 l 1,13,-1
 428 767 l 1,14,-1
 428 741 l 1,15,-1
 136 741 l 1,16,-1
 136 384 l 1,17,18
 149 441 149 441 197 490 c 128,-1,19
 245 539 245 539 318 539 c 0,20,21
 415 539 415 539 472 464 c 128,-1,22
 529 389 529 389 529 260 c 0,23,24
 529 121 529 121 466.5 51 c 128,-1,25
 404 -19 404 -19 316 -19 c 0,26,27
 251 -19 251 -19 203.5 22.5 c 128,-1,28
 156 64 156 64 135 125 c 1,29,-1
 135 0 l 1,30,-1
 104 0 l 1,12,-1
EndSplineSet
EndChar

StartChar: uni0184
Encoding: 388 388 326
Width: 672
GlyphClass: 2
Flags: W
LayerCount: 2
Fore
SplineSet
58 688 m 1,0,-1
 132 735 l 1,1,-1
 159 735 l 1,2,-1
 159 393 l 1,3,-1
 392 393 l 2,4,5
 491 393 491 393 551.5 336 c 128,-1,6
 612 279 612 279 612 196 c 0,7,8
 612 114 612 114 557 57 c 128,-1,9
 502 0 502 0 402 0 c 2,10,-1
 128 0 l 1,11,-1
 128 636 l 1,12,-1
 58 688 l 1,0,-1
159 27 m 1,13,-1
 394 27 l 2,14,15
 476 27 476 27 528 73 c 128,-1,16
 580 119 580 119 580 196 c 0,17,18
 580 269 580 269 527 318 c 128,-1,19
 474 367 474 367 390 367 c 2,20,-1
 159 367 l 1,21,-1
 159 27 l 1,13,-1
EndSplineSet
EndChar

StartChar: uni0185
Encoding: 389 389 327
Width: 587
GlyphClass: 2
Flags: W
LayerCount: 2
Fore
SplineSet
36 714 m 1,0,-1
 116 767 l 1,1,-1
 136 767 l 1,2,-1
 136 383 l 1,3,4
 152 448 152 448 203.5 493.5 c 128,-1,5
 255 539 255 539 318 539 c 0,6,7
 415 539 415 539 472 464 c 128,-1,8
 529 389 529 389 529 260 c 0,9,10
 529 121 529 121 466.5 51 c 128,-1,11
 404 -19 404 -19 316 -19 c 0,12,13
 248 -19 248 -19 202.5 22 c 128,-1,14
 157 63 157 63 135 126 c 1,15,-1
 135 0 l 1,16,-1
 104 0 l 1,17,-1
 104 664 l 1,18,-1
 36 714 l 1,0,-1
134 260 m 256,19,20
 134 143 134 143 185.5 74.5 c 128,-1,21
 237 6 237 6 314 6 c 0,22,23
 397 6 397 6 449 75.5 c 128,-1,24
 501 145 501 145 501 260 c 256,25,26
 501 375 501 375 449.5 444 c 128,-1,27
 398 513 398 513 316 513 c 0,28,29
 242 513 242 513 188 445 c 128,-1,30
 134 377 134 377 134 260 c 256,19,20
EndSplineSet
EndChar

StartChar: uni0186
Encoding: 390 390 328
Width: 633
GlyphClass: 2
Flags: W
LayerCount: 2
Fore
SplineSet
37 132 m 1,0,-1
 67 143 l 1,1,2
 95 84 95 84 147 46 c 128,-1,3
 199 8 199 8 272 8 c 0,4,5
 390 8 390 8 463.5 105 c 128,-1,6
 537 202 537 202 537 368 c 0,7,8
 537 531 537 531 465 629 c 128,-1,9
 393 727 393 727 272 727 c 0,10,11
 204 727 204 727 157 689.5 c 128,-1,12
 110 652 110 652 86 599 c 1,13,-1
 58 610 l 1,14,15
 81 665 81 665 135.5 710 c 128,-1,16
 190 755 190 755 272 755 c 0,17,18
 405 755 405 755 487.5 652.5 c 128,-1,19
 570 550 570 550 570 368 c 0,20,21
 570 188 570 188 488 84.5 c 128,-1,22
 406 -19 406 -19 272 -19 c 0,23,24
 109 -19 109 -19 37 132 c 1,0,-1
EndSplineSet
EndChar

StartChar: uni018B
Encoding: 395 395 333
Width: 670
GlyphClass: 2
Flags: W
LayerCount: 2
Fore
SplineSet
91 198 m 0,0,1
 91 114 91 114 142.5 70.5 c 128,-1,2
 194 27 194 27 283 27 c 2,3,-1
 510 27 l 1,4,-1
 510 372 l 1,5,-1
 294 372 l 2,6,7
 201 372 201 372 146 326 c 128,-1,8
 91 280 91 280 91 198 c 0,0,1
59 196 m 0,9,10
 59 288 59 288 121.5 343.5 c 128,-1,11
 184 399 184 399 287 399 c 2,12,-1
 510 399 l 1,13,-1
 510 708 l 1,14,-1
 145 708 l 1,15,-1
 145 735 l 1,16,-1
 542 735 l 1,17,-1
 542 0 l 1,18,-1
 274 0 l 2,19,20
 177 0 177 0 118 53.5 c 128,-1,21
 59 107 59 107 59 196 c 0,9,10
EndSplineSet
EndChar

StartChar: uni018C
Encoding: 396 396 334
Width: 587
GlyphClass: 2
Flags: W
LayerCount: 2
Fore
SplineSet
89 260 m 256,0,1
 89 145 89 145 139 75.5 c 128,-1,2
 189 6 189 6 274 6 c 0,3,4
 349 6 349 6 401.5 73 c 128,-1,5
 454 140 454 140 454 260 c 0,6,7
 454 377 454 377 400 445 c 128,-1,8
 346 513 346 513 272 513 c 0,9,10
 191 513 191 513 140 444 c 128,-1,11
 89 375 89 375 89 260 c 256,0,1
59 260 m 0,12,13
 59 390 59 390 118 464.5 c 128,-1,14
 177 539 177 539 272 539 c 0,15,16
 341 539 341 539 389.5 493 c 128,-1,17
 438 447 438 447 454 385 c 1,18,-1
 454 741 l 1,19,-1
 159 741 l 1,20,-1
 159 767 l 1,21,-1
 484 767 l 1,22,-1
 484 0 l 1,23,-1
 454 0 l 1,24,-1
 454 126 l 1,25,26
 435 64 435 64 387 22.5 c 128,-1,27
 339 -19 339 -19 270 -19 c 0,28,29
 184 -19 184 -19 121.5 51 c 128,-1,30
 59 121 59 121 59 260 c 0,12,13
EndSplineSet
EndChar

StartChar: uni018D
Encoding: 397 397 335
Width: 624
GlyphClass: 2
Flags: W
LayerCount: 2
Fore
SplineSet
89 317 m 0,0,1
 89 272 89 272 109.5 232.5 c 128,-1,2
 130 193 130 193 166.5 163 c 128,-1,3
 203 133 203 133 236 113.5 c 128,-1,4
 269 94 269 94 314 73 c 1,5,6
 410 112 410 112 472 180 c 128,-1,7
 534 248 534 248 534 319 c 0,8,9
 534 398 534 398 478 455.5 c 128,-1,10
 422 513 422 513 317 513 c 0,11,12
 219 513 219 513 154 461 c 128,-1,13
 89 409 89 409 89 317 c 0,0,1
59 314 m 0,14,15
 59 418 59 418 130 478.5 c 128,-1,16
 201 539 201 539 317 539 c 0,17,18
 431 539 431 539 499 476.5 c 128,-1,19
 567 414 567 414 567 320 c 0,20,21
 567 247 567 247 506 174.5 c 128,-1,22
 445 102 445 102 343 57 c 1,23,24
 415 19 415 19 453.5 -19.5 c 128,-1,25
 492 -58 492 -58 492 -104 c 0,26,27
 492 -164 492 -164 442 -205 c 128,-1,28
 392 -246 392 -246 308 -246 c 0,29,30
 180 -246 180 -246 105 -141 c 1,31,-1
 129 -126 l 1,32,33
 195 -220 195 -220 308 -220 c 0,34,35
 371 -220 371 -220 416.5 -188 c 128,-1,36
 462 -156 462 -156 462 -104 c 0,37,38
 462 -57 462 -57 412 -18.5 c 128,-1,39
 362 20 362 20 267 65 c 0,40,41
 59 165 59 165 59 314 c 0,14,15
EndSplineSet
EndChar

StartChar: uni018E
Encoding: 398 398 336
Width: 623
GlyphClass: 2
Flags: W
LayerCount: 2
Fore
SplineSet
44 0 m 1,0,-1
 44 27 l 1,1,-1
 464 27 l 1,2,-1
 464 368 l 1,3,-1
 96 368 l 1,4,-1
 96 395 l 1,5,-1
 464 395 l 1,6,-1
 464 708 l 1,7,-1
 59 708 l 1,8,-1
 59 735 l 1,9,-1
 496 735 l 1,10,-1
 496 0 l 1,11,-1
 44 0 l 1,0,-1
EndSplineSet
EndChar

StartChar: uni018F
Encoding: 399 399 337
Width: 689
GlyphClass: 2
Flags: W
LayerCount: 2
Fore
SplineSet
63 321 m 0,0,1
 63 334 63 334 63.5 352 c 128,-1,2
 64 370 64 370 64 375 c 1,3,-1
 594 375 l 1,4,5
 593 450 593 450 578 511.5 c 128,-1,6
 563 573 563 573 533 622.5 c 128,-1,7
 503 672 503 672 451.5 699.5 c 128,-1,8
 400 727 400 727 330 727 c 0,9,10
 184 727 184 727 115 599 c 1,11,-1
 88 610 l 1,12,13
 120 675 120 675 182 715 c 128,-1,14
 244 755 244 755 330 755 c 0,15,16
 432 755 432 755 500 702.5 c 128,-1,17
 568 650 568 650 597 565 c 128,-1,18
 626 480 626 480 626 365 c 0,19,20
 626 173 626 173 544 77 c 128,-1,21
 462 -19 462 -19 335 -19 c 0,22,23
 273 -19 273 -19 225 2 c 128,-1,24
 177 23 177 23 147 56.5 c 128,-1,25
 117 90 117 90 98 136 c 128,-1,26
 79 182 79 182 71 227 c 128,-1,27
 63 272 63 272 63 321 c 0,0,1
96 347 m 1,28,29
 96 341 96 341 96.5 331.5 c 128,-1,30
 97 322 97 322 97 318 c 0,31,32
 97 274 97 274 102.5 234.5 c 128,-1,33
 108 195 108 195 124 152.5 c 128,-1,34
 140 110 140 110 165.5 79.5 c 128,-1,35
 191 49 191 49 235 28.5 c 128,-1,36
 279 8 279 8 336 8 c 0,37,38
 379 8 379 8 421 25 c 128,-1,39
 463 42 463 42 503.5 78 c 128,-1,40
 544 114 544 114 569.5 184 c 128,-1,41
 595 254 595 254 595 347 c 1,42,-1
 96 347 l 1,28,29
EndSplineSet
EndChar

StartChar: uni0190
Encoding: 400 400 338
Width: 600
GlyphClass: 2
Flags: W
LayerCount: 2
Fore
SplineSet
63 199 m 0,0,1
 63 282 63 282 117.5 331 c 128,-1,2
 172 380 172 380 240 394 c 1,3,4
 183 410 183 410 138.5 456 c 128,-1,5
 94 502 94 502 94 575 c 0,6,7
 94 650 94 650 152.5 702.5 c 128,-1,8
 211 755 211 755 315 755 c 0,9,10
 460 755 460 755 532 623 c 1,11,-1
 504 611 l 1,12,13
 441 728 441 728 315 728 c 0,14,15
 233 728 233 728 179 684.5 c 128,-1,16
 125 641 125 641 125 574 c 0,17,18
 125 496 125 496 184.5 450 c 128,-1,19
 244 404 244 404 329 404 c 0,20,21
 368 404 368 404 376 405 c 1,22,-1
 376 377 l 1,23,24
 366 378 366 378 324 378 c 0,25,26
 268 378 268 378 218 361 c 128,-1,27
 168 344 168 344 131.5 301.5 c 128,-1,28
 95 259 95 259 95 199 c 0,29,30
 95 105 95 105 162 56 c 128,-1,31
 229 7 229 7 319 7 c 0,32,33
 379 7 379 7 437 37 c 128,-1,34
 495 67 495 67 527 114 c 1,35,-1
 553 101 l 1,36,37
 520 49 520 49 455.5 15 c 128,-1,38
 391 -19 391 -19 319 -19 c 0,39,40
 213 -19 213 -19 138 38 c 128,-1,41
 63 95 63 95 63 199 c 0,0,1
EndSplineSet
EndChar

StartChar: uni0191
Encoding: 401 401 339
Width: 594
GlyphClass: 2
Flags: W
LayerCount: 2
Fore
SplineSet
-24 -218 m 1,0,1
 14 -221 14 -221 24 -221 c 0,2,3
 82 -221 82 -221 105 -183.5 c 128,-1,4
 128 -146 128 -146 128 -69 c 2,5,-1
 128 735 l 1,6,-1
 547 735 l 1,7,-1
 547 708 l 1,8,-1
 158 708 l 1,9,-1
 158 385 l 1,10,-1
 508 385 l 1,11,-1
 508 359 l 1,12,-1
 158 359 l 1,13,-1
 158 -69 l 2,14,15
 158 -161 158 -161 127 -204.5 c 128,-1,16
 96 -248 96 -248 27 -248 c 0,17,18
 7 -248 7 -248 -24 -244 c 1,19,-1
 -24 -218 l 1,0,1
EndSplineSet
EndChar

StartChar: florin
Encoding: 402 402 340
Width: 326
GlyphClass: 2
Flags: W
LayerCount: 2
Fore
SplineSet
-29 -218 m 1,0,1
 -4 -221 -4 -221 18 -221 c 0,2,3
 130 -221 130 -221 130 -57 c 2,4,-1
 130 494 l 1,5,-1
 28 494 l 1,6,-1
 28 520 l 1,7,-1
 130 520 l 1,8,-1
 130 625 l 2,9,10
 130 699 130 699 167 733 c 128,-1,11
 204 767 204 767 265 767 c 2,12,-1
 310 767 l 1,13,-1
 310 741 l 1,14,-1
 267 741 l 2,15,16
 160 741 160 741 160 619 c 2,17,-1
 160 520 l 1,18,-1
 295 520 l 1,19,-1
 295 494 l 1,20,-1
 160 494 l 1,21,-1
 160 -60 l 2,22,23
 160 -248 160 -248 21 -248 c 0,24,25
 9 -248 9 -248 -8 -246 c 128,-1,26
 -25 -244 -25 -244 -29 -244 c 1,27,-1
 -29 -218 l 1,0,1
EndSplineSet
EndChar

StartChar: uni0194
Encoding: 404 404 342
Width: 580
GlyphClass: 2
Flags: W
LayerCount: 2
Fore
SplineSet
-3 735 m 1,0,-1
 33 735 l 1,1,-1
 282 135 l 1,2,-1
 293 105 l 1,3,-1
 294 105 l 1,4,-1
 304 135 l 1,5,-1
 550 735 l 1,6,-1
 584 735 l 1,7,-1
 318 85 l 1,8,9
 367 20 367 20 390 -23.5 c 128,-1,10
 413 -67 413 -67 413 -116 c 0,11,12
 413 -170 413 -170 380 -209 c 128,-1,13
 347 -248 347 -248 294 -248 c 0,14,15
 242 -248 242 -248 209 -212.5 c 128,-1,16
 176 -177 176 -177 176 -116 c 0,17,18
 176 -40 176 -40 267 85 c 1,19,-1
 -3 735 l 1,0,-1
208 -115 m 0,20,21
 208 -161 208 -161 232 -191 c 128,-1,22
 256 -221 256 -221 294 -221 c 0,23,24
 334 -221 334 -221 358 -189 c 128,-1,25
 382 -157 382 -157 382 -115 c 0,26,27
 382 -72 382 -72 359.5 -31.5 c 128,-1,28
 337 9 337 9 293 62 c 1,29,30
 208 -44 208 -44 208 -115 c 0,20,21
EndSplineSet
EndChar

StartChar: uni0195
Encoding: 405 405 343
Width: 925
GlyphClass: 2
Flags: W
LayerCount: 2
Fore
SplineSet
104 0 m 1,0,-1
 104 767 l 1,1,-1
 136 767 l 1,2,-1
 136 411 l 1,3,4
 156 461 156 461 207.5 500 c 128,-1,5
 259 539 259 539 326 539 c 0,6,7
 357 539 357 539 382.5 531 c 128,-1,8
 408 523 408 523 434.5 503 c 128,-1,9
 461 483 461 483 476.5 441 c 128,-1,10
 492 399 492 399 492 338 c 2,11,-1
 492 154 l 2,12,13
 492 85 492 85 529.5 45.5 c 128,-1,14
 567 6 567 6 640 6 c 0,15,16
 800 6 800 6 800 161 c 2,17,-1
 800 520 l 1,18,-1
 831 520 l 1,19,-1
 831 161 l 2,20,21
 831 -19 831 -19 640 -19 c 0,22,23
 565 -19 565 -19 513.5 21 c 128,-1,24
 462 61 462 61 462 149 c 2,25,-1
 462 329 l 2,26,27
 462 513 462 513 320 513 c 0,28,29
 248 513 248 513 192 454.5 c 128,-1,30
 136 396 136 396 136 320 c 0,31,32
 136 318 136 318 136 317 c 2,33,-1
 136 0 l 1,34,-1
 104 0 l 1,0,-1
EndSplineSet
EndChar

StartChar: uni0196
Encoding: 406 406 344
Width: 331
GlyphClass: 2
Flags: W
LayerCount: 2
Fore
SplineSet
120 154 m 2,0,-1
 120 735 l 1,1,-1
 151 735 l 1,2,-1
 151 155 l 2,3,4
 151 8 151 8 248 8 c 0,5,6
 290 8 290 8 315 11 c 1,7,-1
 315 -16 l 1,8,9
 289 -19 289 -19 246 -19 c 0,10,11
 182 -19 182 -19 151 22.5 c 128,-1,12
 120 64 120 64 120 154 c 2,0,-1
EndSplineSet
EndChar

StartChar: uni0197
Encoding: 407 407 345
Width: 286
GlyphClass: 2
Flags: W
LayerCount: 2
Fore
SplineSet
44 366 m 1,0,-1
 44 391 l 1,1,-1
 128 391 l 1,2,-1
 128 735 l 1,3,-1
 158 735 l 1,4,-1
 158 391 l 1,5,-1
 243 391 l 1,6,-1
 243 366 l 1,7,-1
 158 366 l 1,8,-1
 158 0 l 1,9,-1
 128 0 l 1,10,-1
 128 366 l 1,11,-1
 44 366 l 1,0,-1
EndSplineSet
EndChar

StartChar: uni0198
Encoding: 408 408 346
Width: 633
GlyphClass: 2
Flags: W
LayerCount: 2
Fore
SplineSet
128 0 m 1,0,-1
 128 735 l 1,1,-1
 158 735 l 1,2,-1
 158 281 l 1,3,-1
 160 281 l 1,4,-1
 533 711 l 2,5,6
 571 755 571 755 632 755 c 0,7,8
 657 755 657 755 681 750 c 1,9,-1
 681 723 l 1,10,11
 657 728 657 728 633 728 c 0,12,13
 593 728 593 728 563 695 c 2,14,-1
 325 421 l 1,15,-1
 625 0 l 1,16,-1
 583 0 l 1,17,-1
 303 397 l 1,18,-1
 158 233 l 1,19,-1
 158 0 l 1,20,-1
 128 0 l 1,0,-1
EndSplineSet
EndChar

StartChar: uni0199
Encoding: 409 409 347
Width: 494
GlyphClass: 2
Flags: W
LayerCount: 2
Fore
SplineSet
105 0 m 1,0,-1
 105 624 l 2,1,2
 105 692 105 692 144 731.5 c 128,-1,3
 183 771 183 771 255 771 c 0,4,5
 259 771 259 771 306 768 c 1,6,-1
 306 742 l 1,7,8
 281 745 281 745 259 745 c 0,9,10
 203 745 203 745 169.5 714.5 c 128,-1,11
 136 684 136 684 136 622 c 2,12,-1
 136 200 l 1,13,-1
 422 520 l 1,14,-1
 463 520 l 1,15,-1
 281 316 l 1,16,-1
 491 0 l 1,17,-1
 453 0 l 1,18,-1
 259 292 l 1,19,-1
 136 157 l 1,20,-1
 136 0 l 1,21,-1
 105 0 l 1,0,-1
EndSplineSet
EndChar

StartChar: uni019A
Encoding: 410 410 348
Width: 245
GlyphClass: 2
Flags: W
LayerCount: 2
Fore
SplineSet
22 370 m 1,0,-1
 22 396 l 1,1,-1
 107 396 l 1,2,-1
 107 767 l 1,3,-1
 138 767 l 1,4,-1
 138 396 l 1,5,-1
 225 396 l 1,6,-1
 225 370 l 1,7,-1
 138 370 l 1,8,-1
 138 0 l 1,9,-1
 107 0 l 1,10,-1
 107 370 l 1,11,-1
 22 370 l 1,0,-1
EndSplineSet
EndChar

StartChar: uni019B
Encoding: 411 411 349
Width: 466
GlyphClass: 2
Flags: W
LayerCount: 2
Fore
SplineSet
14 0 m 1,0,-1
 218 548 l 1,1,-1
 194 616 l 1,2,-1
 62 523 l 1,3,-1
 47 545 l 1,4,-1
 185 640 l 1,5,6
 141 740 141 740 83 740 c 2,7,-1
 64 740 l 1,8,-1
 64 766 l 1,9,-1
 89 766 l 2,10,11
 158 766 158 766 209 656 c 1,12,-1
 312 730 l 1,13,-1
 329 709 l 1,14,-1
 219 633 l 1,15,-1
 451 0 l 1,16,-1
 416 0 l 1,17,-1
 283 374 l 2,18,19
 260 435 260 435 235 507 c 1,20,-1
 233 507 l 1,21,22
 213 440 213 440 187 377 c 2,23,-1
 49 0 l 1,24,-1
 14 0 l 1,0,-1
EndSplineSet
EndChar

StartChar: uni019C
Encoding: 412 412 350
Width: 962
GlyphClass: 2
Flags: W
LayerCount: 2
Fore
SplineSet
128 185 m 2,0,-1
 128 735 l 1,1,-1
 158 735 l 1,2,-1
 158 192 l 2,3,4
 158 104 158 104 187 55.5 c 128,-1,5
 216 7 216 7 289 7 c 0,6,7
 359 7 359 7 412.5 64.5 c 128,-1,8
 466 122 466 122 466 211 c 2,9,-1
 466 735 l 1,10,-1
 497 735 l 1,11,-1
 497 193 l 2,12,13
 497 112 497 112 528.5 59.5 c 128,-1,14
 560 7 560 7 632 7 c 256,15,16
 704 7 704 7 754.5 63.5 c 128,-1,17
 805 120 805 120 805 204 c 2,18,-1
 805 735 l 1,19,-1
 836 735 l 1,20,-1
 836 0 l 1,21,-1
 805 0 l 1,22,-1
 805 97 l 1,23,-1
 804 97 l 1,24,25
 781 41 781 41 732.5 11 c 128,-1,26
 684 -19 684 -19 626 -19 c 0,27,28
 557 -19 557 -19 519.5 23 c 128,-1,29
 482 65 482 65 474 123 c 1,30,31
 470 84 470 84 418.5 32.5 c 128,-1,32
 367 -19 367 -19 282 -19 c 0,33,34
 128 -19 128 -19 128 185 c 2,0,-1
EndSplineSet
EndChar

StartChar: uni019D
Encoding: 413 413 351
Width: 762
GlyphClass: 2
Flags: W
LayerCount: 2
Fore
SplineSet
128 735 m 1,0,-1
 166 735 l 1,1,-1
 526 166 l 1,2,-1
 606 43 l 1,3,-1
 609 43 l 1,4,5
 604 115 604 115 604 217 c 2,6,-1
 604 735 l 1,7,-1
 636 735 l 1,8,-1
 636 0 l 1,9,-1
 597 0 l 1,10,-1
 158 692 l 1,11,-1
 155 692 l 1,12,13
 159 606 159 606 159 498 c 2,14,-1
 159 -34 l 2,15,16
 159 -141 159 -141 128.5 -194.5 c 128,-1,17
 98 -248 98 -248 17 -248 c 0,18,19
 7 -248 7 -248 -11 -245 c 1,20,-1
 -11 -219 l 1,21,22
 5 -221 5 -221 15 -221 c 0,23,24
 45 -221 45 -221 66 -211.5 c 128,-1,25
 87 -202 87 -202 99 -186 c 128,-1,26
 111 -170 111 -170 118 -143.5 c 128,-1,27
 125 -117 125 -117 126.5 -93 c 128,-1,28
 128 -69 128 -69 128 -32 c 2,29,-1
 128 735 l 1,0,-1
EndSplineSet
EndChar

StartChar: uni019E
Encoding: 414 414 352
Width: 590
GlyphClass: 2
Flags: W
LayerCount: 2
Fore
SplineSet
100 0 m 1,0,-1
 100 520 l 1,1,-1
 129 520 l 1,2,-1
 129 409 l 1,3,-1
 131 409 l 1,4,5
 149 458 149 458 200.5 498.5 c 128,-1,6
 252 539 252 539 321 539 c 0,7,8
 351 539 351 539 376.5 531 c 128,-1,9
 402 523 402 523 428.5 502.5 c 128,-1,10
 455 482 455 482 471 440 c 128,-1,11
 487 398 487 398 487 338 c 2,12,-1
 487 -244 l 1,13,-1
 455 -244 l 1,14,-1
 455 329 l 2,15,16
 455 513 455 513 316 513 c 0,17,18
 244 513 244 513 187 455.5 c 128,-1,19
 130 398 130 398 130 323 c 0,20,21
 130 321 130 321 130 320 c 2,22,-1
 130 0 l 1,23,-1
 100 0 l 1,0,-1
EndSplineSet
EndChar

StartChar: uni019F
Encoding: 415 415 353
Width: 701
GlyphClass: 2
Flags: W
LayerCount: 2
Fore
SplineSet
64 368 m 256,0,1
 64 543 64 543 141 649 c 128,-1,2
 218 755 218 755 351 755 c 256,3,4
 484 755 484 755 560.5 648.5 c 128,-1,5
 637 542 637 542 637 367 c 0,6,7
 637 193 637 193 560.5 87 c 128,-1,8
 484 -19 484 -19 351 -19 c 0,9,10
 217 -19 217 -19 140.5 87 c 128,-1,11
 64 193 64 193 64 368 c 256,0,1
606 355 m 1,12,-1
 97 355 l 1,13,14
 100 200 100 200 167 104 c 128,-1,15
 234 8 234 8 351 8 c 256,16,17
 468 8 468 8 535.5 103 c 128,-1,18
 603 198 603 198 606 355 c 1,12,-1
97 380 m 1,19,-1
 606 380 l 1,20,21
 603 540 603 540 534.5 633.5 c 128,-1,22
 466 727 466 727 351 727 c 0,23,24
 237 727 237 727 168 633.5 c 128,-1,25
 99 540 99 540 97 380 c 1,19,-1
EndSplineSet
EndChar

StartChar: uni01A2
Encoding: 418 418 356
Width: 1007
GlyphClass: 2
Flags: W
LayerCount: 2
Fore
SplineSet
64 360 m 0,0,1
 64 546 64 546 150 650.5 c 128,-1,2
 236 755 236 755 357 755 c 0,3,4
 419 755 419 755 507 734.5 c 128,-1,5
 595 714 595 714 688 714 c 0,6,7
 742 714 742 714 880 735 c 1,8,-1
 880 0 l 1,9,-1
 848 0 l 1,10,-1
 848 705 l 1,11,12
 750 689 750 689 687 689 c 0,13,14
 601 689 601 689 532 701 c 1,15,-1
 532 46 l 1,16,17
 461 -19 461 -19 357 -19 c 0,18,19
 235 -19 235 -19 149.5 85.5 c 128,-1,20
 64 190 64 190 64 360 c 0,0,1
97 360 m 0,21,22
 97 198 97 198 176 103 c 128,-1,23
 255 8 255 8 357 8 c 0,24,25
 395 8 395 8 427.5 17.5 c 128,-1,26
 460 27 460 27 470.5 34 c 128,-1,27
 481 41 481 41 502 56 c 1,28,-1
 502 707 l 1,29,30
 495 709 495 709 480 713 c 128,-1,31
 465 717 465 717 456.5 718.5 c 128,-1,32
 448 720 448 720 433 723 c 128,-1,33
 418 726 418 726 400 727 c 128,-1,34
 382 728 382 728 357 728 c 0,35,36
 312 728 312 728 268 706.5 c 128,-1,37
 224 685 224 685 184.5 643 c 128,-1,38
 145 601 145 601 121 527 c 128,-1,39
 97 453 97 453 97 360 c 0,21,22
EndSplineSet
EndChar

StartChar: uni01A3
Encoding: 419 419 357
Width: 848
GlyphClass: 2
Flags: W
LayerCount: 2
Fore
SplineSet
59 259 m 0,0,1
 59 394 59 394 123 466.5 c 128,-1,2
 187 539 187 539 291 539 c 0,3,4
 342 539 342 539 425.5 524 c 128,-1,5
 509 509 509 509 596 509 c 0,6,7
 670 509 670 509 750 523 c 1,8,-1
 750 0 l 1,9,-1
 720 0 l 1,10,-1
 720 495 l 1,11,12
 640 483 640 483 596 483 c 0,13,14
 508 483 508 483 477 489 c 1,15,-1
 477 86 l 1,16,17
 414 -19 414 -19 291 -19 c 0,18,19
 193 -19 193 -19 126 51.5 c 128,-1,20
 59 122 59 122 59 259 c 0,0,1
89 259 m 0,21,22
 89 146 89 146 144.5 76 c 128,-1,23
 200 6 200 6 291 6 c 0,24,25
 393 6 393 6 447 97 c 1,26,-1
 447 493 l 1,27,28
 350 513 350 513 291 513 c 0,29,30
 190 513 190 513 139.5 440 c 128,-1,31
 89 367 89 367 89 259 c 0,21,22
EndSplineSet
EndChar

StartChar: uni01A5
Encoding: 421 421 359
Width: 587
GlyphClass: 2
Flags: W
LayerCount: 2
Fore
SplineSet
134 262 m 0,0,1
 134 148 134 148 185 77 c 128,-1,2
 236 6 236 6 315 6 c 0,3,4
 396 6 396 6 448.5 74 c 128,-1,5
 501 142 501 142 501 260 c 0,6,7
 501 370 501 370 451.5 441.5 c 128,-1,8
 402 513 402 513 315 513 c 0,9,10
 239 513 239 513 186.5 442.5 c 128,-1,11
 134 372 134 372 134 262 c 0,0,1
104 -244 m 1,12,-1
 104 622 l 2,13,14
 104 701 104 701 147.5 734.5 c 128,-1,15
 191 768 191 768 248 768 c 0,16,17
 255 768 255 768 308 765 c 1,18,-1
 308 739 l 1,19,20
 281 742 281 742 252 742 c 0,21,22
 190 742 190 742 162.5 705 c 128,-1,23
 135 668 135 668 135 619 c 2,24,-1
 135 388 l 1,25,26
 155 454 155 454 204 496.5 c 128,-1,27
 253 539 253 539 318 539 c 0,28,29
 415 539 415 539 472 463 c 128,-1,30
 529 387 529 387 529 260 c 0,31,32
 529 126 529 126 469 53.5 c 128,-1,33
 409 -19 409 -19 316 -19 c 0,34,35
 250 -19 250 -19 204 22.5 c 128,-1,36
 158 64 158 64 136 129 c 1,37,-1
 136 -244 l 1,38,-1
 104 -244 l 1,12,-1
EndSplineSet
EndChar

StartChar: uni01A6
Encoding: 422 422 360
Width: 597
GlyphClass: 2
Flags: W
LayerCount: 2
Fore
SplineSet
137 274 m 1,0,-1
 306 274 l 2,1,2
 341 274 341 274 371 281.5 c 128,-1,3
 401 289 401 289 429.5 305 c 128,-1,4
 458 321 458 321 474.5 353.5 c 128,-1,5
 491 386 491 386 491 431 c 0,6,7
 491 498 491 498 448 539 c 128,-1,8
 405 580 405 580 310 580 c 2,9,-1
 137 580 l 1,10,-1
 137 274 l 1,0,-1
105 0 m 1,11,-1
 105 735 l 1,12,-1
 137 735 l 1,13,-1
 137 606 l 1,14,-1
 321 606 l 2,15,16
 423 606 423 606 472 557 c 128,-1,17
 521 508 521 508 521 432 c 0,18,19
 521 388 521 388 505 353.5 c 128,-1,20
 489 319 489 319 468.5 302 c 128,-1,21
 448 285 448 285 419 273 c 128,-1,22
 390 261 390 261 374.5 258 c 128,-1,23
 359 255 359 255 342 254 c 1,24,25
 383 239 383 239 406 208 c 128,-1,26
 429 177 429 177 450 124 c 0,27,28
 456 107 456 107 467 77.5 c 128,-1,29
 478 48 478 48 484.5 33 c 128,-1,30
 491 18 491 18 499.5 -3.5 c 128,-1,31
 508 -25 508 -25 516.5 -42.5 c 128,-1,32
 525 -60 525 -60 534 -78 c 1,33,-1
 498 -78 l 1,34,35
 480 -42 480 -42 454 26.5 c 128,-1,36
 428 95 428 95 411 135 c 0,37,38
 387 190 387 190 351.5 218.5 c 128,-1,39
 316 247 316 247 257 247 c 2,40,-1
 137 247 l 1,41,-1
 137 0 l 1,42,-1
 105 0 l 1,11,-1
EndSplineSet
EndChar

StartChar: uni01A7
Encoding: 423 423 361
Width: 614
GlyphClass: 2
Flags: W
LayerCount: 2
Fore
SplineSet
59 184 m 0,0,1
 59 221 59 221 73 251.5 c 128,-1,2
 87 282 87 282 106 300.5 c 128,-1,3
 125 319 125 319 160.5 338 c 128,-1,4
 196 357 196 357 220 365.5 c 128,-1,5
 244 374 244 374 290 390 c 0,6,7
 341 406 341 406 371.5 418.5 c 128,-1,8
 402 431 402 431 438 453 c 128,-1,9
 474 475 474 475 491 504.5 c 128,-1,10
 508 534 508 534 508 573 c 0,11,12
 508 644 508 644 455.5 685.5 c 128,-1,13
 403 727 403 727 310 727 c 0,14,15
 181 727 181 727 112 626 c 1,16,-1
 83 637 l 1,17,18
 113 685 113 685 172.5 720 c 128,-1,19
 232 755 232 755 307 755 c 0,20,21
 416 755 416 755 478.5 706 c 128,-1,22
 541 657 541 657 541 573 c 0,23,24
 541 527 541 527 522 492.5 c 128,-1,25
 503 458 503 458 464 434 c 128,-1,26
 425 410 425 410 392.5 396.5 c 128,-1,27
 360 383 360 383 305 365 c 0,28,29
 262 351 262 351 239.5 343 c 128,-1,30
 217 335 217 335 184 318 c 128,-1,31
 151 301 151 301 133.5 284.5 c 128,-1,32
 116 268 116 268 103 241.5 c 128,-1,33
 90 215 90 215 90 183 c 0,34,35
 90 101 90 101 150 54.5 c 128,-1,36
 210 8 210 8 304 8 c 0,37,38
 373 8 373 8 433 41.5 c 128,-1,39
 493 75 493 75 526 127 c 1,40,-1
 555 112 l 1,41,42
 516 53 516 53 452.5 17 c 128,-1,43
 389 -19 389 -19 306 -19 c 0,44,45
 188 -19 188 -19 123.5 34.5 c 128,-1,46
 59 88 59 88 59 184 c 0,0,1
EndSplineSet
EndChar

StartChar: uni01A8
Encoding: 424 424 362
Width: 488
GlyphClass: 2
Flags: W
LayerCount: 2
Fore
SplineSet
50 120 m 0,0,1
 50 147 50 147 62.5 170 c 128,-1,2
 75 193 75 193 92 207.5 c 128,-1,3
 109 222 109 222 138.5 236 c 128,-1,4
 168 250 168 250 189.5 257 c 128,-1,5
 211 264 211 264 245 273 c 0,6,7
 315 293 315 293 355 320.5 c 128,-1,8
 395 348 395 348 395 401 c 0,9,10
 395 450 395 450 352.5 481.5 c 128,-1,11
 310 513 310 513 241 513 c 0,12,13
 191 513 191 513 151 488.5 c 128,-1,14
 111 464 111 464 88 424 c 1,15,-1
 64 438 l 1,16,17
 88 481 88 481 135 510 c 128,-1,18
 182 539 182 539 241 539 c 0,19,20
 320 539 320 539 372.5 503 c 128,-1,21
 425 467 425 467 425 401 c 0,22,23
 425 367 425 367 411.5 341.5 c 128,-1,24
 398 316 398 316 370 299 c 128,-1,25
 342 282 342 282 319.5 273 c 128,-1,26
 297 264 297 264 258 252 c 0,27,28
 226 242 226 242 215 238.5 c 128,-1,29
 204 235 204 235 176 225 c 128,-1,30
 148 215 148 215 136.5 207 c 128,-1,31
 125 199 125 199 109 185.5 c 128,-1,32
 93 172 93 172 86.5 155.5 c 128,-1,33
 80 139 80 139 80 120 c 0,34,35
 80 70 80 70 124 38 c 128,-1,36
 168 6 168 6 241 6 c 0,37,38
 295 6 295 6 340.5 31 c 128,-1,39
 386 56 386 56 413 99 c 1,40,-1
 437 85 l 1,41,42
 374 -19 374 -19 241 -19 c 0,43,44
 149 -19 149 -19 99.5 21 c 128,-1,45
 50 61 50 61 50 120 c 0,0,1
EndSplineSet
EndChar

StartChar: uni01A9
Encoding: 425 425 363
Width: 615
GlyphClass: 2
Flags: W
LayerCount: 2
Fore
SplineSet
100 0 m 1,0,-1
 100 25 l 1,1,-1
 387 367 l 1,2,-1
 100 710 l 1,3,-1
 100 735 l 1,4,-1
 523 735 l 1,5,-1
 523 708 l 1,6,-1
 139 708 l 1,7,-1
 425 367 l 1,8,-1
 139 27 l 1,9,-1
 529 27 l 1,10,-1
 529 0 l 1,11,-1
 100 0 l 1,0,-1
EndSplineSet
EndChar

StartChar: uni01AA
Encoding: 426 426 364
Width: 428
GlyphClass: 2
Flags: W
LayerCount: 2
Fore
SplineSet
-2 626 m 0,0,1
 -2 581 -2 581 30 554 c 128,-1,2
 62 527 62 527 110 527 c 0,3,4
 188 527 188 527 239 573 c 1,5,6
 239 598 239 598 234.5 621.5 c 128,-1,7
 230 645 230 645 217.5 671 c 128,-1,8
 205 697 205 697 178 712.5 c 128,-1,9
 151 728 151 728 112 728 c 0,10,11
 64 728 64 728 31 700.5 c 128,-1,12
 -2 673 -2 673 -2 626 c 0,0,1
-32 626 m 0,13,14
 -32 687 -32 687 9.5 721 c 128,-1,15
 51 755 51 755 111 755 c 0,16,17
 190 755 190 755 229.5 703 c 128,-1,18
 269 651 269 651 269 568 c 2,19,-1
 269 -102 l 2,20,21
 269 -162 269 -162 291.5 -191.5 c 128,-1,22
 314 -221 314 -221 372 -221 c 0,23,24
 375 -221 375 -221 413 -218 c 1,25,-1
 413 -245 l 1,26,27
 375 -248 375 -248 369 -248 c 0,28,29
 238 -248 238 -248 238 -102 c 2,30,-1
 238 541 l 1,31,32
 193 502 193 502 107 502 c 0,33,34
 50 502 50 502 9 536.5 c 128,-1,35
 -32 571 -32 571 -32 626 c 0,13,14
EndSplineSet
EndChar

StartChar: uni01AB
Encoding: 427 427 365
Width: 383
GlyphClass: 2
Flags: W
LayerCount: 2
Fore
SplineSet
30 494 m 1,0,-1
 30 520 l 1,1,-1
 133 520 l 1,2,-1
 133 701 l 1,3,-1
 165 701 l 1,4,-1
 165 520 l 1,5,-1
 293 520 l 1,6,-1
 293 494 l 1,7,-1
 165 494 l 1,8,-1
 165 137 l 2,9,10
 165 78 165 78 188 52 c 128,-1,11
 211 26 211 26 263 26 c 0,12,13
 318 26 318 26 339 30 c 1,14,-1
 339 -59 l 2,15,16
 339 -159 339 -159 306 -203.5 c 128,-1,17
 273 -248 273 -248 201 -248 c 0,18,19
 195 -248 195 -248 188.5 -247.5 c 128,-1,20
 182 -247 182 -247 174.5 -245.5 c 128,-1,21
 167 -244 167 -244 164 -244 c 1,22,-1
 164 -218 l 1,23,24
 195 -221 195 -221 200 -221 c 0,25,26
 260 -221 260 -221 285 -186.5 c 128,-1,27
 310 -152 310 -152 310 -59 c 2,28,-1
 310 1 l 1,29,30
 300 0 300 0 255 0 c 0,31,32
 192 2 192 2 162.5 33 c 128,-1,33
 133 64 133 64 133 131 c 2,34,-1
 133 494 l 1,35,-1
 30 494 l 1,0,-1
EndSplineSet
EndChar

StartChar: uni01AC
Encoding: 428 428 366
Width: 554
GlyphClass: 2
Flags: W
LayerCount: 2
Fore
SplineSet
-5 630 m 0,0,1
 -5 682 -5 682 32.5 708.5 c 128,-1,2
 70 735 70 735 157 735 c 2,3,-1
 533 735 l 1,4,-1
 533 708 l 1,5,-1
 297 708 l 1,6,-1
 297 0 l 1,7,-1
 266 0 l 1,8,-1
 266 708 l 1,9,-1
 159 708 l 2,10,11
 90 708 90 708 58 690.5 c 128,-1,12
 26 673 26 673 26 628 c 0,13,14
 26 622 26 622 28 607 c 1,15,-1
 -1 607 l 1,16,17
 -1 609 -1 609 -3 617 c 128,-1,18
 -5 625 -5 625 -5 630 c 0,0,1
EndSplineSet
EndChar

StartChar: uni01AD
Encoding: 429 429 367
Width: 344
GlyphClass: 2
Flags: W
LayerCount: 2
Fore
SplineSet
30 493 m 1,0,-1
 30 520 l 1,1,-1
 133 520 l 1,2,-1
 133 611 l 2,3,4
 133 680 133 680 172.5 719.5 c 128,-1,5
 212 759 212 759 284 759 c 0,6,7
 287 759 287 759 334 756 c 1,8,-1
 334 729 l 1,9,10
 309 732 309 732 286 732 c 0,11,12
 231 732 231 732 198 701.5 c 128,-1,13
 165 671 165 671 165 609 c 2,14,-1
 165 520 l 1,15,-1
 293 520 l 1,16,-1
 293 493 l 1,17,-1
 165 493 l 1,18,-1
 165 137 l 2,19,20
 165 78 165 78 188 52 c 128,-1,21
 211 26 211 26 263 26 c 2,22,-1
 294 26 l 1,23,-1
 294 0 l 1,24,-1
 259 0 l 2,25,26
 133 0 133 0 133 131 c 2,27,-1
 133 493 l 1,28,-1
 30 493 l 1,0,-1
EndSplineSet
EndChar

StartChar: uni01AE
Encoding: 430 430 368
Width: 547
GlyphClass: 2
Flags: W
LayerCount: 2
Fore
SplineSet
23 708 m 1,0,-1
 23 735 l 1,1,-1
 526 735 l 1,2,-1
 526 708 l 1,3,-1
 287 708 l 1,4,-1
 287 -105 l 2,5,6
 287 -167 287 -167 308.5 -194 c 128,-1,7
 330 -221 330 -221 387 -221 c 0,8,9
 408 -221 408 -221 432 -217 c 1,10,-1
 432 -244 l 1,11,12
 403 -248 403 -248 385 -248 c 0,13,14
 317 -248 317 -248 286.5 -215.5 c 128,-1,15
 256 -183 256 -183 256 -104 c 2,16,-1
 256 708 l 1,17,-1
 23 708 l 1,0,-1
EndSplineSet
EndChar

StartChar: uni01B1
Encoding: 433 433 371
Width: 764
GlyphClass: 2
Flags: W
LayerCount: 2
Fore
SplineSet
64 299 m 0,0,1
 64 518 64 518 291 600 c 1,2,-1
 291 708 l 1,3,-1
 69 708 l 1,4,-1
 69 735 l 1,5,-1
 319 735 l 1,6,-1
 319 581 l 1,7,8
 211 549 211 549 154 474 c 128,-1,9
 97 399 97 399 97 299 c 0,10,11
 97 170 97 170 176.5 89 c 128,-1,12
 256 8 256 8 383 8 c 256,13,14
 510 8 510 8 590 90 c 128,-1,15
 670 172 670 172 670 299 c 0,16,17
 670 398 670 398 612.5 473.5 c 128,-1,18
 555 549 555 549 447 581 c 1,19,-1
 447 735 l 1,20,-1
 698 735 l 1,21,-1
 698 708 l 1,22,-1
 474 708 l 1,23,-1
 474 600 l 1,24,25
 701 518 701 518 701 299 c 0,26,27
 701 166 701 166 617 73.5 c 128,-1,28
 533 -19 533 -19 383 -19 c 256,29,30
 233 -19 233 -19 148.5 72.5 c 128,-1,31
 64 164 64 164 64 299 c 0,0,1
EndSplineSet
EndChar

StartChar: uni01B2
Encoding: 434 434 372
Width: 730
GlyphClass: 2
Flags: W
LayerCount: 2
Fore
SplineSet
128 235 m 2,0,-1
 128 735 l 1,1,-1
 158 735 l 1,2,-1
 158 231 l 2,3,4
 158 8 158 8 370 8 c 0,5,6
 491 8 491 8 562 119.5 c 128,-1,7
 633 231 633 231 633 412 c 0,8,9
 633 558 633 558 588 642.5 c 128,-1,10
 543 727 543 727 462 727 c 0,11,12
 424 727 424 727 410 725 c 1,13,-1
 410 752 l 1,14,15
 456 755 456 755 467 755 c 0,16,17
 552 755 552 755 608.5 672 c 128,-1,18
 665 589 665 589 665 414 c 0,19,20
 665 219 665 219 586.5 100 c 128,-1,21
 508 -19 508 -19 370 -19 c 0,22,23
 251 -19 251 -19 189.5 42 c 128,-1,24
 128 103 128 103 128 235 c 2,0,-1
EndSplineSet
EndChar

StartChar: uni01B3
Encoding: 435 435 373
Width: 555
GlyphClass: 2
Flags: W
LayerCount: 2
Fore
SplineSet
-2 735 m 1,0,-1
 35 735 l 1,1,-1
 218 435 l 2,2,3
 229 418 229 418 248 383.5 c 128,-1,4
 267 349 267 349 278 334 c 1,5,-1
 280 334 l 1,6,7
 285 343 285 343 307 379 c 128,-1,8
 329 415 329 415 340 435 c 2,9,-1
 493 694 l 2,10,11
 529 755 529 755 600 755 c 0,12,13
 611 755 611 755 628 753 c 1,14,-1
 628 725 l 1,15,16
 607 727 607 727 601 727 c 0,17,18
 549 727 549 727 520 681 c 2,19,-1
 294 304 l 1,20,-1
 294 0 l 1,21,-1
 264 0 l 1,22,-1
 264 304 l 1,23,-1
 -2 735 l 1,0,-1
EndSplineSet
EndChar

StartChar: uni01B4
Encoding: 436 436 374
Width: 466
GlyphClass: 2
Flags: W
LayerCount: 2
Fore
SplineSet
14 520 m 1,0,-1
 49 520 l 1,1,-1
 187 140 l 2,2,3
 195 119 195 119 210 76 c 128,-1,4
 225 33 225 33 233 11 c 1,5,-1
 235 11 l 1,6,7
 266 96 266 96 283 143 c 2,8,-1
 399 473 l 2,9,10
 423 537 423 537 493 537 c 0,11,12
 495 537 495 537 523 534 c 1,13,-1
 523 509 l 1,14,15
 516 510 516 510 498 510 c 0,16,17
 472 510 472 510 454.5 494.5 c 128,-1,18
 437 479 437 479 430 463 c 2,19,-1
 225 -100 l 2,20,21
 196 -176 196 -176 164.5 -210 c 128,-1,22
 133 -244 133 -244 93 -244 c 2,23,-1
 65 -244 l 1,24,-1
 65 -217 l 1,25,-1
 86 -217 l 2,26,27
 158 -217 158 -217 198 -88 c 2,28,-1
 218 -29 l 1,29,-1
 14 520 l 1,0,-1
EndSplineSet
EndChar

StartChar: uni01B5
Encoding: 437 437 375
Width: 626
GlyphClass: 2
Flags: W
LayerCount: 2
Fore
SplineSet
125 352 m 1,0,-1
 125 378 l 1,1,-1
 297 378 l 1,2,-1
 516 708 l 1,3,-1
 99 708 l 1,4,-1
 99 735 l 1,5,-1
 552 735 l 1,6,-1
 552 710 l 1,7,-1
 333 378 l 1,8,-1
 502 378 l 1,9,-1
 502 352 l 1,10,-1
 316 352 l 1,11,-1
 101 27 l 1,12,-1
 563 27 l 1,13,-1
 563 0 l 1,14,-1
 65 0 l 1,15,-1
 65 26 l 1,16,-1
 281 352 l 1,17,-1
 125 352 l 1,0,-1
EndSplineSet
EndChar

StartChar: uni01B6
Encoding: 438 438 376
Width: 474
GlyphClass: 2
Flags: W
LayerCount: 2
Fore
SplineSet
45 0 m 1,0,-1
 45 23 l 1,1,-1
 211 255 l 1,2,-1
 84 255 l 1,3,-1
 84 279 l 1,4,-1
 228 279 l 1,5,-1
 383 494 l 1,6,-1
 71 494 l 1,7,-1
 71 520 l 1,8,-1
 419 520 l 1,9,-1
 419 497 l 1,10,-1
 263 279 l 1,11,-1
 392 279 l 1,12,-1
 392 255 l 1,13,-1
 244 255 l 1,14,-1
 82 26 l 1,15,-1
 431 26 l 1,16,-1
 431 0 l 1,17,-1
 45 0 l 1,0,-1
EndSplineSet
EndChar

StartChar: uni01B7
Encoding: 439 439 377
Width: 685
GlyphClass: 2
Flags: W
LayerCount: 2
Fore
SplineSet
61 -111 m 1,0,-1
 87 -97 l 1,1,2
 117 -152 117 -152 176 -185.5 c 128,-1,3
 235 -219 235 -219 308 -219 c 0,4,5
 444 -219 444 -219 516 -143 c 128,-1,6
 588 -67 588 -67 588 62 c 0,7,8
 588 181 588 181 508.5 251.5 c 128,-1,9
 429 322 429 322 263 322 c 2,10,-1
 216 322 l 1,11,-1
 216 353 l 1,12,-1
 525 708 l 1,13,-1
 80 708 l 1,14,-1
 80 735 l 1,15,-1
 572 735 l 1,16,-1
 572 718 l 1,17,-1
 248 348 l 1,18,-1
 275 348 l 2,19,20
 442 347 442 347 531.5 270.5 c 128,-1,21
 621 194 621 194 621 63 c 0,22,23
 621 -82 621 -82 535 -164 c 128,-1,24
 449 -246 449 -246 308 -246 c 0,25,26
 225 -246 225 -246 159.5 -207.5 c 128,-1,27
 94 -169 94 -169 61 -111 c 1,0,-1
EndSplineSet
EndChar

StartChar: uni01B8
Encoding: 440 440 378
Width: 685
GlyphClass: 2
Flags: W
LayerCount: 2
Fore
SplineSet
65 63 m 0,0,1
 65 194 65 194 156 271 c 128,-1,2
 247 348 247 348 410 348 c 2,3,-1
 437 348 l 1,4,-1
 115 718 l 1,5,-1
 115 735 l 1,6,-1
 606 735 l 1,7,-1
 606 708 l 1,8,-1
 161 708 l 1,9,-1
 469 353 l 1,10,-1
 469 322 l 1,11,-1
 423 322 l 2,12,13
 257 322 257 322 177.5 251.5 c 128,-1,14
 98 181 98 181 98 62 c 0,15,16
 98 -67 98 -67 170.5 -143 c 128,-1,17
 243 -219 243 -219 379 -219 c 0,18,19
 452 -219 452 -219 510.5 -185.5 c 128,-1,20
 569 -152 569 -152 599 -97 c 1,21,-1
 625 -111 l 1,22,23
 593 -169 593 -169 527.5 -207.5 c 128,-1,24
 462 -246 462 -246 378 -246 c 0,25,26
 237 -246 237 -246 151 -164 c 128,-1,27
 65 -82 65 -82 65 63 c 0,0,1
EndSplineSet
EndChar

StartChar: uni01B9
Encoding: 441 441 379
Width: 530
GlyphClass: 2
Flags: W
LayerCount: 2
Fore
SplineSet
64 -20 m 0,0,1
 64 88 64 88 136.5 145.5 c 128,-1,2
 209 203 209 203 326 203 c 2,3,-1
 368 203 l 1,4,-1
 87 497 l 1,5,-1
 87 520 l 1,6,-1
 454 520 l 1,7,-1
 454 494 l 1,8,-1
 128 494 l 1,9,-1
 405 201 l 1,10,-1
 405 179 l 1,11,-1
 334 179 l 2,12,13
 220 179 220 179 158 126.5 c 128,-1,14
 96 74 96 74 96 -20 c 0,15,16
 96 -107 96 -107 145.5 -164.5 c 128,-1,17
 195 -222 195 -222 282 -222 c 0,18,19
 394 -222 394 -222 454 -125 c 1,20,-1
 479 -137 l 1,21,22
 414 -248 414 -248 281 -248 c 0,23,24
 184 -248 184 -248 124 -185.5 c 128,-1,25
 64 -123 64 -123 64 -20 c 0,0,1
EndSplineSet
EndChar

StartChar: uni01BA
Encoding: 442 442 380
Width: 474
GlyphClass: 2
Flags: W
LayerCount: 2
Fore
SplineSet
64 -126 m 0,0,1
 64 -84 64 -84 94 -53.5 c 128,-1,2
 124 -23 124 -23 166 -3.5 c 128,-1,3
 208 16 208 16 250 35 c 128,-1,4
 292 54 292 54 321.5 83.5 c 128,-1,5
 351 113 351 113 351 153 c 0,6,7
 351 247 351 247 186 247 c 2,8,-1
 151 247 l 1,9,-1
 151 271 l 1,10,-1
 362 494 l 1,11,-1
 69 494 l 1,12,-1
 69 520 l 1,13,-1
 401 520 l 1,14,-1
 401 498 l 1,15,-1
 184 269 l 1,16,-1
 205 269 l 2,17,18
 297 268 297 268 340.5 237 c 128,-1,19
 384 206 384 206 384 153 c 0,20,21
 384 109 384 109 354 76.5 c 128,-1,22
 324 44 324 44 282 23.5 c 128,-1,23
 240 3 240 3 198 -15.5 c 128,-1,24
 156 -34 156 -34 126.5 -61 c 128,-1,25
 97 -88 97 -88 97 -124 c 0,26,27
 97 -165 97 -165 125 -188.5 c 128,-1,28
 153 -212 153 -212 205 -212 c 0,29,30
 240 -212 240 -212 291 -205 c 1,31,-1
 291 -231 l 1,32,33
 248 -238 248 -238 201 -238 c 0,34,35
 138 -238 138 -238 101 -208.5 c 128,-1,36
 64 -179 64 -179 64 -126 c 0,0,1
EndSplineSet
EndChar

StartChar: uni01BB
Encoding: 443 443 381
Width: 561
GlyphClass: 2
Flags: W
LayerCount: 2
Fore
SplineSet
129 348 m 1,0,-1
 129 374 l 1,1,-1
 357 374 l 1,2,3
 448 467 448 467 448 559 c 0,4,5
 448 641 448 641 400 684.5 c 128,-1,6
 352 728 352 728 273 728 c 0,7,8
 207 728 207 728 161 688 c 128,-1,9
 115 648 115 648 95 578 c 1,10,-1
 65 586 l 1,11,12
 86 662 86 662 140.5 708.5 c 128,-1,13
 195 755 195 755 277 755 c 0,14,15
 367 755 367 755 423 704 c 128,-1,16
 479 653 479 653 479 559 c 0,17,18
 479 466 479 466 396 374 c 1,19,-1
 511 374 l 1,20,-1
 511 348 l 1,21,-1
 374 348 l 1,22,23
 359 334 359 334 326 302.5 c 128,-1,24
 293 271 293 271 280 258.5 c 128,-1,25
 267 246 267 246 241.5 220.5 c 128,-1,26
 216 195 216 195 205 183.5 c 128,-1,27
 194 172 194 172 176 151.5 c 128,-1,28
 158 131 158 131 149.5 118.5 c 128,-1,29
 141 106 141 106 130.5 89 c 128,-1,30
 120 72 120 72 114 57.5 c 128,-1,31
 108 43 108 43 104 27 c 1,32,-1
 479 27 l 1,33,-1
 479 0 l 1,34,-1
 68 0 l 1,35,36
 68 64 68 64 131 141.5 c 128,-1,37
 194 219 194 219 332 348 c 1,38,-1
 129 348 l 1,0,-1
EndSplineSet
EndChar

StartChar: uni01BC
Encoding: 444 444 382
Width: 529
GlyphClass: 2
Flags: W
LayerCount: 2
Fore
SplineSet
55 97 m 1,0,-1
 81 111 l 1,1,2
 132 7 132 7 252 7 c 0,3,4
 335 7 335 7 383.5 60.5 c 128,-1,5
 432 114 432 114 432 202 c 0,6,7
 432 285 432 285 372.5 343.5 c 128,-1,8
 313 402 313 402 188 402 c 0,9,10
 145 402 145 402 105 396 c 1,11,-1
 139 708 l 1,12,-1
 83 708 l 1,13,-1
 83 735 l 1,14,-1
 426 735 l 1,15,-1
 426 708 l 1,16,-1
 167 708 l 1,17,-1
 139 426 l 1,18,19
 173 428 173 428 202 428 c 0,20,21
 326 428 326 428 395.5 363.5 c 128,-1,22
 465 299 465 299 465 202 c 0,23,24
 465 98 465 98 406.5 39.5 c 128,-1,25
 348 -19 348 -19 252 -19 c 0,26,27
 112 -19 112 -19 55 97 c 1,0,-1
EndSplineSet
EndChar

StartChar: uni01BD
Encoding: 445 445 383
Width: 443
GlyphClass: 2
Flags: W
LayerCount: 2
Fore
SplineSet
59 65 m 1,0,-1
 83 79 l 1,1,2
 104 47 104 47 138.5 26.5 c 128,-1,3
 173 6 173 6 211 6 c 0,4,5
 282 6 282 6 317 42.5 c 128,-1,6
 352 79 352 79 352 136 c 0,7,8
 352 202 352 202 299.5 243.5 c 128,-1,9
 247 285 247 285 165 285 c 0,10,11
 121 285 121 285 109 284 c 1,12,-1
 140 494 l 1,13,-1
 88 494 l 1,14,-1
 88 520 l 1,15,-1
 360 520 l 1,16,-1
 360 494 l 1,17,-1
 168 494 l 1,18,-1
 140 311 l 1,19,-1
 167 311 l 2,20,21
 265 311 265 311 324 261 c 128,-1,22
 383 211 383 211 383 136 c 0,23,24
 383 64 383 64 338.5 22.5 c 128,-1,25
 294 -19 294 -19 211 -19 c 0,26,27
 113 -19 113 -19 59 65 c 1,0,-1
EndSplineSet
EndChar

StartChar: uni01BE
Encoding: 446 446 384
Width: 442
GlyphClass: 2
Flags: W
LayerCount: 2
Fore
SplineSet
58 494 m 1,0,-1
 58 520 l 1,1,-1
 135 520 l 1,2,-1
 135 690 l 1,3,-1
 164 690 l 1,4,-1
 164 520 l 1,5,-1
 312 520 l 1,6,-1
 312 494 l 1,7,-1
 164 494 l 1,8,-1
 164 389 l 2,9,10
 164 349 164 349 185 317 c 128,-1,11
 206 285 206 285 235 263 c 128,-1,12
 264 241 264 241 293 220 c 128,-1,13
 322 199 322 199 343 170 c 128,-1,14
 364 141 364 141 364 107 c 0,15,16
 364 -19 364 -19 209 -19 c 0,17,18
 113 -19 113 -19 58 63 c 1,19,-1
 80 79 l 1,20,21
 135 6 135 6 209 6 c 0,22,23
 334 6 334 6 334 107 c 0,24,25
 334 135 334 135 313.5 160.5 c 128,-1,26
 293 186 293 186 264 207.5 c 128,-1,27
 235 229 235 229 205.5 251.5 c 128,-1,28
 176 274 176 274 155.5 308 c 128,-1,29
 135 342 135 342 135 383 c 2,30,-1
 135 494 l 1,31,-1
 58 494 l 1,0,-1
EndSplineSet
EndChar

StartChar: uni01BF
Encoding: 447 447 385
Width: 587
GlyphClass: 2
Flags: W
LayerCount: 2
Fore
SplineSet
104 -244 m 1,0,-1
 104 520 l 1,1,-1
 136 520 l 1,2,-1
 136 472 l 1,3,4
 226 539 226 539 315 539 c 0,5,6
 413 539 413 539 471 481.5 c 128,-1,7
 529 424 529 424 529 322 c 0,8,9
 529 47 529 47 136 0 c 1,10,-1
 136 -244 l 1,11,-1
 104 -244 l 1,0,-1
136 26 m 1,12,13
 501 77 501 77 501 321 c 0,14,15
 501 415 501 415 447.5 464 c 128,-1,16
 394 513 394 513 311 513 c 0,17,18
 226 513 226 513 136 441 c 1,19,-1
 136 26 l 1,12,13
EndSplineSet
EndChar

StartChar: uni01C0
Encoding: 448 448 386
Width: 209
GlyphClass: 2
Flags: W
LayerCount: 2
Fore
SplineSet
91 -227 m 1,0,-1
 91 823 l 1,1,-1
 121 823 l 1,2,-1
 121 -227 l 1,3,-1
 91 -227 l 1,0,-1
EndSplineSet
EndChar

StartChar: uni01C1
Encoding: 449 449 387
Width: 348
GlyphClass: 2
Flags: W
LayerCount: 2
Fore
SplineSet
90 -227 m 1,0,-1
 90 823 l 1,1,-1
 121 823 l 1,2,-1
 121 -227 l 1,3,-1
 90 -227 l 1,0,-1
230 -227 m 1,4,-1
 230 823 l 1,5,-1
 261 823 l 1,6,-1
 261 -227 l 1,7,-1
 230 -227 l 1,4,-1
EndSplineSet
EndChar

StartChar: uni01C2
Encoding: 450 450 388
Width: 290
GlyphClass: 2
Flags: W
LayerCount: 2
Fore
SplineSet
23 435 m 1,0,-1
 23 458 l 1,1,-1
 132 458 l 1,2,-1
 132 823 l 1,3,-1
 161 823 l 1,4,-1
 161 458 l 1,5,-1
 269 458 l 1,6,-1
 269 435 l 1,7,-1
 161 435 l 1,8,-1
 161 234 l 1,9,-1
 269 234 l 1,10,-1
 269 210 l 1,11,-1
 161 210 l 1,12,-1
 161 -228 l 1,13,-1
 132 -228 l 1,14,-1
 132 210 l 1,15,-1
 23 210 l 1,16,-1
 23 234 l 1,17,-1
 132 234 l 1,18,-1
 132 435 l 1,19,-1
 23 435 l 1,0,-1
EndSplineSet
EndChar

StartChar: uni01DD
Encoding: 477 477 415
Width: 558
GlyphClass: 2
Flags: W
LayerCount: 2
Fore
SplineSet
85 243 m 1,0,1
 85 147 85 147 137 76.5 c 128,-1,2
 189 6 189 6 275 6 c 0,3,4
 365 6 365 6 416 78 c 128,-1,5
 467 150 467 150 470 243 c 1,6,-1
 85 243 l 1,0,1
55 240 m 2,7,-1
 55 268 l 1,8,-1
 470 268 l 1,9,10
 470 369 470 369 418 441 c 128,-1,11
 366 513 366 513 273 513 c 0,12,13
 213 513 213 513 166.5 482.5 c 128,-1,14
 120 452 120 452 96 409 c 1,15,-1
 70 418 l 1,16,17
 137 539 137 539 273 539 c 0,18,19
 383 539 383 539 441.5 459.5 c 128,-1,20
 500 380 500 380 500 257 c 0,21,22
 500 137 500 137 438.5 59 c 128,-1,23
 377 -19 377 -19 275 -19 c 0,24,25
 175 -19 175 -19 115 58 c 128,-1,26
 55 135 55 135 55 240 c 2,7,-1
EndSplineSet
EndChar

StartChar: uni01E4
Encoding: 484 484 422
Width: 720
GlyphClass: 2
Flags: W
LayerCount: 2
Fore
SplineSet
64 368 m 0,0,1
 64 542 64 542 144.5 648.5 c 128,-1,2
 225 755 225 755 371 755 c 0,3,4
 453 755 453 755 510 714 c 128,-1,5
 567 673 567 673 594 618 c 1,6,-1
 568 607 l 1,7,8
 503 727 503 727 371 727 c 0,9,10
 240 727 240 727 168.5 628 c 128,-1,11
 97 529 97 529 97 368 c 0,12,13
 97 205 97 205 169.5 106.5 c 128,-1,14
 242 8 242 8 370 8 c 0,15,16
 461 8 461 8 515.5 60 c 128,-1,17
 570 112 570 112 588 194 c 1,18,-1
 384 194 l 1,19,-1
 384 218 l 1,20,-1
 594 218 l 1,21,22
 599 244 599 244 599 279 c 2,23,-1
 599 351 l 1,24,-1
 360 351 l 1,25,-1
 360 378 l 1,26,-1
 629 378 l 1,27,-1
 629 218 l 1,28,-1
 727 218 l 1,29,-1
 727 194 l 1,30,-1
 629 194 l 1,31,-1
 629 0 l 1,32,-1
 602 0 l 1,33,-1
 601 152 l 1,34,35
 580 79 580 79 524 30 c 128,-1,36
 468 -19 468 -19 370 -19 c 0,37,38
 226 -19 226 -19 145 86.5 c 128,-1,39
 64 192 64 192 64 368 c 0,0,1
EndSplineSet
EndChar

StartChar: uni01E5
Encoding: 485 485 423
Width: 581
GlyphClass: 2
Flags: W
LayerCount: 2
Fore
SplineSet
59 270 m 0,0,1
 59 389 59 389 115.5 464 c 128,-1,2
 172 539 172 539 268 539 c 0,3,4
 339 539 339 539 383 496 c 128,-1,5
 427 453 427 453 447 397 c 1,6,-1
 447 520 l 1,7,-1
 477 520 l 1,8,-1
 477 41 l 2,9,10
 477 -31 477 -31 469 -76 c 1,11,-1
 555 -76 l 1,12,-1
 555 -98 l 1,13,-1
 464 -98 l 1,14,15
 444 -173 444 -173 399.5 -210.5 c 128,-1,16
 355 -248 355 -248 273 -248 c 0,17,18
 220 -248 220 -248 173 -225 c 128,-1,19
 126 -202 126 -202 98 -164 c 1,20,-1
 121 -149 l 1,21,22
 149 -182 149 -182 189.5 -202 c 128,-1,23
 230 -222 230 -222 273 -222 c 0,24,25
 397 -222 397 -222 431 -98 c 1,26,-1
 213 -98 l 1,27,-1
 213 -76 l 1,28,-1
 438 -76 l 1,29,30
 447 -35 447 -35 447 40 c 2,31,-1
 447 141 l 1,32,33
 426 82 426 82 382 42.5 c 128,-1,34
 338 3 338 3 268 3 c 0,35,36
 174 3 174 3 116.5 77.5 c 128,-1,37
 59 152 59 152 59 270 c 0,0,1
89 269 m 0,38,39
 89 161 89 161 139.5 95.5 c 128,-1,40
 190 30 190 30 268 30 c 0,41,42
 351 30 351 30 399 95 c 128,-1,43
 447 160 447 160 447 273 c 0,44,45
 447 379 447 379 397.5 446 c 128,-1,46
 348 513 348 513 270 513 c 0,47,48
 186 513 186 513 137.5 444 c 128,-1,49
 89 375 89 375 89 269 c 0,38,39
EndSplineSet
EndChar

StartChar: uni01EF
Encoding: 495 495 433
Width: 530
GlyphClass: 2
Flags: W
LayerCount: 2
Fore
SplineSet
71 789 m 1,0,-1
 108 789 l 1,1,-1
 247 660 l 1,2,-1
 387 789 l 1,3,-1
 424 789 l 1,4,-1
 264 634 l 1,5,-1
 231 634 l 1,6,-1
 71 789 l 1,0,-1
51 -137 m 1,7,-1
 76 -125 l 1,8,9
 136 -222 136 -222 248 -222 c 0,10,11
 335 -222 335 -222 385.5 -164.5 c 128,-1,12
 436 -107 436 -107 436 -19 c 0,13,14
 436 74 436 74 373.5 126.5 c 128,-1,15
 311 179 311 179 199 179 c 2,16,-1
 126 179 l 1,17,-1
 126 201 l 1,18,-1
 402 494 l 1,19,-1
 77 494 l 1,20,-1
 77 520 l 1,21,-1
 444 520 l 1,22,-1
 444 497 l 1,23,-1
 164 204 l 1,24,-1
 208 203 l 2,25,26
 327 201 327 201 397 143.5 c 128,-1,27
 467 86 467 86 467 -19 c 256,28,29
 467 -124 467 -124 407 -186 c 128,-1,30
 347 -248 347 -248 250 -248 c 0,31,32
 116 -248 116 -248 51 -137 c 1,7,-1
EndSplineSet
EndChar

StartChar: uni01F6
Encoding: 502 502 440
Width: 1054
GlyphClass: 2
Flags: W
LayerCount: 2
Fore
SplineSet
128 0 m 1,0,-1
 128 735 l 1,1,-1
 158 735 l 1,2,-1
 158 393 l 1,3,-1
 565 393 l 1,4,-1
 565 735 l 1,5,-1
 596 735 l 1,6,-1
 596 177 l 2,7,8
 596 87 596 87 645 46.5 c 128,-1,9
 694 6 694 6 766 6 c 0,10,11
 835 6 835 6 881.5 51 c 128,-1,12
 928 96 928 96 928 176 c 2,13,-1
 928 520 l 1,14,-1
 960 520 l 1,15,-1
 960 172 l 2,16,17
 960 82 960 82 904.5 31.5 c 128,-1,18
 849 -19 849 -19 766 -19 c 0,19,20
 678 -19 678 -19 621.5 27.5 c 128,-1,21
 565 74 565 74 565 172 c 2,22,-1
 565 366 l 1,23,-1
 158 366 l 1,24,-1
 158 0 l 1,25,-1
 128 0 l 1,0,-1
EndSplineSet
EndChar

StartChar: uni01F7
Encoding: 503 503 441
Width: 659
GlyphClass: 2
Flags: W
LayerCount: 2
Fore
SplineSet
128 -242 m 1,0,-1
 128 735 l 1,1,-1
 160 735 l 1,2,-1
 160 641 l 1,3,4
 269 755 269 755 387 755 c 0,5,6
 487 755 487 755 542 684 c 128,-1,7
 597 613 597 613 597 496 c 0,8,9
 597 438 597 438 580 384.5 c 128,-1,10
 563 331 563 331 538 288.5 c 128,-1,11
 513 246 513 246 473.5 206 c 128,-1,12
 434 166 434 166 398 138.5 c 128,-1,13
 362 111 362 111 314 82.5 c 128,-1,14
 266 54 266 54 234 38 c 128,-1,15
 202 22 202 22 160 2 c 1,16,-1
 160 -242 l 1,17,-1
 128 -242 l 1,0,-1
160 30 m 1,18,19
 198 48 198 48 224 61.5 c 128,-1,20
 250 75 250 75 295.5 102.5 c 128,-1,21
 341 130 341 130 373.5 156 c 128,-1,22
 406 182 406 182 444.5 220.5 c 128,-1,23
 483 259 483 259 507.5 298.5 c 128,-1,24
 532 338 532 338 549 389.5 c 128,-1,25
 566 441 566 441 566 495 c 0,26,27
 566 597 566 597 519 662.5 c 128,-1,28
 472 728 472 728 379 728 c 0,29,30
 321 728 321 728 257 688 c 128,-1,31
 193 648 193 648 160 601 c 1,32,-1
 160 30 l 1,18,19
EndSplineSet
EndChar

StartChar: Aringacute
Encoding: 506 506 444
Width: 621
GlyphClass: 2
Flags: W
LayerCount: 2
Fore
SplineSet
3 0 m 1,0,-1
 290 735 l 1,1,-1
 332 735 l 1,2,-1
 619 0 l 1,3,-1
 582 0 l 1,4,-1
 490 243 l 1,5,-1
 132 243 l 1,6,-1
 38 0 l 1,7,-1
 3 0 l 1,0,-1
142 269 m 1,8,-1
 479 269 l 1,9,-1
 352 600 l 2,10,11
 345 620 345 620 331 655.5 c 128,-1,12
 317 691 317 691 312 706 c 1,13,-1
 310 706 l 1,14,15
 279 623 279 623 270 600 c 2,16,-1
 142 269 l 1,8,-1
183 904 m 256,17,18
 183 952 183 952 219 988 c 0,19,20
 247 1016 247 1016 289 1022 c 1,21,-1
 359 1135 l 1,22,-1
 414 1135 l 1,23,-1
 324 1022 l 1,24,25
 366 1017 366 1017 396 988 c 0,26,27
 431 953 431 953 431 904 c 0,28,29
 431 856 431 856 396.5 820.5 c 128,-1,30
 362 785 362 785 308 785 c 0,31,32
 255 785 255 785 219 820.5 c 128,-1,33
 183 856 183 856 183 904 c 256,17,18
211 904 m 256,34,35
 211 865 211 865 238 837.5 c 128,-1,36
 265 810 265 810 308 810 c 0,37,38
 350 810 350 810 376.5 836.5 c 128,-1,39
 403 863 403 863 403 904 c 0,40,41
 403 944 403 944 377 971.5 c 128,-1,42
 351 999 351 999 308 999 c 0,43,44
 264 999 264 999 237.5 971 c 128,-1,45
 211 943 211 943 211 904 c 256,34,35
EndSplineSet
EndChar

StartChar: aringacute
Encoding: 507 507 445
Width: 563
GlyphClass: 2
Flags: W
LayerCount: 2
Fore
SplineSet
53 117 m 0,0,1
 53 259 53 259 267 291 c 0,2,3
 398 312 398 312 443 333 c 1,4,-1
 443 360 l 2,5,6
 443 427 443 427 398 470 c 128,-1,7
 353 513 353 513 273 513 c 0,8,9
 224 513 224 513 178.5 490 c 128,-1,10
 133 467 133 467 102 425 c 1,11,-1
 80 439 l 1,12,13
 109 481 109 481 161 510 c 128,-1,14
 213 539 213 539 273 539 c 0,15,16
 371 539 371 539 422 488 c 128,-1,17
 473 437 473 437 473 357 c 2,18,-1
 473 0 l 1,19,-1
 444 0 l 1,20,-1
 444 113 l 1,21,22
 425 60 425 60 366 20.5 c 128,-1,23
 307 -19 307 -19 231 -19 c 0,24,25
 149 -19 149 -19 101 19 c 128,-1,26
 53 57 53 57 53 117 c 0,0,1
84 120 m 0,27,28
 84 74 84 74 123 40 c 128,-1,29
 162 6 162 6 233 6 c 0,30,31
 318 6 318 6 380.5 61 c 128,-1,32
 443 116 443 116 443 203 c 2,33,-1
 443 307 l 1,34,35
 385 285 385 285 268 267 c 0,36,37
 170 252 170 252 127 215.5 c 128,-1,38
 84 179 84 179 84 120 c 0,27,28
146 727 m 0,39,40
 146 775 146 775 181 810 c 0,41,42
 209 838 209 838 250 844 c 1,43,-1
 321 957 l 1,44,-1
 376 957 l 1,45,-1
 286 844 l 1,46,47
 328 840 328 840 358 811 c 0,48,49
 394 776 394 776 394 727 c 256,50,51
 394 678 394 678 359 642.5 c 128,-1,52
 324 607 324 607 270 607 c 0,53,54
 217 607 217 607 181.5 642.5 c 128,-1,55
 146 678 146 678 146 727 c 0,39,40
174 727 m 0,56,57
 174 687 174 687 201 659.5 c 128,-1,58
 228 632 228 632 270 632 c 0,59,60
 313 632 313 632 339.5 658.5 c 128,-1,61
 366 685 366 685 366 727 c 0,62,63
 366 766 366 766 340 793.5 c 128,-1,64
 314 821 314 821 270 821 c 0,65,66
 227 821 227 821 200.5 793 c 128,-1,67
 174 765 174 765 174 727 c 0,56,57
EndSplineSet
EndChar

StartChar: uni021C
Encoding: 540 540 478
Width: 582
GlyphClass: 2
Flags: W
LayerCount: 2
Fore
SplineSet
64 -211 m 1,0,1
 116 -218 116 -218 187 -218 c 0,2,3
 321 -218 321 -218 405 -146.5 c 128,-1,4
 489 -75 489 -75 489 47 c 0,5,6
 489 113 489 113 467 161.5 c 128,-1,7
 445 210 445 210 409 235.5 c 128,-1,8
 373 261 373 261 335 272.5 c 128,-1,9
 297 284 297 284 257 284 c 0,10,11
 232 284 232 284 178 265 c 1,12,-1
 178 293 l 1,13,-1
 256 316 l 2,14,15
 359 345 359 345 416.5 407 c 128,-1,16
 474 469 474 469 474 547 c 0,17,18
 474 633 474 633 421 680 c 128,-1,19
 368 727 368 727 278 727 c 0,20,21
 156 727 156 727 96 612 c 1,22,-1
 67 625 l 1,23,24
 137 755 137 755 277 755 c 0,25,26
 392 755 392 755 449 696.5 c 128,-1,27
 506 638 506 638 506 548 c 256,28,29
 506 458 506 458 445 396 c 128,-1,30
 384 334 384 334 309 308 c 1,31,-1
 309 307 l 1,32,33
 345 301 345 301 379 285.5 c 128,-1,34
 413 270 413 270 446 241.5 c 128,-1,35
 479 213 479 213 499.5 162.5 c 128,-1,36
 520 112 520 112 520 47 c 0,37,38
 520 -80 520 -80 430.5 -163 c 128,-1,39
 341 -246 341 -246 188 -246 c 0,40,41
 117 -246 117 -246 64 -240 c 1,42,-1
 64 -211 l 1,0,1
EndSplineSet
EndChar

StartChar: uni021D
Encoding: 541 541 479
Width: 458
GlyphClass: 2
Flags: W
LayerCount: 2
Fore
SplineSet
65 -216 m 1,0,1
 97 -222 97 -222 150 -222 c 0,2,3
 248 -222 248 -222 304.5 -167 c 128,-1,4
 361 -112 361 -112 361 -12 c 0,5,6
 361 74 361 74 313.5 119 c 128,-1,7
 266 164 266 164 201 164 c 0,8,9
 195 164 195 164 143 153 c 1,10,-1
 143 180 l 1,11,-1
 194 192 l 2,12,13
 269 212 269 212 310 260.5 c 128,-1,14
 351 309 351 309 351 370 c 0,15,16
 351 428 351 428 315.5 470.5 c 128,-1,17
 280 513 280 513 211 513 c 0,18,19
 134 513 134 513 89 443 c 1,20,-1
 64 455 l 1,21,22
 114 539 114 539 212 539 c 0,23,24
 296 539 296 539 338 489.5 c 128,-1,25
 380 440 380 440 380 372 c 0,26,27
 380 301 380 301 340 254 c 128,-1,28
 300 207 300 207 239 183 c 1,29,30
 297 177 297 177 344 127.5 c 128,-1,31
 391 78 391 78 391 -11 c 0,32,33
 391 -121 391 -121 327 -184.5 c 128,-1,34
 263 -248 263 -248 150 -248 c 0,35,36
 109 -248 109 -248 65 -242 c 1,37,-1
 65 -216 l 1,0,1
EndSplineSet
EndChar

StartChar: uni0220
Encoding: 544 544 482
Width: 745
GlyphClass: 2
Flags: W
LayerCount: 2
Fore
SplineSet
128 0 m 1,0,-1
 128 735 l 1,1,-1
 158 735 l 1,2,-1
 158 622 l 1,3,-1
 159 622 l 1,4,5
 183 668 183 668 248 711.5 c 128,-1,6
 313 755 313 755 396 755 c 0,7,8
 621 755 621 755 621 508 c 2,9,-1
 621 -244 l 1,10,-1
 588 -244 l 1,11,-1
 588 500 l 2,12,13
 588 618 588 618 541 672.5 c 128,-1,14
 494 727 494 727 392 727 c 0,15,16
 307 727 307 727 232.5 667.5 c 128,-1,17
 158 608 158 608 158 527 c 2,18,-1
 158 0 l 1,19,-1
 128 0 l 1,0,-1
EndSplineSet
EndChar

StartChar: uni0221
Encoding: 545 545 483
Width: 778
GlyphClass: 2
Flags: W
LayerCount: 2
Fore
SplineSet
505 -135 m 1,0,1
 517 -168 517 -168 552 -194.5 c 128,-1,2
 587 -221 587 -221 629 -221 c 0,3,4
 675 -221 675 -221 703.5 -199.5 c 128,-1,5
 732 -178 732 -178 732 -145 c 0,6,7
 732 -107 732 -107 705 -84 c 128,-1,8
 678 -61 678 -61 632 -61 c 0,9,10
 556 -61 556 -61 505 -135 c 1,0,1
59 260 m 0,11,12
 59 390 59 390 118 464.5 c 128,-1,13
 177 539 177 539 272 539 c 0,14,15
 340 539 340 539 388.5 493.5 c 128,-1,16
 437 448 437 448 454 385 c 1,17,-1
 454 767 l 1,18,-1
 484 767 l 1,19,-1
 484 -3 l 2,20,21
 484 -68 484 -68 496 -105 c 1,22,23
 517 -77 517 -77 552.5 -56 c 128,-1,24
 588 -35 588 -35 632 -35 c 0,25,26
 695 -35 695 -35 728.5 -67 c 128,-1,27
 762 -99 762 -99 762 -143 c 0,28,29
 762 -189 762 -189 725.5 -218.5 c 128,-1,30
 689 -248 689 -248 631 -248 c 0,31,32
 537 -248 537 -248 488 -162 c 1,33,34
 474 -184 474 -184 450 -240 c 1,35,-1
 423 -231 l 1,36,37
 452 -162 452 -162 472 -132 c 1,38,39
 454 -93 454 -93 454 -4 c 2,40,-1
 454 126 l 1,41,42
 435 64 435 64 387 22.5 c 128,-1,43
 339 -19 339 -19 270 -19 c 0,44,45
 184 -19 184 -19 121.5 51 c 128,-1,46
 59 121 59 121 59 260 c 0,11,12
89 260 m 0,47,48
 89 146 89 146 139 76 c 128,-1,49
 189 6 189 6 274 6 c 0,50,51
 350 6 350 6 402 72.5 c 128,-1,52
 454 139 454 139 454 260 c 0,53,54
 454 377 454 377 400 445 c 128,-1,55
 346 513 346 513 272 513 c 0,56,57
 191 513 191 513 140 444.5 c 128,-1,58
 89 376 89 376 89 260 c 0,47,48
EndSplineSet
EndChar

StartChar: uni0222
Encoding: 546 546 484
Width: 671
GlyphClass: 2
Flags: W
LayerCount: 2
Fore
SplineSet
62 229 m 0,0,1
 62 320 62 320 118 384.5 c 128,-1,2
 174 449 174 449 252 471 c 1,3,4
 182 492 182 492 137.5 545.5 c 128,-1,5
 93 599 93 599 93 678 c 0,6,7
 93 713 93 713 97 735 c 1,8,-1
 127 735 l 1,9,10
 127 724 127 724 126 706 c 128,-1,11
 125 688 125 688 125 679 c 0,12,13
 125 597 125 597 182.5 540.5 c 128,-1,14
 240 484 240 484 336 484 c 0,15,16
 423 484 423 484 485.5 538 c 128,-1,17
 548 592 548 592 548 679 c 0,18,19
 548 691 548 691 545 735 c 1,20,-1
 575 735 l 1,21,22
 579 715 579 715 579 678 c 0,23,24
 579 595 579 595 530.5 542 c 128,-1,25
 482 489 482 489 413 471 c 1,26,27
 494 454 494 454 552 386.5 c 128,-1,28
 610 319 610 319 610 229 c 0,29,30
 610 127 610 127 539 54 c 128,-1,31
 468 -19 468 -19 336 -19 c 0,32,33
 206 -19 206 -19 134 53.5 c 128,-1,34
 62 126 62 126 62 229 c 0,0,1
95 229 m 0,35,36
 95 134 95 134 162.5 71 c 128,-1,37
 230 8 230 8 336 8 c 0,38,39
 439 8 439 8 508.5 70 c 128,-1,40
 578 132 578 132 578 229 c 0,41,42
 578 320 578 320 509.5 388 c 128,-1,43
 441 456 441 456 336 456 c 0,44,45
 236 456 236 456 165.5 391 c 128,-1,46
 95 326 95 326 95 229 c 0,35,36
EndSplineSet
EndChar

StartChar: uni0223
Encoding: 547 547 485
Width: 567
GlyphClass: 2
Flags: W
LayerCount: 2
Fore
SplineSet
59 239 m 0,0,1
 59 344 59 344 107.5 412 c 128,-1,2
 156 480 156 480 226 492 c 1,3,4
 163 506 163 506 123.5 556.5 c 128,-1,5
 84 607 84 607 84 693 c 0,6,7
 84 738 84 738 87 755 c 1,8,-1
 116 755 l 1,9,10
 114 709 114 709 114 694 c 0,11,12
 114 610 114 610 159.5 557.5 c 128,-1,13
 205 505 205 505 284 505 c 0,14,15
 358 505 358 505 405 556 c 128,-1,16
 452 607 452 607 452 694 c 0,17,18
 452 724 452 724 450 755 c 1,19,-1
 479 755 l 1,20,21
 483 735 483 735 483 693 c 0,22,23
 483 610 483 610 443 556.5 c 128,-1,24
 403 503 403 503 340 492 c 1,25,26
 411 482 411 482 460 413.5 c 128,-1,27
 509 345 509 345 509 239 c 0,28,29
 509 130 509 130 449.5 55.5 c 128,-1,30
 390 -19 390 -19 284 -19 c 0,31,32
 180 -19 180 -19 119.5 54 c 128,-1,33
 59 127 59 127 59 239 c 0,0,1
89 239 m 0,34,35
 89 140 89 140 142.5 73 c 128,-1,36
 196 6 196 6 284 6 c 0,37,38
 367 6 367 6 422.5 70 c 128,-1,39
 478 134 478 134 478 239 c 256,40,41
 478 344 478 344 424 411 c 128,-1,42
 370 478 370 478 284 478 c 0,43,44
 204 478 204 478 146.5 414 c 128,-1,45
 89 350 89 350 89 239 c 0,34,35
EndSplineSet
EndChar

StartChar: uni0224
Encoding: 548 548 486
Width: 626
GlyphClass: 2
Flags: W
LayerCount: 2
Fore
SplineSet
65 0 m 1,0,-1
 65 26 l 1,1,-1
 516 708 l 1,2,-1
 99 708 l 1,3,-1
 99 735 l 1,4,-1
 552 735 l 1,5,-1
 552 710 l 1,6,-1
 101 27 l 1,7,-1
 456 27 l 2,8,9
 535 27 535 27 572 -9.5 c 128,-1,10
 609 -46 609 -46 609 -127 c 0,11,12
 609 -183 609 -183 586 -244 c 1,13,-1
 557 -244 l 1,14,15
 579 -184 579 -184 579 -128 c 0,16,17
 579 -61 579 -61 551.5 -30.5 c 128,-1,18
 524 0 524 0 446 0 c 2,19,-1
 65 0 l 1,0,-1
EndSplineSet
EndChar

StartChar: uni0225
Encoding: 549 549 487
Width: 548
GlyphClass: 2
Flags: W
LayerCount: 2
Fore
SplineSet
45 0 m 1,0,-1
 45 23 l 1,1,-1
 383 495 l 1,2,-1
 71 495 l 1,3,-1
 71 521 l 1,4,-1
 419 521 l 1,5,-1
 419 498 l 1,6,-1
 82 26 l 1,7,-1
 408 26 l 2,8,9
 476 26 476 26 506 -11.5 c 128,-1,10
 536 -49 536 -49 536 -124 c 0,11,12
 536 -196 536 -196 519 -244 c 1,13,-1
 489 -244 l 1,14,15
 507 -188 507 -188 507 -124 c 0,16,17
 507 -57 507 -57 480.5 -28.5 c 128,-1,18
 454 0 454 0 397 0 c 2,19,-1
 45 0 l 1,0,-1
EndSplineSet
EndChar

StartChar: uni0234
Encoding: 564 564 502
Width: 428
GlyphClass: 2
Flags: W
LayerCount: 2
Fore
SplineSet
159 -136 m 1,0,1
 170 -170 170 -170 205 -195.5 c 128,-1,2
 240 -221 240 -221 282 -221 c 0,3,4
 327 -221 327 -221 355.5 -200 c 128,-1,5
 384 -179 384 -179 384 -145 c 0,6,7
 384 -107 384 -107 357 -84 c 128,-1,8
 330 -61 330 -61 284 -61 c 0,9,10
 211 -61 211 -61 159 -136 c 1,0,1
76 -231 m 1,11,12
 106 -160 106 -160 126 -133 c 1,13,14
 106 -85 106 -85 106 -3 c 2,15,-1
 106 767 l 1,16,-1
 137 767 l 1,17,-1
 137 -3 l 2,18,19
 137 -62 137 -62 150 -105 c 1,20,21
 202 -35 202 -35 284 -35 c 0,22,23
 346 -35 346 -35 380.5 -67.5 c 128,-1,24
 415 -100 415 -100 415 -143 c 0,25,26
 415 -189 415 -189 378.5 -218.5 c 128,-1,27
 342 -248 342 -248 284 -248 c 0,28,29
 238 -248 238 -248 200 -224 c 128,-1,30
 162 -200 162 -200 141 -163 c 1,31,32
 122 -194 122 -194 103 -240 c 1,33,-1
 76 -231 l 1,11,12
EndSplineSet
EndChar

StartChar: uni0235
Encoding: 565 565 503
Width: 779
GlyphClass: 2
Flags: W
LayerCount: 2
Fore
SplineSet
508 -136 m 1,0,1
 520 -170 520 -170 554.5 -195.5 c 128,-1,2
 589 -221 589 -221 631 -221 c 0,3,4
 677 -221 677 -221 705 -200 c 128,-1,5
 733 -179 733 -179 733 -145 c 0,6,7
 733 -108 733 -108 706.5 -84.5 c 128,-1,8
 680 -61 680 -61 634 -61 c 0,9,10
 560 -61 560 -61 508 -136 c 1,0,1
100 0 m 1,11,-1
 100 520 l 1,12,-1
 129 520 l 1,13,-1
 129 402 l 1,14,-1
 131 402 l 1,15,16
 138 444 138 444 191 491.5 c 128,-1,17
 244 539 244 539 321 539 c 0,18,19
 351 539 351 539 376.5 531 c 128,-1,20
 402 523 402 523 428.5 502.5 c 128,-1,21
 455 482 455 482 471 440 c 128,-1,22
 487 398 487 398 487 338 c 2,23,-1
 487 -3 l 2,24,25
 487 -62 487 -62 499 -105 c 1,26,27
 551 -35 551 -35 635 -35 c 0,28,29
 698 -35 698 -35 731 -67 c 128,-1,30
 764 -99 764 -99 764 -143 c 0,31,32
 764 -189 764 -189 727.5 -218.5 c 128,-1,33
 691 -248 691 -248 633 -248 c 0,34,35
 587 -248 587 -248 549 -224 c 128,-1,36
 511 -200 511 -200 491 -163 c 1,37,38
 475 -187 475 -187 452 -240 c 1,39,-1
 425 -231 l 1,40,41
 452 -165 452 -165 475 -133 c 1,42,43
 455 -85 455 -85 455 -2 c 2,44,-1
 455 329 l 2,45,46
 455 513 455 513 316 513 c 0,47,48
 244 513 244 513 187 455 c 128,-1,49
 130 397 130 397 130 320 c 2,50,-1
 130 0 l 1,51,-1
 100 0 l 1,11,-1
EndSplineSet
EndChar

StartChar: uni0236
Encoding: 566 566 504
Width: 456
GlyphClass: 2
Flags: W
LayerCount: 2
Fore
SplineSet
185 -136 m 1,0,1
 196 -169 196 -169 232 -195 c 128,-1,2
 268 -221 268 -221 310 -221 c 0,3,4
 356 -221 356 -221 383.5 -199.5 c 128,-1,5
 411 -178 411 -178 411 -145 c 0,6,7
 411 -108 411 -108 384 -84.5 c 128,-1,8
 357 -61 357 -61 311 -61 c 0,9,10
 237 -61 237 -61 185 -136 c 1,0,1
30 494 m 1,11,-1
 30 520 l 1,12,-1
 133 520 l 1,13,-1
 133 701 l 1,14,-1
 165 701 l 1,15,-1
 165 520 l 1,16,-1
 306 520 l 1,17,-1
 306 494 l 1,18,-1
 165 494 l 1,19,-1
 165 -3 l 2,20,21
 165 -70 165 -70 176 -105 c 1,22,23
 228 -35 228 -35 311 -35 c 0,24,25
 373 -35 373 -35 407.5 -67.5 c 128,-1,26
 442 -100 442 -100 442 -143 c 0,27,28
 442 -189 442 -189 405.5 -218.5 c 128,-1,29
 369 -248 369 -248 311 -248 c 0,30,31
 265 -248 265 -248 226.5 -224 c 128,-1,32
 188 -200 188 -200 167 -163 c 1,33,34
 153 -186 153 -186 131 -240 c 1,35,-1
 103 -231 l 1,36,37
 139 -148 139 -148 151 -133 c 1,38,39
 133 -89 133 -89 133 -2 c 2,40,-1
 133 494 l 1,41,-1
 30 494 l 1,11,-1
EndSplineSet
EndChar

StartChar: uni0237
Encoding: 567 567 505
Width: 284
GlyphClass: 2
Flags: W
LayerCount: 2
Fore
SplineSet
-4 -217 m 1,0,-1
 24 -217 l 2,1,2
 129 -217 129 -217 129 -79 c 2,3,-1
 129 520 l 1,4,-1
 159 520 l 1,5,-1
 159 -83 l 2,6,7
 159 -161 159 -161 124.5 -202.5 c 128,-1,8
 90 -244 90 -244 30 -244 c 2,9,-1
 -4 -244 l 1,10,-1
 -4 -217 l 1,0,-1
EndSplineSet
EndChar

StartChar: uni0238
Encoding: 568 568 506
Width: 938
GlyphClass: 2
Flags: W
LayerCount: 2
Fore
SplineSet
59 260 m 0,0,1
 59 391 59 391 118.5 465 c 128,-1,2
 178 539 178 539 272 539 c 0,3,4
 340 539 340 539 388.5 493.5 c 128,-1,5
 437 448 437 448 454 385 c 1,6,-1
 454 767 l 1,7,-1
 484 767 l 1,8,-1
 484 384 l 1,9,10
 497 442 497 442 546 490.5 c 128,-1,11
 595 539 595 539 666 539 c 0,12,13
 763 539 763 539 821.5 464 c 128,-1,14
 880 389 880 389 880 260 c 0,15,16
 880 121 880 121 817 51 c 128,-1,17
 754 -19 754 -19 664 -19 c 0,18,19
 599 -19 599 -19 552 22 c 128,-1,20
 505 63 505 63 484 125 c 1,21,-1
 484 0 l 1,22,-1
 454 0 l 1,23,-1
 454 126 l 1,24,25
 434 63 434 63 386.5 22 c 128,-1,26
 339 -19 339 -19 270 -19 c 0,27,28
 231 -19 231 -19 194.5 -3.5 c 128,-1,29
 158 12 158 12 127.5 44 c 128,-1,30
 97 76 97 76 78 131.5 c 128,-1,31
 59 187 59 187 59 260 c 0,0,1
89 260 m 0,32,33
 89 146 89 146 139 76 c 128,-1,34
 189 6 189 6 274 6 c 0,35,36
 346 6 346 6 397 67.5 c 128,-1,37
 448 129 448 129 454 237 c 1,38,-1
 454 286 l 1,39,40
 448 391 448 391 395 452 c 128,-1,41
 342 513 342 513 272 513 c 0,42,43
 191 513 191 513 140 444.5 c 128,-1,44
 89 376 89 376 89 260 c 0,32,33
483 235 m 1,45,46
 490 129 490 129 540 67.5 c 128,-1,47
 590 6 590 6 662 6 c 0,48,49
 745 6 745 6 797 74.5 c 128,-1,50
 849 143 849 143 849 260 c 0,51,52
 849 375 849 375 797 444 c 128,-1,53
 745 513 745 513 664 513 c 0,54,55
 595 513 595 513 542.5 451.5 c 128,-1,56
 490 390 490 390 483 284 c 1,57,-1
 483 235 l 1,45,46
EndSplineSet
EndChar

StartChar: uni0239
Encoding: 569 569 507
Width: 939
GlyphClass: 2
Flags: W
LayerCount: 2
Fore
SplineSet
59 260 m 0,0,1
 59 387 59 387 117 463 c 128,-1,2
 175 539 175 539 271 539 c 0,3,4
 333 539 333 539 382 499.5 c 128,-1,5
 431 460 431 460 454 390 c 1,6,-1
 454 520 l 1,7,-1
 484 520 l 1,8,-1
 484 388 l 1,9,10
 506 456 506 456 555 497.5 c 128,-1,11
 604 539 604 539 667 539 c 0,12,13
 764 539 764 539 822.5 463 c 128,-1,14
 881 387 881 387 881 260 c 0,15,16
 881 127 881 127 819.5 54 c 128,-1,17
 758 -19 758 -19 665 -19 c 0,18,19
 599 -19 599 -19 552.5 22.5 c 128,-1,20
 506 64 506 64 484 130 c 1,21,-1
 484 -244 l 1,22,-1
 454 -244 l 1,23,-1
 454 130 l 1,24,25
 431 64 431 64 385 22.5 c 128,-1,26
 339 -19 339 -19 272 -19 c 0,27,28
 179 -19 179 -19 119 54 c 128,-1,29
 59 127 59 127 59 260 c 0,0,1
89 260 m 0,30,31
 89 143 89 143 140 74.5 c 128,-1,32
 191 6 191 6 272 6 c 0,33,34
 349 6 349 6 399 70.5 c 128,-1,35
 449 135 449 135 454 239 c 1,36,-1
 454 285 l 1,37,38
 448 386 448 386 397 449.5 c 128,-1,39
 346 513 346 513 273 513 c 0,40,41
 186 513 186 513 137.5 441 c 128,-1,42
 89 369 89 369 89 260 c 0,30,31
484 240 m 1,43,44
 491 134 491 134 540.5 70 c 128,-1,45
 590 6 590 6 665 6 c 0,46,47
 745 6 745 6 797 74 c 128,-1,48
 849 142 849 142 849 260 c 0,49,50
 849 370 849 370 801.5 441.5 c 128,-1,51
 754 513 754 513 665 513 c 0,52,53
 594 513 594 513 542.5 450 c 128,-1,54
 491 387 491 387 484 287 c 1,55,-1
 484 240 l 1,43,44
EndSplineSet
EndChar

StartChar: uni023A
Encoding: 570 570 508
Width: 621
GlyphClass: 2
Flags: W
LayerCount: 2
Fore
SplineSet
142 269 m 1,0,-1
 238 269 l 1,1,-1
 387 510 l 1,2,-1
 352 600 l 2,3,4
 334 647 334 647 312 706 c 1,5,-1
 310 706 l 1,6,7
 304 689 304 689 290.5 652.5 c 128,-1,8
 277 616 277 616 270 600 c 2,9,-1
 142 269 l 1,0,-1
268 269 m 1,10,-1
 479 269 l 1,11,-1
 398 480 l 1,12,-1
 268 269 l 1,10,-1
3 0 m 1,13,-1
 290 735 l 1,14,-1
 332 735 l 1,15,-1
 407 543 l 1,16,-1
 542 762 l 1,17,-1
 573 762 l 1,18,-1
 419 513 l 1,19,-1
 619 0 l 1,20,-1
 582 0 l 1,21,-1
 490 243 l 1,22,-1
 252 243 l 1,23,-1
 49 -85 l 1,24,-1
 20 -85 l 1,25,-1
 222 243 l 1,26,-1
 132 243 l 1,27,-1
 40 0 l 1,28,-1
 3 0 l 1,13,-1
EndSplineSet
EndChar

StartChar: uni023B
Encoding: 571 571 509
Width: 624
GlyphClass: 2
Flags: W
LayerCount: 2
Fore
SplineSet
64 368 m 0,0,1
 64 550 64 550 146.5 652.5 c 128,-1,2
 229 755 229 755 362 755 c 0,3,4
 423 755 423 755 473 727 c 1,5,-1
 500 799 l 1,6,-1
 527 799 l 1,7,-1
 495 713 l 1,8,9
 548 676 548 676 575 610 c 1,10,-1
 548 599 l 1,11,12
 520 656 520 656 484 684 c 1,13,-1
 246 38 l 1,14,15
 301 8 301 8 362 8 c 0,16,17
 435 8 435 8 488 46.5 c 128,-1,18
 541 85 541 85 568 143 c 1,19,-1
 596 132 l 1,20,21
 522 -19 522 -19 362 -19 c 0,22,23
 294 -19 294 -19 236 10 c 1,24,-1
 200 -82 l 1,25,-1
 173 -82 l 1,26,-1
 213 23 l 1,27,28
 143 67 143 67 103.5 156 c 128,-1,29
 64 245 64 245 64 368 c 0,0,1
225 51 m 1,30,-1
 463 700 l 1,31,32
 419 727 419 727 362 727 c 0,33,34
 241 727 241 727 169 629 c 128,-1,35
 97 531 97 531 97 368 c 0,36,37
 97 258 97 258 130.5 176 c 128,-1,38
 164 94 164 94 225 51 c 1,30,-1
EndSplineSet
EndChar

StartChar: uni023C
Encoding: 572 572 510
Width: 501
GlyphClass: 2
Flags: W
LayerCount: 2
Fore
SplineSet
59 260 m 0,0,1
 59 380 59 380 117.5 459.5 c 128,-1,2
 176 539 176 539 281 539 c 0,3,4
 333 539 333 539 370 518 c 1,5,-1
 397 596 l 1,6,-1
 423 596 l 1,7,-1
 393 503 l 1,8,9
 435 474 435 474 454 424 c 1,10,-1
 427 415 l 1,11,12
 412 449 412 449 383 475 c 1,13,-1
 228 15 l 1,14,15
 250 6 250 6 281 6 c 0,16,17
 333 6 333 6 376 37 c 128,-1,18
 419 68 419 68 442 110 c 1,19,-1
 468 100 l 1,20,21
 443 50 443 50 393.5 15.5 c 128,-1,22
 344 -19 344 -19 281 -19 c 0,23,24
 242 -19 242 -19 219 -11 c 1,25,-1
 199 -76 l 1,26,-1
 172 -76 l 1,27,-1
 196 -2 l 1,28,29
 133 26 133 26 96 95 c 128,-1,30
 59 164 59 164 59 260 c 0,0,1
205 25 m 1,31,-1
 362 491 l 1,32,33
 326 513 326 513 281 513 c 0,34,35
 194 513 194 513 141.5 442 c 128,-1,36
 89 371 89 371 89 260 c 0,37,38
 89 175 89 175 120 113 c 128,-1,39
 151 51 151 51 205 25 c 1,31,-1
EndSplineSet
EndChar

StartChar: uni023D
Encoding: 573 573 511
Width: 539
GlyphClass: 2
Flags: W
LayerCount: 2
Fore
SplineSet
29 409 m 1,0,-1
 29 435 l 1,1,-1
 128 435 l 1,2,-1
 128 735 l 1,3,-1
 158 735 l 1,4,-1
 158 435 l 1,5,-1
 383 435 l 1,6,-1
 383 409 l 1,7,-1
 158 409 l 1,8,-1
 158 27 l 1,9,-1
 527 27 l 1,10,-1
 527 0 l 1,11,-1
 128 0 l 1,12,-1
 128 409 l 1,13,-1
 29 409 l 1,0,-1
EndSplineSet
EndChar

StartChar: uni023E
Encoding: 574 574 512
Width: 547
GlyphClass: 2
Flags: W
LayerCount: 2
Fore
SplineSet
289 708 m 1,0,-1
 289 413 l 1,1,-1
 451 708 l 1,2,-1
 289 708 l 1,0,-1
22 708 m 1,3,-1
 22 735 l 1,4,-1
 466 735 l 1,5,-1
 501 798 l 1,6,-1
 528 798 l 1,7,-1
 493 735 l 1,8,-1
 526 735 l 1,9,-1
 526 708 l 1,10,-1
 479 708 l 1,11,-1
 289 363 l 1,12,-1
 289 0 l 1,13,-1
 258 0 l 1,14,-1
 258 306 l 1,15,-1
 74 -29 l 1,16,-1
 46 -29 l 1,17,-1
 258 356 l 1,18,-1
 258 708 l 1,19,-1
 22 708 l 1,3,-1
EndSplineSet
EndChar

StartChar: uni023F
Encoding: 575 575 513
Width: 488
GlyphClass: 2
Flags: W
LayerCount: 2
Fore
SplineSet
51 85 m 1,0,-1
 75 99 l 1,1,2
 135 6 135 6 246 6 c 0,3,4
 319 6 319 6 362.5 38 c 128,-1,5
 406 70 406 70 406 120 c 0,6,7
 406 156 406 156 377.5 183 c 128,-1,8
 349 210 349 210 323.5 220 c 128,-1,9
 298 230 298 230 241 247 c 0,10,11
 233 251 233 251 229 252 c 0,12,13
 190 263 190 263 166.5 273 c 128,-1,14
 143 283 143 283 115.5 300 c 128,-1,15
 88 317 88 317 75 342 c 128,-1,16
 62 367 62 367 62 401 c 0,17,18
 62 466 62 466 115 502.5 c 128,-1,19
 168 539 168 539 246 539 c 0,20,21
 306 539 306 539 352.5 510 c 128,-1,22
 399 481 399 481 423 438 c 1,23,-1
 400 424 l 1,24,25
 377 465 377 465 336.5 489 c 128,-1,26
 296 513 296 513 246 513 c 0,27,28
 178 513 178 513 135.5 481.5 c 128,-1,29
 93 450 93 450 93 401 c 0,30,31
 93 348 93 348 133 320 c 128,-1,32
 173 292 173 292 241 273 c 0,33,34
 284 262 284 262 311 251.5 c 128,-1,35
 338 241 338 241 370.5 223.5 c 128,-1,36
 403 206 403 206 420 179.5 c 128,-1,37
 437 153 437 153 437 120 c 0,38,39
 437 61 437 61 388 21 c 128,-1,40
 339 -19 339 -19 246 -19 c 0,41,42
 177 -19 177 -19 119 16 c 1,43,44
 150 -110 150 -110 170 -149 c 0,45,46
 210 -225 210 -225 283 -225 c 0,47,48
 299 -225 299 -225 318 -222 c 1,49,-1
 318 -245 l 1,50,51
 287 -248 287 -248 283 -248 c 0,52,53
 247 -248 247 -248 220.5 -236.5 c 128,-1,54
 194 -225 194 -225 176.5 -204.5 c 128,-1,55
 159 -184 159 -184 145 -154.5 c 128,-1,56
 131 -125 131 -125 121 -93 c 128,-1,57
 111 -61 111 -61 101 -22 c 0,58,59
 96 -3 96 -3 94 6 c 0,60,61
 85 31 85 31 51 85 c 1,0,-1
EndSplineSet
EndChar

StartChar: uni0240
Encoding: 576 576 514
Width: 474
GlyphClass: 2
Flags: W
LayerCount: 2
Fore
SplineSet
45 0 m 1,0,-1
 45 23 l 1,1,-1
 383 494 l 1,2,-1
 71 494 l 1,3,-1
 71 520 l 1,4,-1
 419 520 l 1,5,-1
 419 497 l 1,6,-1
 80 24 l 1,7,8
 126 23 126 23 164.5 -2.5 c 128,-1,9
 203 -28 203 -28 229.5 -64.5 c 128,-1,10
 256 -101 256 -101 281 -137 c 128,-1,11
 306 -173 306 -173 335.5 -197.5 c 128,-1,12
 365 -222 365 -222 397 -222 c 0,13,14
 418 -222 418 -222 434 -219 c 1,15,-1
 434 -244 l 1,16,17
 413 -248 413 -248 395 -248 c 0,18,19
 358 -248 358 -248 324.5 -223 c 128,-1,20
 291 -198 291 -198 265 -161.5 c 128,-1,21
 239 -125 239 -125 212.5 -88.5 c 128,-1,22
 186 -52 186 -52 150.5 -26 c 128,-1,23
 115 0 115 0 75 0 c 2,24,-1
 45 0 l 1,0,-1
EndSplineSet
EndChar

StartChar: uni0241
Encoding: 577 577 515
Width: 545
GlyphClass: 2
Flags: W
LayerCount: 2
Fore
SplineSet
74 614 m 1,0,1
 103 683 103 683 156.5 719 c 128,-1,2
 210 755 210 755 271 755 c 0,3,4
 360 755 360 755 410.5 702.5 c 128,-1,5
 461 650 461 650 461 565 c 0,6,7
 461 519 461 519 441.5 482 c 128,-1,8
 422 445 422 445 395 419 c 128,-1,9
 368 393 368 393 340.5 366.5 c 128,-1,10
 313 340 313 340 293.5 302 c 128,-1,11
 274 264 274 264 274 217 c 2,12,-1
 274 0 l 1,13,-1
 242 0 l 1,14,-1
 242 218 l 2,15,16
 242 269 242 269 261.5 309 c 128,-1,17
 281 349 281 349 308 375.5 c 128,-1,18
 335 402 335 402 362.5 427.5 c 128,-1,19
 390 453 390 453 409 487 c 128,-1,20
 428 521 428 521 428 563 c 0,21,22
 428 637 428 637 386.5 682 c 128,-1,23
 345 727 345 727 271 727 c 0,24,25
 159 727 159 727 101 604 c 1,26,-1
 74 614 l 1,0,1
EndSplineSet
EndChar

StartChar: uni0250
Encoding: 592 592 516
Width: 561
GlyphClass: 2
Flags: W
LayerCount: 2
Fore
SplineSet
121 212 m 1,0,1
 178 234 178 234 296 252 c 0,2,3
 394 267 394 267 437 303.5 c 128,-1,4
 480 340 480 340 480 399 c 0,5,6
 480 445 480 445 440.5 479 c 128,-1,7
 401 513 401 513 331 513 c 0,8,9
 245 513 245 513 183 458 c 128,-1,10
 121 403 121 403 121 317 c 2,11,-1
 121 212 l 1,0,1
91 162 m 2,12,-1
 91 520 l 1,13,-1
 121 520 l 1,14,-1
 121 406 l 1,15,16
 139 460 139 460 198 499.5 c 128,-1,17
 257 539 257 539 333 539 c 0,18,19
 415 539 415 539 462.5 500.5 c 128,-1,20
 510 462 510 462 510 401 c 0,21,22
 510 333 510 333 461 288.5 c 128,-1,23
 412 244 412 244 297 228 c 0,24,25
 164 207 164 207 121 187 c 1,26,-1
 121 159 l 2,27,28
 121 91 121 91 166 48.5 c 128,-1,29
 211 6 211 6 291 6 c 0,30,31
 393 6 393 6 461 95 c 1,32,-1
 484 81 l 1,33,34
 455 38 455 38 403.5 9.5 c 128,-1,35
 352 -19 352 -19 291 -19 c 0,36,37
 193 -19 193 -19 142 31 c 128,-1,38
 91 81 91 81 91 162 c 2,12,-1
EndSplineSet
EndChar

StartChar: uni0251
Encoding: 593 593 517
Width: 581
GlyphClass: 2
Flags: W
LayerCount: 2
Fore
SplineSet
89 260 m 0,0,1
 89 145 89 145 141 75.5 c 128,-1,2
 193 6 193 6 274 6 c 0,3,4
 349 6 349 6 402.5 73.5 c 128,-1,5
 456 141 456 141 456 258 c 256,6,7
 456 375 456 375 401 444 c 128,-1,8
 346 513 346 513 272 513 c 0,9,10
 191 513 191 513 140 444.5 c 128,-1,11
 89 376 89 376 89 260 c 0,0,1
59 260 m 0,12,13
 59 388 59 388 117.5 463.5 c 128,-1,14
 176 539 176 539 271 539 c 0,15,16
 342 539 342 539 392 489 c 128,-1,17
 442 439 442 439 452 387 c 1,18,-1
 452 520 l 1,19,-1
 482 520 l 1,20,-1
 482 0 l 1,21,-1
 453 0 l 1,22,-1
 453 122 l 1,23,24
 431 61 431 61 384.5 21 c 128,-1,25
 338 -19 338 -19 272 -19 c 0,26,27
 185 -19 185 -19 122 51.5 c 128,-1,28
 59 122 59 122 59 260 c 0,12,13
EndSplineSet
EndChar

StartChar: uni0252
Encoding: 594 594 518
Width: 583
GlyphClass: 2
Flags: W
LayerCount: 2
Fore
SplineSet
100 0 m 1,0,-1
 100 520 l 1,1,-1
 130 520 l 1,2,-1
 130 387 l 1,3,4
 140 439 140 439 190.5 489 c 128,-1,5
 241 539 241 539 312 539 c 0,6,7
 409 539 409 539 467 464 c 128,-1,8
 525 389 525 389 525 260 c 0,9,10
 525 122 525 122 462 51.5 c 128,-1,11
 399 -19 399 -19 312 -19 c 0,12,13
 246 -19 246 -19 198 21.5 c 128,-1,14
 150 62 150 62 129 122 c 1,15,-1
 129 0 l 1,16,-1
 100 0 l 1,0,-1
128 258 m 0,17,18
 128 142 128 142 181 74 c 128,-1,19
 234 6 234 6 309 6 c 0,20,21
 391 6 391 6 443 75.5 c 128,-1,22
 495 145 495 145 495 260 c 0,23,24
 495 376 495 376 444 444.5 c 128,-1,25
 393 513 393 513 311 513 c 0,26,27
 238 513 238 513 183 444.5 c 128,-1,28
 128 376 128 376 128 258 c 0,17,18
EndSplineSet
EndChar

StartChar: uni0253
Encoding: 595 595 519
Width: 587
GlyphClass: 2
Flags: W
LayerCount: 2
Fore
SplineSet
133 260 m 0,0,1
 133 141 133 141 185 73.5 c 128,-1,2
 237 6 237 6 313 6 c 0,3,4
 396 6 396 6 448 75.5 c 128,-1,5
 500 145 500 145 500 260 c 256,6,7
 500 375 500 375 448.5 444 c 128,-1,8
 397 513 397 513 315 513 c 0,9,10
 241 513 241 513 187 445 c 128,-1,11
 133 377 133 377 133 260 c 0,0,1
104 0 m 1,12,-1
 104 508 l 2,13,14
 104 771 104 771 295 771 c 0,15,16
 363 771 363 771 422 752 c 1,17,-1
 417 727 l 1,18,19
 349 745 349 745 296 745 c 0,20,21
 135 745 135 745 135 506 c 2,22,-1
 135 384 l 1,23,24
 150 443 150 443 197.5 491 c 128,-1,25
 245 539 245 539 317 539 c 0,26,27
 415 539 415 539 472 463.5 c 128,-1,28
 529 388 529 388 529 260 c 0,29,30
 529 123 529 123 467 52 c 128,-1,31
 405 -19 405 -19 315 -19 c 0,32,33
 248 -19 248 -19 201.5 22.5 c 128,-1,34
 155 64 155 64 135 125 c 1,35,-1
 135 0 l 1,36,-1
 104 0 l 1,12,-1
EndSplineSet
EndChar

StartChar: uni0254
Encoding: 596 596 520
Width: 501
GlyphClass: 2
Flags: W
LayerCount: 2
Fore
SplineSet
34 100 m 1,0,-1
 60 110 l 1,1,2
 82 67 82 67 125.5 36.5 c 128,-1,3
 169 6 169 6 221 6 c 0,4,5
 305 6 305 6 359 76.5 c 128,-1,6
 413 147 413 147 413 260 c 0,7,8
 413 371 413 371 360 442 c 128,-1,9
 307 513 307 513 221 513 c 0,10,11
 173 513 173 513 134 485.5 c 128,-1,12
 95 458 95 458 76 415 c 1,13,-1
 49 424 l 1,14,15
 69 474 69 474 114.5 506.5 c 128,-1,16
 160 539 160 539 221 539 c 0,17,18
 325 539 325 539 384 459.5 c 128,-1,19
 443 380 443 380 443 260 c 0,20,21
 443 132 443 132 381 56.5 c 128,-1,22
 319 -19 319 -19 221 -19 c 0,23,24
 159 -19 159 -19 108.5 15.5 c 128,-1,25
 58 50 58 50 34 100 c 1,0,-1
EndSplineSet
EndChar

StartChar: uni0255
Encoding: 597 597 521
Width: 502
GlyphClass: 2
Flags: W
LayerCount: 2
Fore
SplineSet
211 24 m 1,0,1
 253 6 253 6 313 6 c 0,2,3
 363 6 363 6 397.5 27 c 128,-1,4
 432 48 432 48 432 79 c 0,5,6
 432 105 432 105 412 122 c 128,-1,7
 392 139 392 139 357 139 c 0,8,9
 306 139 306 139 267.5 104 c 128,-1,10
 229 69 229 69 211 24 c 1,0,1
59 261 m 0,11,12
 59 380 59 380 117.5 459.5 c 128,-1,13
 176 539 176 539 283 539 c 0,14,15
 343 539 343 539 388.5 505.5 c 128,-1,16
 434 472 434 472 453 424 c 1,17,-1
 426 415 l 1,18,19
 410 454 410 454 371.5 483.5 c 128,-1,20
 333 513 333 513 283 513 c 0,21,22
 193 513 193 513 141 442.5 c 128,-1,23
 89 372 89 372 89 260 c 0,24,25
 89 107 89 107 185 38 c 1,26,27
 211 93 211 93 254.5 129 c 128,-1,28
 298 165 298 165 357 165 c 0,29,30
 406 165 406 165 434.5 139.5 c 128,-1,31
 463 114 463 114 463 79 c 0,32,33
 463 35 463 35 419.5 8 c 128,-1,34
 376 -19 376 -19 311 -19 c 0,35,36
 232 -19 232 -19 200 -2 c 1,37,38
 192 -19 192 -19 180 -65 c 1,39,-1
 152 -58 l 1,40,41
 158 -24 158 -24 174 11 c 1,42,43
 59 81 59 81 59 261 c 0,11,12
EndSplineSet
EndChar

StartChar: uni0256
Encoding: 598 598 522
Width: 587
GlyphClass: 2
Flags: W
LayerCount: 2
Fore
SplineSet
59 260 m 0,0,1
 59 391 59 391 118.5 465 c 128,-1,2
 178 539 178 539 272 539 c 0,3,4
 340 539 340 539 388.5 493.5 c 128,-1,5
 437 448 437 448 454 385 c 1,6,-1
 454 767 l 1,7,-1
 484 767 l 1,8,-1
 484 -44 l 2,9,10
 484 -141 484 -141 511.5 -181 c 128,-1,11
 539 -221 539 -221 593 -221 c 0,12,13
 621 -221 621 -221 650 -217 c 1,14,-1
 650 -243 l 1,15,16
 622 -248 622 -248 592 -248 c 0,17,18
 524 -248 524 -248 489 -204 c 128,-1,19
 454 -160 454 -160 454 -45 c 2,20,-1
 454 126 l 1,21,22
 434 63 434 63 386.5 22 c 128,-1,23
 339 -19 339 -19 270 -19 c 0,24,25
 184 -19 184 -19 121.5 51 c 128,-1,26
 59 121 59 121 59 260 c 0,0,1
89 260 m 0,27,28
 89 146 89 146 139 76 c 128,-1,29
 189 6 189 6 274 6 c 0,30,31
 349 6 349 6 401.5 73 c 128,-1,32
 454 140 454 140 454 260 c 0,33,34
 454 377 454 377 400 445 c 128,-1,35
 346 513 346 513 272 513 c 0,36,37
 191 513 191 513 140 444.5 c 128,-1,38
 89 376 89 376 89 260 c 0,27,28
EndSplineSet
EndChar

StartChar: uni0257
Encoding: 599 599 523
Width: 587
GlyphClass: 2
Flags: W
LayerCount: 2
Fore
SplineSet
59 261 m 0,0,1
 59 391 59 391 118 465 c 128,-1,2
 177 539 177 539 272 539 c 0,3,4
 340 539 340 539 388.5 493.5 c 128,-1,5
 437 448 437 448 454 385 c 1,6,-1
 454 641 l 2,7,8
 454 706 454 706 494 738.5 c 128,-1,9
 534 771 534 771 603 771 c 0,10,11
 633 771 633 771 655 768 c 1,12,-1
 655 742 l 1,13,14
 611 745 611 745 607 745 c 0,15,16
 549 745 549 745 516.5 717 c 128,-1,17
 484 689 484 689 484 632 c 2,18,-1
 484 0 l 1,19,-1
 454 0 l 1,20,-1
 454 126 l 1,21,22
 435 64 435 64 387 22.5 c 128,-1,23
 339 -19 339 -19 270 -19 c 0,24,25
 184 -19 184 -19 121.5 51.5 c 128,-1,26
 59 122 59 122 59 261 c 0,0,1
89 261 m 0,27,28
 89 147 89 147 139 76.5 c 128,-1,29
 189 6 189 6 274 6 c 0,30,31
 349 6 349 6 401.5 74 c 128,-1,32
 454 142 454 142 454 261 c 0,33,34
 454 378 454 378 400 445.5 c 128,-1,35
 346 513 346 513 272 513 c 0,36,37
 191 513 191 513 140 444.5 c 128,-1,38
 89 376 89 376 89 261 c 0,27,28
EndSplineSet
EndChar

StartChar: uni0258
Encoding: 600 600 524
Width: 558
GlyphClass: 2
Flags: W
LayerCount: 2
Fore
SplineSet
85 275 m 1,0,-1
 470 275 l 1,1,2
 467 369 467 369 416.5 441 c 128,-1,3
 366 513 366 513 275 513 c 0,4,5
 189 513 189 513 137 442.5 c 128,-1,6
 85 372 85 372 85 275 c 1,0,-1
55 252 m 1,7,-1
 55 279 l 2,8,9
 55 385 55 385 114.5 462 c 128,-1,10
 174 539 174 539 275 539 c 0,11,12
 379 539 379 539 439.5 461.5 c 128,-1,13
 500 384 500 384 500 263 c 0,14,15
 500 139 500 139 439.5 60 c 128,-1,16
 379 -19 379 -19 273 -19 c 0,17,18
 136 -19 136 -19 70 100 c 1,19,-1
 96 111 l 1,20,21
 121 67 121 67 167 36.5 c 128,-1,22
 213 6 213 6 273 6 c 0,23,24
 365 6 365 6 417.5 78 c 128,-1,25
 470 150 470 150 470 252 c 1,26,-1
 55 252 l 1,7,-1
EndSplineSet
EndChar

StartChar: uni025A
Encoding: 602 602 526
Width: 610
GlyphClass: 2
Flags: W
LayerCount: 2
Fore
SplineSet
55 220 m 1,0,-1
 440 398 l 1,1,2
 417 447 417 447 374.5 480 c 128,-1,3
 332 513 332 513 268 513 c 0,4,5
 210 513 210 513 165 482 c 128,-1,6
 120 451 120 451 98 408 c 1,7,-1
 71 418 l 1,8,9
 138 539 138 539 268 539 c 0,10,11
 406 539 406 539 465 411 c 1,12,-1
 536 451 l 1,13,14
 561 392 561 392 621 392 c 0,15,16
 639 392 639 392 647 393 c 1,17,-1
 647 368 l 1,18,19
 638 367 638 367 622 367 c 0,20,21
 553 367 553 367 527 414 c 1,22,-1
 474 386 l 1,23,24
 496 329 496 329 496 258 c 0,25,26
 496 140 496 140 437 60.5 c 128,-1,27
 378 -19 378 -19 269 -19 c 0,28,29
 181 -19 181 -19 121.5 48.5 c 128,-1,30
 62 116 62 116 55 220 c 1,0,-1
87 206 m 1,31,32
 100 113 100 113 151 59.5 c 128,-1,33
 202 6 202 6 269 6 c 0,34,35
 366 6 366 6 416 81 c 128,-1,36
 466 156 466 156 466 253 c 0,37,38
 466 255 466 255 466 257 c 0,39,40
 466 316 466 316 449 373 c 1,41,-1
 87 206 l 1,31,32
EndSplineSet
EndChar

StartChar: uni025B
Encoding: 603 603 527
Width: 452
GlyphClass: 2
Flags: W
LayerCount: 2
Fore
SplineSet
59 130 m 0,0,1
 59 190 59 190 98 227 c 128,-1,2
 137 264 137 264 193 275 c 1,3,-1
 193 277 l 1,4,5
 145 288 145 288 112.5 319.5 c 128,-1,6
 80 351 80 351 80 402 c 0,7,8
 80 462 80 462 121 500.5 c 128,-1,9
 162 539 162 539 242 539 c 0,10,11
 345 539 345 539 398 456 c 1,12,-1
 373 443 l 1,13,14
 325 513 325 513 244 513 c 0,15,16
 178 513 178 513 144 482.5 c 128,-1,17
 110 452 110 452 110 403 c 0,18,19
 110 353 110 353 151 320.5 c 128,-1,20
 192 288 192 288 275 288 c 2,21,-1
 297 288 l 1,22,-1
 297 265 l 1,23,-1
 275 265 l 2,24,25
 180 265 180 265 134.5 224.5 c 128,-1,26
 89 184 89 184 89 130 c 0,27,28
 89 75 89 75 131.5 40.5 c 128,-1,29
 174 6 174 6 246 6 c 0,30,31
 291 6 291 6 331.5 29.5 c 128,-1,32
 372 53 372 53 395 83 c 1,33,-1
 418 67 l 1,34,35
 388 27 388 27 342.5 4 c 128,-1,36
 297 -19 297 -19 246 -19 c 0,37,38
 161 -19 161 -19 110 20.5 c 128,-1,39
 59 60 59 60 59 130 c 0,0,1
EndSplineSet
EndChar

StartChar: uni025C
Encoding: 604 604 528
Width: 452
GlyphClass: 2
Flags: W
LayerCount: 2
Fore
SplineSet
34 67 m 1,0,-1
 57 83 l 1,1,2
 80 53 80 53 120.5 29.5 c 128,-1,3
 161 6 161 6 206 6 c 0,4,5
 279 6 279 6 322 40.5 c 128,-1,6
 365 75 365 75 365 130 c 0,7,8
 365 184 365 184 319.5 224.5 c 128,-1,9
 274 265 274 265 179 265 c 2,10,-1
 155 265 l 1,11,-1
 155 288 l 1,12,-1
 179 288 l 2,13,14
 262 288 262 288 302.5 320.5 c 128,-1,15
 343 353 343 353 343 403 c 0,16,17
 343 452 343 452 310 482.5 c 128,-1,18
 277 513 277 513 210 513 c 0,19,20
 128 513 128 513 80 443 c 1,21,-1
 56 456 l 1,22,23
 109 539 109 539 210 539 c 0,24,25
 290 539 290 539 331.5 500.5 c 128,-1,26
 373 462 373 462 373 402 c 0,27,28
 373 351 373 351 340.5 319.5 c 128,-1,29
 308 288 308 288 259 277 c 1,30,-1
 259 275 l 1,31,32
 315 264 315 264 355.5 227 c 128,-1,33
 396 190 396 190 396 130 c 0,34,35
 396 60 396 60 344.5 20.5 c 128,-1,36
 293 -19 293 -19 208 -19 c 0,37,38
 157 -19 157 -19 110.5 4 c 128,-1,39
 64 27 64 27 34 67 c 1,0,-1
EndSplineSet
EndChar

StartChar: uni025D
Encoding: 605 605 529
Width: 479
GlyphClass: 2
Flags: W
LayerCount: 2
Fore
SplineSet
34 67 m 1,0,-1
 57 83 l 1,1,2
 76 56 76 56 118.5 31 c 128,-1,3
 161 6 161 6 203 6 c 0,4,5
 281 6 281 6 323 40.5 c 128,-1,6
 365 75 365 75 365 130 c 256,7,8
 365 185 365 185 319.5 225 c 128,-1,9
 274 265 274 265 179 265 c 2,10,-1
 155 265 l 1,11,-1
 155 288 l 1,12,-1
 179 288 l 2,13,14
 262 288 262 288 302.5 320.5 c 128,-1,15
 343 353 343 353 343 403 c 0,16,17
 343 454 343 454 308 483.5 c 128,-1,18
 273 513 273 513 210 513 c 0,19,20
 127 513 127 513 80 443 c 1,21,-1
 56 456 l 1,22,23
 109 539 109 539 210 539 c 0,24,25
 331 539 331 539 364 453 c 1,26,-1
 436 488 l 1,27,28
 448 458 448 458 472.5 439 c 128,-1,29
 497 420 497 420 528 420 c 0,30,31
 537 420 537 420 552 422 c 1,32,-1
 552 397 l 1,33,34
 535 395 535 395 527 395 c 0,35,36
 490 395 490 395 463 412.5 c 128,-1,37
 436 430 436 430 424 452 c 1,38,-1
 371 426 l 1,39,40
 373 417 373 417 373 399 c 0,41,42
 372 349 372 349 339.5 318 c 128,-1,43
 307 287 307 287 259 277 c 1,44,-1
 259 275 l 1,45,46
 316 263 316 263 356 226.5 c 128,-1,47
 396 190 396 190 396 130 c 0,48,49
 396 59 396 59 345.5 20 c 128,-1,50
 295 -19 295 -19 205 -19 c 0,51,52
 154 -19 154 -19 107.5 6 c 128,-1,53
 61 31 61 31 34 67 c 1,0,-1
EndSplineSet
EndChar

StartChar: uni025E
Encoding: 606 606 530
Width: 557
GlyphClass: 2
Flags: W
LayerCount: 2
Fore
SplineSet
59 263 m 0,0,1
 59 394 59 394 123 466.5 c 128,-1,2
 187 539 187 539 288 539 c 0,3,4
 376 539 376 539 426 498.5 c 128,-1,5
 476 458 476 458 476 394 c 0,6,7
 476 342 476 342 446 308.5 c 128,-1,8
 416 275 416 275 372 265 c 1,9,-1
 372 264 l 1,10,11
 424 255 424 255 461.5 219 c 128,-1,12
 499 183 499 183 499 126 c 0,13,14
 499 59 499 59 446.5 20 c 128,-1,15
 394 -19 394 -19 291 -19 c 0,16,17
 250 -19 250 -19 211.5 -4 c 128,-1,18
 173 11 173 11 137.5 42.5 c 128,-1,19
 102 74 102 74 80.5 131 c 128,-1,20
 59 188 59 188 59 263 c 0,0,1
89 263 m 0,21,22
 89 194 89 194 109 141.5 c 128,-1,23
 129 89 129 89 160 61 c 128,-1,24
 191 33 191 33 224.5 19.5 c 128,-1,25
 258 6 258 6 291 6 c 0,26,27
 377 6 377 6 423 39.5 c 128,-1,28
 469 73 469 73 469 124 c 0,29,30
 469 173 469 173 428 211.5 c 128,-1,31
 387 250 387 250 293 250 c 2,32,-1
 262 250 l 1,33,-1
 262 275 l 1,34,-1
 293 275 l 2,35,36
 378 275 378 275 413 310.5 c 128,-1,37
 448 346 448 346 448 393 c 0,38,39
 448 450 448 450 405.5 481.5 c 128,-1,40
 363 513 363 513 288 513 c 0,41,42
 202 513 202 513 145.5 447.5 c 128,-1,43
 89 382 89 382 89 263 c 0,21,22
EndSplineSet
EndChar

StartChar: uni025F
Encoding: 607 607 531
Width: 285
GlyphClass: 2
Flags: W
LayerCount: 2
Fore
SplineSet
1 289 m 1,0,-1
 1 314 l 1,1,-1
 130 314 l 1,2,-1
 130 520 l 1,3,-1
 159 520 l 1,4,-1
 159 314 l 1,5,-1
 274 314 l 1,6,-1
 274 289 l 1,7,-1
 159 289 l 1,8,-1
 159 -79 l 2,9,10
 159 -157 159 -157 124.5 -198.5 c 128,-1,11
 90 -240 90 -240 30 -240 c 2,12,-1
 -3 -240 l 1,13,-1
 -3 -213 l 1,14,-1
 24 -213 l 2,15,16
 130 -213 130 -213 130 -75 c 2,17,-1
 130 289 l 1,18,-1
 1 289 l 1,0,-1
EndSplineSet
EndChar

StartChar: uni0260
Encoding: 608 608 532
Width: 580
GlyphClass: 2
Flags: W
LayerCount: 2
Fore
SplineSet
59 270 m 256,0,1
 59 390 59 390 115.5 464.5 c 128,-1,2
 172 539 172 539 268 539 c 0,3,4
 338 539 338 539 382 496.5 c 128,-1,5
 426 454 426 454 447 397 c 1,6,-1
 447 637 l 2,7,8
 447 702 447 702 488.5 736.5 c 128,-1,9
 530 771 530 771 598 771 c 0,10,11
 607 771 607 771 648 768 c 1,12,-1
 648 744 l 1,13,14
 633 745 633 745 601 745 c 0,15,16
 546 745 546 745 511.5 715.5 c 128,-1,17
 477 686 477 686 477 628 c 2,18,-1
 477 38 l 2,19,20
 477 -105 477 -105 431.5 -176.5 c 128,-1,21
 386 -248 386 -248 274 -248 c 0,22,23
 220 -248 220 -248 173.5 -225.5 c 128,-1,24
 127 -203 127 -203 98 -164 c 1,25,-1
 121 -149 l 1,26,27
 185 -222 185 -222 275 -222 c 0,28,29
 370 -222 370 -222 408.5 -156.5 c 128,-1,30
 447 -91 447 -91 447 35 c 2,31,-1
 447 136 l 1,32,33
 399 -2 399 -2 269 -2 c 0,34,35
 175 -2 175 -2 117 74 c 128,-1,36
 59 150 59 150 59 270 c 256,0,1
89 269 m 0,37,38
 89 159 89 159 139 92 c 128,-1,39
 189 25 189 25 268 25 c 0,40,41
 351 25 351 25 399 90.5 c 128,-1,42
 447 156 447 156 447 271 c 0,43,44
 447 378 447 378 397.5 445.5 c 128,-1,45
 348 513 348 513 270 513 c 0,46,47
 186 513 186 513 137.5 444.5 c 128,-1,48
 89 376 89 376 89 269 c 0,37,38
EndSplineSet
EndChar

StartChar: uni0262
Encoding: 610 610 534
Width: 601
GlyphClass: 2
Flags: W
LayerCount: 2
Fore
SplineSet
59 260 m 0,0,1
 59 385 59 385 126 462 c 128,-1,2
 193 539 193 539 309 539 c 0,3,4
 427 539 427 539 494 439 c 1,5,-1
 469 426 l 1,6,7
 404 513 404 513 309 513 c 0,8,9
 208 513 208 513 148.5 443 c 128,-1,10
 89 373 89 373 89 260 c 0,11,12
 89 145 89 145 148.5 75.5 c 128,-1,13
 208 6 208 6 306 6 c 0,14,15
 395 6 395 6 444.5 62.5 c 128,-1,16
 494 119 494 119 494 194 c 2,17,-1
 494 242 l 1,18,-1
 299 242 l 1,19,-1
 299 268 l 1,20,-1
 523 268 l 1,21,-1
 523 0 l 1,22,-1
 495 0 l 1,23,-1
 495 96 l 1,24,25
 477 49 477 49 428 15 c 128,-1,26
 379 -19 379 -19 305 -19 c 0,27,28
 191 -19 191 -19 125 56.5 c 128,-1,29
 59 132 59 132 59 260 c 0,0,1
EndSplineSet
EndChar

StartChar: uni0263
Encoding: 611 611 535
Width: 476
GlyphClass: 2
Flags: W
LayerCount: 2
Fore
SplineSet
17 520 m 1,0,-1
 50 520 l 1,1,-1
 229 100 l 1,2,-1
 239 73 l 1,3,-1
 426 520 l 1,4,-1
 462 520 l 1,5,-1
 260 46 l 1,6,7
 289 6 289 6 303.5 -15 c 128,-1,8
 318 -36 318 -36 330.5 -68 c 128,-1,9
 343 -100 343 -100 343 -130 c 0,10,11
 343 -182 343 -182 314.5 -215 c 128,-1,12
 286 -248 286 -248 239 -248 c 0,13,14
 194 -248 194 -248 165.5 -216.5 c 128,-1,15
 137 -185 137 -185 137 -130 c 0,16,17
 137 -119 137 -119 138 -108.5 c 128,-1,18
 139 -98 139 -98 142.5 -87 c 128,-1,19
 146 -76 146 -76 148 -68 c 128,-1,20
 150 -60 150 -60 156.5 -48 c 128,-1,21
 163 -36 163 -36 165.5 -31 c 128,-1,22
 168 -26 168 -26 177.5 -12.5 c 128,-1,23
 187 1 187 1 190 5 c 128,-1,24
 193 9 193 9 204.5 25 c 128,-1,25
 216 41 216 41 219 45 c 1,26,-1
 17 520 l 1,0,-1
164 -132 m 0,27,28
 164 -170 164 -170 184.5 -197.5 c 128,-1,29
 205 -225 205 -225 239 -225 c 0,30,31
 274 -225 274 -225 295 -197.5 c 128,-1,32
 316 -170 316 -170 316 -132 c 0,33,34
 316 -121 316 -121 314 -109 c 128,-1,35
 312 -97 312 -97 310.5 -88.5 c 128,-1,36
 309 -80 309 -80 302 -67 c 128,-1,37
 295 -54 295 -54 293 -49 c 128,-1,38
 291 -44 291 -44 280.5 -29.5 c 128,-1,39
 270 -15 270 -15 268 -12 c 128,-1,40
 266 -9 266 -9 253 8 c 128,-1,41
 240 25 240 25 239 26 c 1,42,43
 164 -68 164 -68 164 -132 c 0,27,28
EndSplineSet
Substitution2: "'sups' Superscript lookup 5 subtable" uni02E0
Substitution2: "'aalt' Access All Alternates lookup 0 subtable" uni02E0
EndChar

StartChar: uni0264
Encoding: 612 612 536
Width: 478
GlyphClass: 2
Flags: W
LayerCount: 2
Fore
SplineSet
240 376 m 1,0,1
 205 336 205 336 185.5 309 c 128,-1,2
 166 282 166 282 147.5 234 c 128,-1,3
 129 186 129 186 129 135 c 0,4,5
 129 78 129 78 159 42 c 128,-1,6
 189 6 189 6 241 6 c 0,7,8
 290 6 290 6 320 42 c 128,-1,9
 350 78 350 78 350 135 c 0,10,11
 350 205 350 205 321.5 260.5 c 128,-1,12
 293 316 293 316 240 376 c 1,0,1
48 510 m 1,13,-1
 48 535 l 1,14,15
 62 539 62 539 78 539 c 0,16,17
 126 539 126 539 162.5 509.5 c 128,-1,18
 199 480 199 480 240 423 c 1,19,20
 282 481 282 481 317.5 510 c 128,-1,21
 353 539 353 539 400 539 c 0,22,23
 417 539 417 539 431 536 c 1,24,-1
 431 510 l 1,25,26
 422 513 422 513 402 513 c 0,27,28
 362 513 362 513 328.5 483.5 c 128,-1,29
 295 454 295 454 257 399 c 1,30,31
 320 325 320 325 350 267 c 128,-1,32
 380 209 380 209 380 135 c 0,33,34
 380 65 380 65 343 23 c 128,-1,35
 306 -19 306 -19 241 -19 c 0,36,37
 174 -19 174 -19 136.5 23 c 128,-1,38
 99 65 99 65 99 135 c 0,39,40
 99 153 99 153 101.5 170.5 c 128,-1,41
 104 188 104 188 106 201.5 c 128,-1,42
 108 215 108 215 115.5 232.5 c 128,-1,43
 123 250 123 250 126 259 c 128,-1,44
 129 268 129 268 140 286.5 c 128,-1,45
 151 305 151 305 154 310.5 c 128,-1,46
 157 316 157 316 171 334.5 c 128,-1,47
 185 353 185 353 187 356 c 128,-1,48
 189 359 189 359 205.5 378.5 c 128,-1,49
 222 398 222 398 222 399 c 0,50,51
 184 456 184 456 151.5 484.5 c 128,-1,52
 119 513 119 513 78 513 c 0,53,54
 67 513 67 513 48 510 c 1,13,-1
EndSplineSet
EndChar

StartChar: uni0265
Encoding: 613 613 537
Width: 585
GlyphClass: 2
Flags: W
LayerCount: 2
Fore
SplineSet
95 182 m 2,0,-1
 95 520 l 1,1,-1
 126 520 l 1,2,-1
 126 190 l 2,3,4
 126 6 126 6 267 6 c 0,5,6
 338 6 338 6 394.5 64 c 128,-1,7
 451 122 451 122 451 201 c 2,8,-1
 451 520 l 1,9,-1
 481 520 l 1,10,-1
 481 -244 l 1,11,-1
 451 -244 l 1,12,-1
 451 108 l 1,13,14
 434 60 434 60 382.5 20.5 c 128,-1,15
 331 -19 331 -19 261 -19 c 0,16,17
 232 -19 232 -19 206.5 -11 c 128,-1,18
 181 -3 181 -3 154 16.5 c 128,-1,19
 127 36 127 36 111 79 c 128,-1,20
 95 122 95 122 95 182 c 2,0,-1
EndSplineSet
EndChar

StartChar: uni0266
Encoding: 614 614 538
Width: 585
GlyphClass: 2
Flags: W
LayerCount: 2
Fore
SplineSet
104 0 m 1,0,-1
 104 610 l 2,1,2
 104 687 104 687 149 729 c 128,-1,3
 194 771 194 771 264 771 c 0,4,5
 316 771 316 771 365 764 c 1,6,-1
 365 737 l 1,7,8
 313 745 313 745 265 745 c 0,9,10
 198 745 198 745 167 701.5 c 128,-1,11
 136 658 136 658 136 607 c 2,12,-1
 136 411 l 1,13,14
 155 460 155 460 206.5 499.5 c 128,-1,15
 258 539 258 539 326 539 c 0,16,17
 357 539 357 539 382.5 531 c 128,-1,18
 408 523 408 523 434.5 502.5 c 128,-1,19
 461 482 461 482 476.5 440 c 128,-1,20
 492 398 492 398 492 338 c 2,21,-1
 492 0 l 1,22,-1
 462 0 l 1,23,-1
 462 329 l 2,24,25
 462 513 462 513 320 513 c 0,26,27
 251 513 251 513 193.5 456.5 c 128,-1,28
 136 400 136 400 136 317 c 2,29,-1
 136 0 l 1,30,-1
 104 0 l 1,0,-1
EndSplineSet
Substitution2: "'sups' Superscript lookup 5 subtable" uni02B1
Substitution2: "'aalt' Access All Alternates lookup 0 subtable" uni02B1
EndChar

StartChar: uni0267
Encoding: 615 615 539
Width: 590
GlyphClass: 2
Flags: W
LayerCount: 2
Fore
SplineSet
104 0 m 1,0,-1
 104 610 l 2,1,2
 104 687 104 687 149 729 c 128,-1,3
 194 771 194 771 264 771 c 0,4,5
 316 771 316 771 365 764 c 1,6,-1
 365 737 l 1,7,8
 313 745 313 745 265 745 c 0,9,10
 198 745 198 745 167 701.5 c 128,-1,11
 136 658 136 658 136 606 c 2,12,-1
 136 411 l 1,13,14
 155 460 155 460 206.5 499.5 c 128,-1,15
 258 539 258 539 326 539 c 0,16,17
 357 539 357 539 382.5 531 c 128,-1,18
 408 523 408 523 434.5 502.5 c 128,-1,19
 461 482 461 482 476.5 440 c 128,-1,20
 492 398 492 398 492 338 c 2,21,-1
 492 -80 l 2,22,23
 492 -162 492 -162 460 -205 c 128,-1,24
 428 -248 428 -248 347 -248 c 0,25,26
 320 -248 320 -248 297 -245 c 1,27,-1
 297 -219 l 1,28,29
 319 -222 319 -222 346 -222 c 0,30,31
 402 -222 402 -222 432 -189.5 c 128,-1,32
 462 -157 462 -157 462 -79 c 2,33,-1
 462 329 l 2,34,35
 462 513 462 513 320 513 c 0,36,37
 252 513 252 513 194 456 c 128,-1,38
 136 399 136 399 136 317 c 2,39,-1
 136 0 l 1,40,-1
 104 0 l 1,0,-1
EndSplineSet
EndChar

StartChar: uni0268
Encoding: 616 616 540
Width: 282
GlyphClass: 2
Flags: W
LayerCount: 2
Fore
SplineSet
106 668 m 1,0,-1
 106 746 l 1,1,-1
 176 746 l 1,2,-1
 176 668 l 1,3,-1
 106 668 l 1,0,-1
34 275 m 1,4,-1
 34 301 l 1,5,-1
 127 301 l 1,6,-1
 127 520 l 1,7,-1
 157 520 l 1,8,-1
 157 301 l 1,9,-1
 250 301 l 1,10,-1
 250 275 l 1,11,-1
 157 275 l 1,12,-1
 157 0 l 1,13,-1
 127 0 l 1,14,-1
 127 275 l 1,15,-1
 34 275 l 1,4,-1
EndSplineSet
EndChar

StartChar: uni0269
Encoding: 617 617 541
Width: 331
GlyphClass: 2
Flags: W
LayerCount: 2
Fore
SplineSet
99 130 m 2,0,-1
 99 520 l 1,1,-1
 131 520 l 1,2,-1
 131 130 l 2,3,4
 131 7 131 7 225 7 c 0,5,6
 254 7 254 7 291 11 c 1,7,-1
 291 -16 l 1,8,9
 260 -19 260 -19 221 -19 c 0,10,11
 99 -19 99 -19 99 130 c 2,0,-1
EndSplineSet
EndChar

StartChar: uni026B
Encoding: 619 619 543
Width: 245
GlyphClass: 2
Flags: W
LayerCount: 2
Fore
SplineSet
-7 386 m 1,0,-1
 -7 412 l 1,1,2
 27 426 27 426 67 426 c 0,3,4
 82 426 82 426 106 419 c 1,5,-1
 106 767 l 1,6,-1
 138 767 l 1,7,-1
 138 412 l 1,8,9
 165 403 165 403 188 403 c 0,10,11
 226 403 226 403 252 420 c 1,12,-1
 252 394 l 1,13,14
 225 377 225 377 188 377 c 0,15,16
 168 377 168 377 138 387 c 1,17,-1
 138 0 l 1,18,-1
 106 0 l 1,19,-1
 106 394 l 1,20,21
 85 400 85 400 67 400 c 0,22,23
 33 400 33 400 -7 386 c 1,0,-1
EndSplineSet
EndChar

StartChar: uni026C
Encoding: 620 620 544
Width: 438
GlyphClass: 2
Flags: W
LayerCount: 2
Fore
SplineSet
60 417 m 0,0,1
 60 456 60 456 87.5 484.5 c 128,-1,2
 115 513 115 513 165 513 c 0,3,4
 208 513 208 513 245 487.5 c 128,-1,5
 282 462 282 462 294 432 c 1,6,-1
 294 767 l 1,7,-1
 323 767 l 1,8,-1
 323 325 l 1,9,-1
 435 325 l 1,10,-1
 435 300 l 1,11,-1
 323 300 l 1,12,-1
 323 0 l 1,13,-1
 294 0 l 1,14,-1
 294 300 l 1,15,-1
 212 300 l 2,16,17
 143 300 143 300 101.5 331.5 c 128,-1,18
 60 363 60 363 60 417 c 0,0,1
89 417 m 0,19,20
 89 373 89 373 123.5 349 c 128,-1,21
 158 325 158 325 215 325 c 2,22,-1
 293 325 l 1,23,-1
 293 358 l 2,24,25
 293 415 293 415 252 451 c 128,-1,26
 211 487 211 487 166 487 c 0,27,28
 132 487 132 487 110.5 466.5 c 128,-1,29
 89 446 89 446 89 417 c 0,19,20
EndSplineSet
EndChar

StartChar: uni026D
Encoding: 621 621 545
Width: 332
GlyphClass: 2
Flags: W
LayerCount: 2
Fore
SplineSet
106 -100 m 2,0,-1
 106 767 l 1,1,-1
 138 767 l 1,2,-1
 138 -99 l 2,3,4
 138 -221 138 -221 231 -221 c 0,5,6
 262 -221 262 -221 299 -217 c 1,7,-1
 299 -243 l 1,8,9
 247 -248 247 -248 230 -248 c 0,10,11
 106 -248 106 -248 106 -100 c 2,0,-1
EndSplineSet
EndChar

StartChar: uni026E
Encoding: 622 622 546
Width: 601
GlyphClass: 2
Flags: W
LayerCount: 2
Fore
SplineSet
132 -196 m 1,0,-1
 153 -181 l 1,1,2
 212 -222 212 -222 288 -222 c 0,3,4
 393 -222 393 -222 450.5 -166.5 c 128,-1,5
 508 -111 508 -111 508 -23 c 0,6,7
 508 72 508 72 447 125 c 128,-1,8
 386 178 386 178 270 178 c 2,9,-1
 198 178 l 1,10,-1
 198 201 l 1,11,-1
 475 494 l 1,12,-1
 137 494 l 1,13,-1
 137 0 l 1,14,-1
 106 0 l 1,15,-1
 106 767 l 1,16,-1
 137 767 l 1,17,-1
 137 520 l 1,18,-1
 516 520 l 1,19,-1
 516 497 l 1,20,-1
 237 203 l 1,21,-1
 274 203 l 2,22,23
 396 203 396 203 467.5 145.5 c 128,-1,24
 539 88 539 88 539 -23 c 0,25,26
 539 -124 539 -124 471 -186 c 128,-1,27
 403 -248 403 -248 288 -248 c 0,28,29
 195 -248 195 -248 132 -196 c 1,0,-1
EndSplineSet
EndChar

StartChar: uni026F
Encoding: 623 623 547
Width: 863
GlyphClass: 2
Flags: W
LayerCount: 2
Fore
SplineSet
95 181 m 2,0,-1
 95 520 l 1,1,-1
 126 520 l 1,2,-1
 126 189 l 2,3,4
 126 99 126 99 151.5 52.5 c 128,-1,5
 177 6 177 6 248 6 c 0,6,7
 315 6 315 6 364 62.5 c 128,-1,8
 413 119 413 119 413 207 c 2,9,-1
 413 520 l 1,10,-1
 445 520 l 1,11,-1
 445 189 l 2,12,13
 445 6 445 6 570 6 c 0,14,15
 640 6 640 6 686.5 60 c 128,-1,16
 733 114 733 114 733 200 c 2,17,-1
 733 520 l 1,18,-1
 763 520 l 1,19,-1
 763 0 l 1,20,-1
 734 0 l 1,21,-1
 734 100 l 1,22,-1
 732 100 l 1,23,24
 718 54 718 54 675.5 17.5 c 128,-1,25
 633 -19 633 -19 565 -19 c 0,26,27
 498 -19 498 -19 464.5 22 c 128,-1,28
 431 63 431 63 422 123 c 1,29,30
 422 112 422 112 411 91 c 128,-1,31
 400 70 400 70 380.5 44.5 c 128,-1,32
 361 19 361 19 323.5 0 c 128,-1,33
 286 -19 286 -19 240 -19 c 0,34,35
 164 -19 164 -19 129.5 30 c 128,-1,36
 95 79 95 79 95 181 c 2,0,-1
EndSplineSet
EndChar

